{"glyphs":{"0":{"ha":971,"x_min":40,"x_max":924,"o":"m 500 -26 q 334 6 408 -28 q 204 100 260 41 q 113 239 149 159 q 58 408 76 318 q 40 592 40 497 q 59 777 41 687 q 115 946 78 866 q 206 1086 151 1026 q 333 1180 260 1145 q 495 1215 405 1215 q 650 1180 581 1215 q 770 1085 719 1145 q 856 947 821 1026 q 907 779 890 868 q 924 596 924 690 q 907 413 924 502 q 856 244 890 323 q 771 105 822 165 q 652 10 720 45 q 500 -26 585 -26 m 471 975 q 376 936 416 970 q 309 846 336 901 q 269 724 281 792 q 256 586 256 656 q 272 448 257 515 q 315 327 287 380 q 387 241 344 274 q 486 205 429 208 q 567 225 531 204 q 630 283 603 246 q 676 371 658 321 q 704 478 694 421 q 713 594 713 534 q 704 710 713 654 q 675 816 694 766 q 627 902 656 865 q 559 958 598 938 q 471 975 520 978 z "},"1":{"ha":328,"x_min":41,"x_max":282,"o":"m 282 24 q 264 -2 282 9 q 220 -20 247 -14 q 162 -27 193 -26 q 103 -22 130 -28 q 59 -1 77 -16 q 41 37 41 13 l 45 1166 q 62 1188 45 1179 q 105 1203 79 1198 q 160 1210 130 1208 q 215 1207 189 1211 q 257 1195 240 1204 q 275 1173 275 1186 l 282 24 z "},"2":{"ha":919,"x_min":56,"x_max":880,"o":"m 92 221 q 158 268 118 237 q 243 338 197 298 q 339 427 290 378 q 436 528 389 475 q 523 634 482 580 q 591 740 564 688 q 632 840 619 792 q 635 928 644 888 q 598 979 627 960 q 528 1001 569 998 q 461 996 497 1003 q 392 969 425 989 q 335 914 359 949 q 302 824 310 879 q 281 786 299 801 q 239 765 264 772 q 186 759 214 758 q 136 767 159 760 q 98 789 113 774 q 85 823 83 803 q 113 942 90 888 q 171 1039 136 996 q 251 1114 206 1082 q 345 1166 296 1145 q 445 1197 394 1187 q 542 1205 495 1206 q 704 1175 637 1202 q 811 1106 770 1149 q 865 1006 851 1063 q 871 887 880 950 q 825 734 860 814 q 732 569 789 654 q 597 395 675 484 q 423 220 519 307 l 817 218 q 842 200 831 218 q 860 156 854 182 q 868 99 867 130 q 862 42 869 68 q 842 -2 856 16 q 804 -19 827 -19 l 107 -16 q 81 -1 92 -16 q 65 39 71 15 q 58 91 59 62 q 60 146 56 119 q 71 193 63 172 q 92 221 79 214 z "},"3":{"ha":903,"x_min":41,"x_max":853,"o":"m 309 901 q 293 882 307 890 q 258 869 279 874 q 213 864 237 865 q 168 867 189 863 q 134 880 148 871 q 119 906 119 890 q 127 1005 116 961 q 160 1084 138 1050 q 214 1143 182 1118 q 284 1183 246 1167 q 366 1205 323 1198 q 454 1211 409 1212 q 572 1190 521 1208 q 659 1139 623 1171 q 716 1064 695 1107 q 745 974 738 1022 q 746 892 750 935 q 726 811 742 850 q 679 738 709 772 q 602 682 649 704 q 709 635 662 667 q 788 558 755 604 q 837 455 821 513 q 852 332 853 398 q 832 218 850 269 q 784 125 814 166 q 713 55 753 85 q 627 6 673 25 q 531 -23 581 -14 q 433 -31 481 -32 q 335 -17 383 -29 q 243 17 287 -5 q 162 73 199 40 q 98 149 125 106 q 56 246 71 193 q 41 363 41 299 q 56 386 41 377 q 95 399 71 395 q 145 402 118 403 q 196 396 172 401 q 235 380 219 391 q 252 355 251 370 q 267 289 254 321 q 304 233 280 258 q 363 193 329 208 q 442 177 398 178 q 516 191 481 176 q 576 230 551 205 q 615 287 602 254 q 627 353 629 319 q 602 438 623 401 q 545 500 581 475 q 457 540 508 526 q 342 557 406 554 q 320 573 330 557 q 305 612 311 589 q 298 662 299 635 q 300 712 296 689 q 313 750 304 735 q 338 765 323 765 q 445 782 401 764 q 516 828 490 800 q 552 889 543 856 q 553 950 562 922 q 517 997 544 979 q 446 1015 490 1016 q 391 1006 415 1015 q 350 981 367 997 q 322 945 332 966 q 309 901 311 924 z "},"4":{"ha":972,"x_min":45,"x_max":926,"o":"m 285 487 l 560 487 l 563 1162 q 580 1184 563 1175 q 622 1199 597 1194 q 677 1205 648 1204 q 732 1203 707 1206 q 775 1191 758 1200 q 792 1168 792 1182 l 796 487 l 876 487 q 901 469 890 487 q 919 425 912 452 q 925 366 925 397 q 919 308 926 335 q 898 264 913 281 q 860 247 884 246 l 798 248 l 800 20 q 782 -6 800 5 q 738 -24 764 -18 q 679 -32 711 -31 q 621 -26 648 -33 q 576 -5 594 -20 q 559 33 559 9 l 559 251 l 230 256 q 175 257 200 256 q 129 262 150 258 q 93 278 109 267 q 67 308 77 288 q 51 357 56 327 q 46 431 45 387 l 55 1102 q 72 1124 55 1115 q 114 1139 89 1134 q 169 1145 140 1144 q 224 1143 199 1146 q 267 1131 250 1139 q 284 1108 284 1122 l 285 487 z "},"5":{"ha":900,"x_min":41,"x_max":852,"o":"m 288 970 l 293 748 q 468 758 389 766 q 610 721 547 749 q 718 648 672 692 q 793 551 763 604 q 837 442 823 499 q 852 332 852 385 q 834 218 852 269 q 786 125 817 166 q 715 55 755 85 q 628 6 674 25 q 531 -23 581 -14 q 433 -31 481 -32 q 335 -17 383 -29 q 243 17 287 -5 q 162 73 199 40 q 98 149 125 106 q 56 246 71 193 q 41 363 41 299 q 56 386 41 377 q 95 399 71 395 q 145 402 118 403 q 196 396 172 401 q 235 380 219 391 q 252 355 251 370 q 267 289 254 321 q 304 233 280 258 q 363 193 329 208 q 442 177 398 178 q 516 191 481 176 q 576 230 551 205 q 615 287 602 254 q 627 353 629 319 q 609 427 624 396 q 570 480 593 458 q 515 513 546 501 q 449 529 484 525 q 377 529 414 532 q 304 517 340 526 q 259 509 284 513 q 207 507 233 506 q 156 514 181 507 q 111 535 131 520 q 79 575 92 550 q 67 638 67 600 l 65 1066 q 77 1133 65 1107 q 112 1174 90 1159 q 164 1195 134 1190 q 229 1201 194 1201 l 794 1201 q 816 1183 807 1200 q 830 1140 825 1166 q 835 1085 835 1115 q 831 1030 836 1055 q 818 988 827 1005 q 795 972 809 971 l 288 970 z "},"6":{"ha":931,"x_min":46,"x_max":885,"o":"m 680 353 q 665 442 685 403 q 609 504 644 481 q 528 534 574 528 q 438 524 483 540 q 352 468 393 508 q 287 361 312 429 q 300 294 288 327 q 334 236 312 262 q 390 194 357 210 q 468 177 424 178 q 544 191 507 176 q 610 230 581 205 q 658 287 640 254 q 680 353 677 319 m 239 615 q 340 700 287 669 q 449 742 394 730 q 557 748 503 754 q 660 722 611 743 q 750 668 708 702 q 822 591 791 635 q 868 496 852 548 q 884 387 885 444 q 848 203 882 281 q 760 75 814 125 q 637 -1 706 24 q 494 -26 568 -26 q 322 11 396 -25 q 195 106 248 46 q 109 245 142 166 q 61 412 76 324 q 48 591 46 500 q 65 766 50 682 q 122 949 83 866 q 221 1091 161 1032 q 362 1179 281 1149 q 547 1200 444 1208 q 669 1168 612 1194 q 770 1101 726 1143 q 841 1006 813 1060 q 876 890 869 951 q 864 862 877 875 q 832 839 852 849 q 787 824 812 829 q 742 818 763 819 q 705 824 720 818 q 688 843 690 829 q 672 899 684 871 q 640 951 660 928 q 593 989 621 975 q 531 1004 566 1004 q 469 996 503 1004 q 403 968 436 987 q 340 919 370 949 q 287 846 309 889 q 251 745 264 802 q 239 615 237 688 z "},"7":{"ha":848,"x_min":34,"x_max":808,"o":"m 626 1198 q 684 1196 656 1198 q 736 1186 713 1194 q 777 1164 760 1179 q 801 1126 794 1150 q 803 1066 808 1101 q 777 981 798 1031 l 348 -37 q 322 -55 342 -51 q 274 -55 301 -59 q 217 -40 246 -51 q 165 -14 188 -29 q 131 22 142 2 q 130 64 120 42 l 517 961 l 78 966 q 56 983 65 966 q 41 1025 47 1000 q 35 1080 36 1050 q 37 1136 34 1110 q 49 1178 41 1161 q 72 1195 58 1195 l 626 1198 z "},"8":{"ha":897,"x_min":40,"x_max":855,"o":"m 855 387 q 831 235 854 302 q 768 118 808 168 q 676 36 728 68 q 565 -14 623 3 q 444 -31 506 -31 q 323 -15 382 -31 q 213 33 265 1 q 123 112 161 64 q 62 222 84 159 q 41 363 40 285 q 49 450 41 407 q 76 534 57 493 q 126 614 95 576 q 203 687 157 652 q 161 729 179 706 q 131 779 143 753 q 112 831 119 804 q 103 882 105 857 q 111 983 99 937 q 147 1066 123 1029 q 205 1131 171 1103 q 279 1177 239 1158 q 364 1203 319 1195 q 454 1211 409 1212 q 541 1199 498 1209 q 621 1169 583 1188 q 691 1122 659 1150 q 745 1059 723 1095 q 778 980 767 1023 q 785 885 789 936 q 776 833 783 859 q 759 780 770 806 q 731 728 747 753 q 694 682 715 703 q 769 615 738 655 q 819 534 800 576 q 847 452 838 492 q 855 387 855 413 m 455 557 q 368 541 406 558 q 303 495 329 524 q 263 429 277 466 q 252 355 250 392 q 266 289 253 321 q 304 233 279 258 q 363 193 328 208 q 442 177 398 178 q 514 191 481 176 q 571 230 547 205 q 609 287 595 254 q 627 353 623 319 q 620 426 630 389 q 589 491 610 462 q 533 537 567 519 q 455 557 500 555 m 446 1015 q 374 1002 404 1019 q 327 957 344 985 q 308 897 311 930 q 318 834 305 863 q 358 785 330 805 q 430 765 386 766 q 500 782 472 764 q 543 826 528 799 q 559 884 558 852 q 549 944 561 916 q 511 992 536 972 q 446 1015 485 1012 z "},"9":{"ha":941,"x_min":46,"x_max":897,"o":"m 442 300 q 300 327 363 301 q 189 397 237 353 q 110 500 142 441 q 62 624 78 558 q 46 759 46 690 q 62 894 46 829 q 110 1018 78 960 q 190 1120 142 1076 q 302 1190 238 1164 q 447 1215 366 1215 q 564 1200 511 1215 q 663 1160 618 1185 l 663 1183 q 680 1205 663 1197 q 722 1216 696 1213 q 776 1217 747 1219 q 831 1208 806 1215 q 873 1193 856 1202 q 890 1170 890 1183 q 891 1121 891 1156 q 892 1034 892 1086 q 892 917 892 982 q 893 780 892 852 q 893 631 893 707 q 894 480 894 555 q 894 337 894 406 q 895 210 895 268 q 896 107 895 151 q 896 40 896 64 q 879 2 897 16 q 834 -19 861 -12 q 776 -24 807 -25 q 718 -17 745 -23 q 673 1 690 -10 q 655 27 655 12 l 657 351 q 559 313 612 327 q 442 300 506 300 m 473 985 q 385 970 423 988 q 321 920 347 951 q 282 846 296 888 q 267 761 269 804 q 277 675 266 717 q 313 600 289 633 q 374 546 337 566 q 460 526 410 526 q 543 543 507 526 q 603 588 578 560 q 642 652 628 616 q 660 728 656 688 l 660 777 q 644 852 657 815 q 607 917 631 888 q 550 964 584 946 q 473 985 517 983 z "}," ":{"ha":494,"x_min":0,"x_max":0,"o":""}," ":{"ha":494,"x_min":0,"x_max":0,"o":""},"l":{"ha":364,"x_min":56,"x_max":296,"o":"m 296 24 q 279 -2 296 9 q 234 -20 261 -14 q 176 -27 208 -26 q 118 -22 144 -28 q 73 -1 91 -16 q 56 37 56 13 l 60 1166 q 77 1188 60 1179 q 119 1203 94 1198 q 174 1210 144 1208 q 229 1207 203 1211 q 272 1195 254 1204 q 289 1173 289 1186 l 296 24 z "},"G":{"ha":972,"x_min":50,"x_max":934,"o":"m 826 687 q 876 672 856 687 q 908 634 896 658 q 925 582 920 611 q 932 525 930 553 q 932 473 934 497 q 930 436 931 450 q 889 234 921 320 q 807 89 858 147 q 687 1 756 31 q 535 -31 618 -28 q 382 -10 451 -33 q 259 54 313 12 q 165 153 205 95 q 100 281 126 211 q 62 431 75 351 q 50 596 50 511 q 85 849 50 735 q 185 1043 121 962 q 339 1168 250 1124 q 536 1213 428 1213 q 650 1200 595 1213 q 750 1160 705 1187 q 831 1095 796 1134 q 884 1006 865 1057 q 879 972 890 989 q 848 939 868 954 q 803 911 828 923 q 753 894 777 899 q 709 891 728 888 q 682 907 689 893 q 618 968 659 947 q 512 983 577 989 q 421 952 465 979 q 342 877 377 925 q 286 760 308 828 q 262 605 264 691 q 279 422 258 500 q 335 294 299 345 q 417 217 370 243 q 514 191 464 192 q 588 206 555 191 q 644 254 621 221 q 680 340 667 288 q 696 465 694 392 l 473 465 q 450 481 460 465 q 435 522 441 498 q 428 575 429 547 q 430 627 427 603 q 441 668 433 652 q 464 684 450 684 l 826 687 z "},"P":{"ha":947,"x_min":54,"x_max":906,"o":"m 668 1156 q 780 1093 734 1133 q 854 1002 826 1053 q 895 893 883 951 q 902 776 906 836 q 879 658 897 716 q 828 550 860 600 q 752 460 796 499 q 653 397 708 420 q 476 349 568 363 q 293 345 384 336 l 295 12 q 277 -14 295 -3 q 233 -32 260 -26 q 174 -40 205 -39 q 116 -34 143 -41 q 72 -14 90 -28 q 54 24 54 1 q 55 111 54 53 q 55 246 55 169 q 56 413 56 323 q 56 595 56 503 q 57 777 56 688 q 58 942 57 867 q 62 1059 58 1010 q 78 1142 66 1109 q 111 1192 90 1175 q 167 1213 132 1209 q 299 1222 232 1221 q 430 1217 366 1223 q 555 1196 494 1211 q 668 1156 615 1181 m 299 585 q 464 589 393 576 q 579 632 534 603 q 646 703 625 661 q 664 792 667 745 q 644 873 661 838 q 599 935 627 909 q 536 977 572 960 q 460 1003 500 994 q 378 1012 420 1011 q 296 1007 336 1013 l 299 585 z "},"W":{"ha":1407,"x_min":37,"x_max":1370,"o":"m 1143 1193 q 1166 1214 1147 1206 q 1211 1223 1185 1221 q 1266 1220 1237 1224 q 1318 1204 1295 1215 q 1356 1177 1342 1194 q 1366 1138 1370 1160 q 1353 1075 1363 1122 q 1329 961 1343 1028 q 1296 810 1314 893 q 1258 638 1278 727 q 1219 459 1239 549 q 1181 289 1199 370 q 1148 140 1163 208 q 1122 29 1133 73 q 1098 3 1119 14 q 1046 -14 1076 -8 q 980 -19 1015 -19 q 914 -13 945 -19 q 860 5 883 -7 q 831 36 838 17 q 809 115 823 63 q 778 233 795 166 q 742 378 761 300 q 704 536 723 456 q 665 377 684 455 q 629 231 646 298 q 598 112 612 164 q 576 33 585 60 q 547 3 570 15 q 493 -16 524 -9 q 427 -22 462 -22 q 361 -16 392 -22 q 310 0 331 -11 q 285 26 288 11 q 259 137 275 70 q 226 286 244 205 q 188 457 208 367 q 149 635 168 547 q 111 807 130 724 q 78 958 93 890 q 54 1072 64 1025 q 41 1135 44 1119 q 51 1174 37 1158 q 89 1202 65 1191 q 141 1217 113 1213 q 196 1220 170 1221 q 241 1211 222 1219 q 264 1190 260 1204 l 440 399 l 596 1090 q 614 1108 598 1101 q 654 1119 631 1116 q 704 1122 677 1122 q 753 1118 730 1122 q 792 1107 777 1115 q 811 1090 808 1100 l 967 401 l 1143 1193 z "},"w":{"ha":1355,"x_min":38,"x_max":1314,"o":"m 1102 887 q 1127 904 1108 899 q 1170 907 1145 908 q 1220 899 1194 905 q 1267 882 1246 892 q 1301 861 1289 873 q 1311 837 1314 849 q 1297 783 1307 821 q 1273 694 1286 746 q 1241 580 1259 642 q 1205 453 1224 518 q 1168 322 1187 387 q 1131 200 1149 257 q 1098 96 1114 142 q 1072 23 1083 50 q 1051 6 1068 13 q 1011 -4 1034 -1 q 961 -8 988 -8 q 911 -6 935 -9 q 870 3 888 -3 q 848 19 852 9 q 813 96 833 47 q 770 205 793 145 q 723 332 747 265 q 676 463 699 398 q 628 332 652 398 q 582 205 604 265 q 539 96 559 145 q 505 19 519 47 q 482 3 500 9 q 441 -6 465 -3 q 391 -8 418 -9 q 341 -4 364 -8 q 301 6 318 -1 q 280 23 284 13 q 254 96 269 50 q 221 200 239 142 q 184 322 203 257 q 147 453 165 387 q 111 580 128 518 q 80 694 94 642 q 56 783 66 746 q 41 837 45 821 q 51 861 38 849 q 85 882 64 873 q 132 899 106 892 q 182 907 158 905 q 225 904 207 908 q 250 887 244 899 l 389 298 l 583 855 q 600 871 586 865 q 634 880 614 877 q 676 883 654 883 q 718 880 699 883 q 752 871 738 877 q 770 855 766 865 l 964 298 l 1102 887 z "},"b":{"ha":941,"x_min":49,"x_max":899,"o":"m 503 909 q 645 883 582 909 q 756 812 709 857 q 836 710 804 768 q 883 586 867 652 q 899 451 899 520 q 883 316 899 381 q 836 192 867 250 q 755 90 804 134 q 643 20 707 46 q 498 -5 579 -5 q 381 9 435 -5 q 283 50 328 24 l 283 26 q 266 5 283 13 q 224 -6 249 -3 q 169 -7 199 -9 q 115 1 140 -5 q 72 17 90 7 q 55 40 55 27 q 54 107 54 56 q 53 230 54 157 q 53 391 53 302 q 52 574 52 480 q 51 760 52 667 q 51 931 51 852 q 51 1070 51 1010 q 50 1160 50 1130 q 67 1198 49 1183 q 112 1218 85 1212 q 170 1224 138 1225 q 228 1216 201 1223 q 273 1198 255 1210 q 290 1173 290 1187 l 288 859 q 386 897 333 883 q 503 909 439 910 m 472 224 q 560 240 522 222 q 624 290 598 258 q 663 364 650 322 q 678 449 677 406 q 668 535 680 493 q 632 610 656 577 q 571 664 608 644 q 485 684 534 684 q 402 667 438 684 q 342 622 367 650 q 303 558 317 594 q 286 482 289 522 l 286 433 q 301 358 288 395 q 338 293 315 321 q 395 245 361 264 q 472 224 428 227 z "},"m":{"ha":1435,"x_min":52,"x_max":1366,"o":"m 288 823 q 309 833 298 828 q 332 842 320 838 q 578 871 472 899 q 754 724 684 843 q 833 799 791 767 q 919 850 876 830 q 1008 876 963 869 q 1095 877 1053 883 q 1204 833 1157 867 q 1283 746 1251 799 q 1334 624 1316 693 q 1358 475 1352 554 q 1365 271 1364 378 q 1360 36 1366 164 q 1342 3 1360 16 q 1300 -16 1325 -9 q 1246 -22 1275 -22 q 1192 -15 1217 -22 q 1151 4 1167 -8 q 1136 36 1135 17 q 1145 262 1141 162 q 1143 439 1149 363 q 1133 513 1140 475 q 1113 583 1126 551 q 1082 634 1100 614 q 1038 656 1063 654 q 956 641 990 659 q 897 592 921 624 q 857 516 872 560 q 833 422 842 473 q 821 319 824 372 q 817 213 817 265 q 816 114 816 161 q 816 30 817 67 q 798 -3 815 10 q 756 -22 781 -16 q 702 -28 731 -28 q 648 -21 673 -28 q 607 -2 623 -14 q 591 30 591 11 q 600 256 597 156 q 599 433 604 357 q 583 547 595 498 q 546 623 571 595 q 480 653 521 650 q 379 633 440 657 q 290 585 328 614 l 293 24 q 275 -2 293 9 q 231 -20 258 -14 q 172 -27 203 -26 q 114 -22 141 -28 q 70 -1 87 -16 q 52 37 52 13 q 53 114 53 66 q 53 221 53 162 q 54 346 54 279 q 54 479 54 412 q 54 609 54 545 q 55 724 54 672 q 55 815 55 777 q 56 869 56 853 q 74 891 56 882 q 116 906 91 901 q 171 912 142 911 q 226 910 201 913 q 269 898 252 907 q 286 876 286 889 l 288 823 z "},"H":{"ha":976,"x_min":41,"x_max":927,"o":"m 927 31 q 909 5 927 16 q 865 -13 892 -7 q 806 -21 838 -20 q 748 -15 775 -22 q 704 5 722 -9 q 686 43 686 20 q 687 110 686 66 q 687 212 687 154 q 688 339 688 270 q 688 481 688 408 q 592 482 642 481 q 490 483 542 482 q 384 483 437 483 q 279 484 331 484 l 282 24 q 264 -2 282 9 q 220 -20 247 -14 q 161 -27 193 -26 q 103 -22 130 -28 q 59 -1 77 -16 q 41 37 41 13 q 42 104 41 60 q 42 206 42 148 q 43 334 43 264 q 43 477 43 403 q 43 628 43 551 q 43 776 43 704 q 44 913 43 848 q 44 1030 44 979 q 44 1118 44 1082 q 45 1166 45 1153 q 63 1188 45 1179 q 105 1203 80 1198 q 160 1210 131 1208 q 215 1207 190 1211 q 258 1195 241 1204 q 275 1173 275 1186 l 277 718 l 688 719 q 688 877 688 801 q 689 1013 688 952 q 689 1116 689 1074 q 690 1173 690 1158 q 708 1196 690 1186 q 750 1210 725 1205 q 805 1216 776 1215 q 860 1214 835 1217 q 903 1202 886 1211 q 920 1179 920 1193 l 927 31 z "},"]":{"ha":531,"x_min":56,"x_max":465,"o":"m 227 1051 l 108 1051 q 82 1069 94 1051 q 64 1113 71 1086 q 57 1170 58 1139 q 62 1227 56 1200 q 83 1271 68 1253 q 121 1288 97 1288 l 273 1288 q 359 1283 324 1288 q 415 1267 393 1278 q 447 1238 436 1256 q 461 1194 457 1220 q 465 1134 465 1168 q 465 1056 465 1100 l 463 111 q 463 33 463 67 q 459 -27 463 -1 q 445 -71 455 -53 q 413 -100 434 -89 q 357 -116 391 -111 q 271 -121 322 -121 l 121 -121 q 83 -103 98 -121 q 63 -60 69 -86 q 57 -4 56 -35 q 65 52 58 26 q 83 95 71 77 q 109 112 94 112 l 224 112 l 227 1051 z "},"X":{"ha":1047,"x_min":40,"x_max":1010,"o":"m 380 581 l 47 1053 q 49 1081 40 1064 q 76 1117 58 1098 q 118 1153 94 1135 q 165 1182 142 1171 q 207 1196 188 1193 q 234 1187 226 1198 l 525 781 l 817 1187 q 844 1196 825 1198 q 886 1182 863 1193 q 933 1153 909 1171 q 975 1117 957 1135 q 1002 1081 993 1098 q 1003 1053 1010 1064 l 669 581 l 999 123 q 999 91 1007 111 q 972 52 990 72 q 928 13 954 31 q 877 -15 903 -5 q 828 -23 851 -25 q 792 -1 805 -22 l 525 376 l 258 -1 q 222 -23 245 -22 q 174 -15 199 -25 q 122 13 148 -5 q 79 52 97 31 q 52 91 60 72 q 52 123 43 111 l 380 581 z "},"x":{"ha":909,"x_min":45,"x_max":873,"o":"m 309 448 q 221 559 263 505 q 145 656 179 612 q 86 730 111 700 q 53 773 62 761 q 52 800 45 783 q 77 836 60 817 q 116 873 94 855 q 162 903 139 891 q 203 919 184 916 q 231 911 222 922 l 459 632 l 687 911 q 715 919 696 922 q 756 903 734 916 q 802 873 779 891 q 842 836 825 855 q 866 800 859 817 q 865 773 873 783 q 832 730 856 761 q 773 656 808 700 q 697 559 739 612 q 610 448 655 505 l 859 142 q 863 111 869 131 q 840 68 857 90 q 801 24 824 45 q 753 -9 777 3 q 705 -22 728 -22 q 667 -4 682 -22 q 632 38 654 12 q 584 99 611 64 q 525 173 557 133 q 459 256 494 213 q 393 173 425 213 q 334 99 361 133 q 285 38 307 64 q 251 -4 264 12 q 213 -22 236 -22 q 165 -9 190 -22 q 118 24 141 3 q 78 68 94 45 q 56 111 62 90 q 59 142 50 131 l 309 448 z "},"I":{"ha":790,"x_min":41,"x_max":754,"o":"m 95 -7 q 69 11 81 -7 q 51 55 58 28 q 44 112 45 81 q 49 169 43 142 q 70 213 56 195 q 108 230 84 230 l 271 229 q 271 342 271 281 q 271 468 271 403 q 272 600 271 533 q 272 730 272 666 q 272 852 272 793 q 272 960 272 911 l 83 962 q 61 979 71 962 q 47 1022 52 996 q 41 1078 42 1048 q 45 1133 41 1107 q 57 1176 49 1159 q 80 1193 66 1193 l 699 1195 q 724 1177 713 1195 q 742 1133 736 1160 q 750 1076 749 1107 q 744 1019 751 1046 q 724 976 738 993 q 686 958 709 958 l 507 959 l 511 228 l 711 227 q 733 209 724 227 q 748 166 743 192 q 753 111 753 140 q 750 55 754 81 q 737 12 746 29 q 715 -5 728 -5 l 95 -7 z "},"c":{"ha":891,"x_min":50,"x_max":839,"o":"m 647 334 q 681 351 660 350 q 726 341 703 351 q 772 313 749 331 q 811 275 795 295 q 833 235 827 254 q 829 201 839 215 q 766 128 803 163 q 684 66 729 93 q 587 23 639 39 q 480 7 536 7 q 324 31 393 6 q 203 100 255 56 q 117 202 151 144 q 66 327 83 261 q 50 463 50 393 q 67 598 50 532 q 119 724 85 665 q 204 827 153 783 q 323 896 256 871 q 475 922 391 922 q 588 907 534 922 q 687 865 642 892 q 766 799 732 838 q 821 711 800 760 q 817 678 827 695 q 786 645 806 661 q 740 618 766 630 q 689 601 714 606 q 645 598 665 595 q 617 614 625 600 q 554 675 595 654 q 449 692 513 696 q 367 667 402 688 q 308 612 331 645 q 273 538 284 579 q 261 455 261 497 q 275 373 262 413 q 312 302 288 334 q 374 252 337 271 q 462 233 412 233 q 516 242 489 233 q 568 266 543 251 q 612 298 592 280 q 647 334 633 316 z "},"&":{"ha":1019,"x_min":62,"x_max":975,"o":"m 629 692 q 538 609 583 644 l 705 360 q 771 415 739 387 q 832 471 802 443 q 858 476 842 480 q 892 459 874 472 q 928 429 911 447 q 957 391 945 410 q 971 353 968 371 q 964 322 975 334 q 899 251 934 286 q 825 185 864 217 l 882 100 q 886 62 894 83 q 860 21 879 41 q 814 -15 841 1 q 759 -38 787 -31 q 707 -41 732 -45 q 669 -14 683 -36 l 628 51 q 473 -4 551 12 q 326 -8 395 -20 q 198 44 256 4 q 103 157 140 85 q 65 293 68 224 q 83 429 62 363 q 146 554 104 495 q 245 657 189 612 l 245 659 q 181 772 204 711 q 153 894 158 833 q 163 1010 149 954 q 212 1109 178 1067 q 302 1178 247 1152 q 433 1204 357 1204 q 554 1180 500 1204 q 648 1118 609 1157 q 707 1026 686 1078 q 728 918 728 975 q 704 803 728 861 q 629 692 680 745 m 288 269 q 329 218 302 236 q 388 196 356 200 q 451 201 419 192 q 508 231 483 210 l 360 473 q 316 421 334 447 q 287 369 297 395 q 277 319 277 344 q 288 269 276 294 m 450 1006 q 404 998 422 1008 q 377 968 386 987 q 367 924 368 949 q 374 873 367 899 q 396 821 381 846 q 431 777 410 795 q 478 819 460 795 q 506 867 497 842 q 516 916 515 892 q 509 959 517 940 q 487 991 502 979 q 450 1006 472 1004 z "},"n":{"ha":871,"x_min":52,"x_max":821,"o":"m 288 809 q 309 819 298 814 q 332 829 320 824 q 530 876 444 874 q 675 835 615 878 q 769 701 735 791 q 813 469 804 610 q 821 265 820 372 q 816 30 821 158 q 798 -3 815 10 q 755 -22 781 -16 q 701 -28 730 -28 q 647 -21 672 -28 q 607 -2 623 -14 q 591 30 591 11 q 600 256 597 156 q 599 433 604 357 q 583 545 595 498 q 546 615 571 591 q 480 642 521 640 q 379 620 440 644 q 290 571 328 600 l 293 24 q 275 -2 293 9 q 231 -20 258 -14 q 172 -27 203 -26 q 114 -22 141 -28 q 70 -1 87 -16 q 52 37 52 13 q 53 114 53 66 q 53 221 53 162 q 54 346 54 279 q 54 479 54 412 q 54 609 54 545 q 55 724 54 672 q 55 815 55 777 q 56 869 56 853 q 74 891 56 882 q 116 906 91 901 q 171 912 142 911 q 226 910 201 913 q 269 898 252 907 q 286 876 286 889 l 288 809 z "},"£":{"ha":854,"x_min":48,"x_max":808,"o":"m 151 696 q 160 835 153 778 q 178 932 167 892 q 202 999 189 972 q 231 1049 216 1027 q 306 1127 265 1098 q 386 1171 347 1156 q 458 1190 425 1185 q 509 1196 491 1195 q 583 1192 544 1198 q 659 1174 623 1186 q 724 1145 694 1162 q 767 1108 753 1128 q 780 1068 779 1092 q 775 1021 781 1045 q 756 975 768 997 q 727 939 743 953 q 690 922 710 924 q 651 933 671 919 q 580 967 614 959 q 518 971 545 975 q 425 896 458 963 q 398 810 407 860 q 385 696 389 760 l 679 696 q 705 679 693 696 q 723 636 716 662 q 731 582 730 611 q 726 527 732 552 q 706 484 720 501 q 668 467 692 467 l 387 467 l 389 203 l 756 207 q 782 189 770 207 q 800 145 793 172 q 807 88 806 119 q 802 31 808 58 q 781 -13 795 5 q 743 -30 767 -30 q 567 -30 639 -30 q 449 -29 495 -29 q 377 -29 402 -29 q 339 -28 351 -28 q 326 -28 328 -28 q 323 -28 323 -28 q 237 -14 271 -28 q 185 29 204 1 q 158 99 165 57 q 151 199 151 142 l 150 467 l 94 467 q 71 484 81 467 q 56 526 62 500 q 50 581 51 551 q 52 636 48 611 q 63 679 55 662 q 85 696 71 696 l 151 696 z "},"J":{"ha":746,"x_min":62,"x_max":698,"o":"m 688 1135 q 693 970 690 1052 q 696 815 695 889 q 698 677 698 741 q 696 566 698 613 q 677 331 693 433 q 625 155 661 229 q 514 32 585 75 q 334 -16 444 -12 q 260 -10 299 -17 q 184 9 220 -3 q 119 39 149 21 q 76 77 90 56 q 63 117 64 94 q 68 164 62 140 q 87 210 75 189 q 116 245 100 232 q 153 261 133 259 q 192 250 172 264 q 218 233 205 240 q 244 221 231 226 q 313 208 281 207 q 369 224 344 210 q 411 267 393 239 q 437 333 428 294 q 453 441 449 380 q 460 574 458 502 q 461 681 461 618 q 459 818 460 743 q 454 978 457 893 q 447 1152 451 1063 q 464 1178 446 1166 q 507 1195 481 1189 q 565 1201 534 1201 q 623 1195 596 1202 q 669 1173 650 1187 q 688 1135 687 1158 z "},"Y":{"ha":979,"x_min":39,"x_max":944,"o":"m 490 781 l 732 1187 q 758 1200 739 1199 q 803 1195 778 1201 q 854 1177 828 1189 q 902 1152 881 1166 q 933 1124 922 1138 q 938 1098 944 1109 l 612 510 l 614 8 q 596 -18 614 -6 q 551 -36 578 -29 q 493 -43 524 -42 q 435 -38 462 -44 q 390 -17 408 -31 q 373 21 372 -3 l 380 512 l 44 1102 q 44 1121 39 1110 q 61 1142 50 1131 q 91 1162 73 1152 q 127 1181 108 1173 q 166 1195 146 1190 q 203 1203 186 1201 q 232 1202 220 1205 q 250 1191 245 1200 l 490 781 z "},"*":{"ha":954,"x_min":70,"x_max":882,"o":"m 387 706 l 338 958 q 355 980 338 970 q 397 995 372 989 q 452 1001 422 1000 q 507 998 481 1002 q 550 986 532 995 q 567 964 567 977 l 534 694 l 743 889 q 774 887 755 897 q 812 858 793 878 q 848 812 831 838 q 873 759 865 785 q 878 710 882 732 q 854 675 875 688 l 589 580 l 818 427 q 827 397 829 418 q 813 351 825 376 q 782 301 801 326 q 741 260 763 277 q 697 238 720 243 q 656 248 675 233 l 538 458 l 574 200 q 557 174 574 186 q 512 156 539 163 q 454 149 486 150 q 396 154 422 148 q 351 175 369 161 q 334 213 334 189 l 385 486 l 212 300 q 183 303 200 294 q 150 332 167 313 q 116 376 132 351 q 90 425 100 401 q 79 468 80 449 q 90 494 77 487 l 327 594 l 80 720 q 73 747 70 728 q 89 789 77 766 q 119 836 101 812 q 155 877 136 859 q 192 902 174 895 q 220 901 209 910 l 387 706 z "},"d":{"ha":940,"x_min":45,"x_max":895,"o":"m 441 907 q 558 895 505 908 q 656 857 612 881 l 654 1168 q 672 1194 654 1182 q 717 1212 690 1205 q 775 1219 744 1218 q 833 1214 806 1220 q 878 1193 860 1207 q 895 1155 895 1179 q 895 1088 895 1131 q 894 987 895 1044 q 893 861 894 929 q 893 719 893 793 q 893 570 893 646 q 892 424 892 495 q 892 288 892 353 q 891 173 892 224 q 891 86 891 121 q 890 38 890 51 q 872 15 890 25 q 830 -1 855 5 q 775 -9 805 -7 q 721 -8 746 -11 q 679 2 696 -5 q 662 24 662 10 l 662 48 q 564 7 617 22 q 446 -7 510 -7 q 301 18 366 -7 q 189 88 237 44 q 109 190 141 132 q 61 314 77 248 q 45 449 45 379 q 61 584 45 518 q 109 708 77 650 q 189 810 141 766 q 299 881 236 854 q 441 907 363 907 m 473 222 q 550 243 516 225 q 607 291 583 262 q 643 356 630 319 q 659 431 656 393 l 659 480 q 642 556 656 519 q 603 620 627 592 q 542 665 578 648 q 460 682 507 682 q 373 662 410 682 q 312 608 336 642 q 277 533 288 575 q 267 447 265 491 q 281 362 268 404 q 321 288 295 320 q 385 238 347 256 q 473 222 422 220 z "},"o":{"ha":933,"x_min":53,"x_max":880,"o":"m 484 3 q 328 28 397 3 q 207 97 258 53 q 120 199 155 140 q 70 323 86 258 q 53 459 53 389 q 71 595 53 529 q 122 720 88 661 q 208 823 157 779 q 327 893 259 867 q 479 918 395 918 q 624 892 559 918 q 736 823 688 867 q 816 721 784 779 q 864 597 848 663 q 880 462 880 532 q 864 327 880 393 q 816 203 848 261 q 736 100 784 144 q 626 30 689 56 q 484 3 562 4 m 452 688 q 370 665 405 686 q 311 611 334 644 q 276 537 288 578 q 265 454 264 496 q 278 371 265 412 q 316 299 291 331 q 378 249 340 268 q 465 229 415 229 q 552 249 515 229 q 613 302 589 269 q 648 378 637 336 q 659 464 660 420 q 644 549 657 507 q 604 623 630 591 q 541 673 578 654 q 452 688 503 691 z "},"K":{"ha":969,"x_min":66,"x_max":937,"o":"m 304 766 l 735 1194 q 764 1199 745 1204 q 805 1181 783 1195 q 847 1146 827 1167 q 880 1101 867 1124 q 894 1055 892 1078 q 878 1015 895 1032 l 471 626 l 926 164 q 932 133 937 154 q 912 89 927 113 q 876 43 897 66 q 830 7 854 21 q 784 -10 807 -7 q 745 5 761 -12 l 306 459 l 308 21 q 290 -5 308 7 q 245 -23 273 -16 q 187 -30 218 -29 q 129 -25 156 -31 q 84 -4 102 -18 q 67 34 66 10 q 67 101 67 58 q 68 203 68 145 q 68 331 68 262 q 68 475 68 400 q 69 626 68 549 q 69 774 69 702 q 70 911 69 846 q 70 1028 70 977 q 70 1116 70 1080 q 71 1165 71 1152 q 89 1187 71 1178 q 131 1202 106 1197 q 186 1208 157 1207 q 241 1206 216 1209 q 283 1194 267 1202 q 300 1171 300 1185 l 304 766 z "},"Q":{"ha":1166,"x_min":51,"x_max":1129,"o":"m 606 -41 q 405 -8 494 -43 q 249 86 315 26 q 138 227 182 146 q 73 398 94 307 q 51 585 51 489 q 74 771 52 680 q 140 943 96 862 q 251 1084 184 1023 q 404 1180 317 1145 q 600 1215 491 1215 q 770 1185 694 1215 q 907 1106 847 1156 q 1009 987 966 1055 q 1077 840 1051 918 q 1111 676 1103 761 q 1112 506 1120 591 q 1078 342 1103 422 q 1012 194 1053 262 l 1122 18 q 1119 -13 1129 5 q 1087 -50 1108 -32 q 1039 -83 1066 -68 q 985 -105 1012 -98 q 936 -107 958 -112 q 903 -81 914 -103 l 840 22 q 732 -24 790 -7 q 606 -41 673 -40 m 859 438 q 878 559 875 496 q 872 683 882 623 q 838 798 862 744 q 777 892 814 852 q 688 954 739 932 q 570 972 636 975 q 439 931 495 967 q 346 840 383 895 q 290 715 309 785 q 273 574 272 646 q 293 434 273 503 q 353 313 313 366 q 451 227 392 259 q 589 193 510 194 q 657 202 625 193 q 716 228 688 211 l 578 455 q 583 483 572 467 q 614 515 594 498 q 661 546 635 531 q 711 569 686 561 q 754 578 735 578 q 779 566 772 578 l 859 438 z "},"y":{"ha":983,"x_min":44,"x_max":941,"o":"m 585 433 q 630 595 608 517 q 668 737 651 673 q 698 844 686 800 q 714 902 710 887 q 736 919 718 914 q 782 922 755 924 q 837 915 808 921 q 889 898 865 908 q 927 876 913 888 q 938 850 941 863 l 631 -294 q 607 -315 627 -309 q 559 -321 587 -321 q 501 -314 532 -321 q 446 -294 471 -307 q 408 -263 422 -281 q 401 -222 395 -245 q 417 -165 406 -203 q 443 -79 429 -127 q 473 27 457 -30 q 506 142 490 84 q 410 274 460 206 q 313 407 361 341 q 221 532 265 472 q 143 640 178 592 q 84 721 108 688 q 52 766 60 754 q 52 795 44 777 q 78 832 60 812 q 118 870 95 851 q 163 901 141 888 q 204 916 186 913 q 232 908 223 919 l 585 433 z "},"Z":{"ha":855,"x_min":56,"x_max":814,"o":"m 525 962 l 99 964 q 77 980 86 963 q 63 1022 68 996 q 57 1078 58 1048 q 60 1134 56 1108 q 73 1179 64 1160 q 96 1198 81 1197 l 741 1195 q 781 1182 766 1195 q 804 1147 796 1168 q 813 1100 812 1126 q 809 1045 814 1073 q 794 991 804 1017 q 771 944 785 964 l 336 223 l 754 219 q 781 202 769 219 q 800 159 793 184 q 810 103 808 133 q 806 47 812 73 q 787 5 801 22 q 750 -12 774 -12 l 197 -9 q 131 2 158 -9 q 87 34 104 14 q 63 80 71 54 q 56 133 56 105 q 65 190 57 161 q 87 242 73 218 l 525 962 z "},"©":{"ha":1424,"x_min":86,"x_max":1356,"o":"m 864 519 q 889 531 873 531 q 921 524 904 532 q 955 504 939 517 q 983 476 972 491 q 999 447 995 462 q 997 422 1004 433 q 950 369 977 395 q 891 325 924 344 q 821 293 859 305 q 743 281 783 281 q 605 309 663 281 q 507 384 546 337 q 448 491 467 431 q 430 613 429 551 q 450 735 430 675 q 508 843 469 795 q 605 918 547 890 q 739 947 663 947 q 821 936 782 947 q 893 906 860 926 q 951 858 926 886 q 990 794 976 829 q 987 769 995 782 q 965 746 980 757 q 932 726 951 734 q 895 713 913 718 q 862 711 877 709 q 842 723 848 713 q 797 768 826 752 q 720 779 767 783 q 661 761 686 777 q 617 721 635 745 q 592 668 600 697 q 584 607 583 638 q 593 548 584 576 q 621 496 603 519 q 666 459 639 473 q 730 446 693 446 q 769 452 749 446 q 806 470 789 459 q 839 493 824 480 q 864 519 854 506 m 748 -26 q 508 8 614 -27 q 323 104 402 43 q 191 248 243 165 q 112 422 138 330 q 87 611 86 514 q 114 801 87 709 q 194 976 141 894 q 325 1119 246 1058 q 507 1217 403 1181 q 741 1252 611 1253 q 963 1216 864 1252 q 1135 1119 1061 1180 q 1258 977 1209 1058 q 1332 804 1307 895 q 1356 615 1356 712 q 1332 427 1356 518 q 1259 253 1308 335 q 1137 110 1210 171 q 966 12 1063 48 q 748 -26 869 -25 m 715 1053 q 574 1022 637 1049 q 464 952 511 995 q 385 852 416 909 q 338 734 353 796 q 324 606 323 671 q 342 479 325 541 q 392 362 359 417 q 475 266 425 307 q 592 201 526 225 q 741 176 658 177 q 878 201 817 176 q 985 269 939 226 q 1062 370 1031 312 q 1109 492 1093 427 q 1125 624 1125 556 q 1109 755 1125 692 q 1061 875 1093 819 q 979 972 1028 931 q 865 1035 930 1013 q 715 1053 799 1057 z "},"L":{"ha":760,"x_min":42,"x_max":721,"o":"m 281 217 l 669 225 q 694 207 683 225 q 712 162 706 189 q 720 104 719 136 q 714 46 721 73 q 694 2 708 20 q 656 -16 680 -16 q 461 -15 566 -14 q 235 -16 357 -16 q 149 -11 183 -16 q 93 5 114 -5 q 61 34 71 16 q 46 78 50 52 q 42 138 42 104 q 42 216 42 172 q 42 342 42 274 q 42 483 42 410 q 43 629 43 555 q 43 773 43 703 q 43 906 43 844 q 44 1019 43 969 q 44 1104 44 1069 q 45 1152 45 1139 q 63 1174 46 1164 q 105 1188 80 1183 q 160 1195 131 1194 q 215 1192 190 1196 q 258 1180 241 1189 q 275 1158 275 1171 l 281 217 z "},"p":{"ha":943,"x_min":52,"x_max":902,"o":"m 506 3 q 389 16 442 3 q 291 54 336 30 l 293 -269 q 275 -295 293 -283 q 231 -312 258 -306 q 172 -320 203 -319 q 114 -314 141 -321 q 70 -294 87 -308 q 52 -256 52 -279 q 53 -188 52 -232 q 53 -86 53 -144 q 54 41 54 -28 q 54 184 54 110 q 55 335 54 258 q 55 483 55 411 q 56 620 56 555 q 56 737 56 685 q 57 824 56 789 q 58 873 57 859 q 75 896 58 886 q 117 911 92 905 q 172 920 142 918 q 227 919 201 922 q 269 908 252 916 q 286 886 286 900 l 286 863 q 384 903 330 888 q 501 918 437 918 q 646 892 582 918 q 758 823 710 867 q 838 721 806 779 q 886 597 870 663 q 902 462 902 532 q 886 327 902 393 q 838 203 870 261 q 759 100 806 144 q 648 30 711 56 q 506 3 585 4 m 475 688 q 397 667 431 686 q 341 620 364 649 q 304 555 317 591 q 288 479 291 518 l 288 431 q 306 355 292 391 q 345 291 320 319 q 405 246 370 263 q 488 229 441 229 q 574 249 537 229 q 635 302 611 269 q 671 378 659 336 q 681 464 682 420 q 666 549 680 507 q 627 623 652 591 q 563 673 601 654 q 475 688 525 691 z "},"e":{"ha":964,"x_min":48,"x_max":916,"o":"m 727 297 q 756 306 736 308 q 799 293 776 304 q 844 266 821 283 q 882 231 867 250 q 903 195 898 213 q 897 165 909 178 q 801 80 852 116 q 693 22 749 45 q 581 -9 638 0 q 468 -16 524 -19 q 307 21 384 -12 q 173 112 231 54 q 82 255 115 171 q 50 448 48 340 q 64 563 51 506 q 104 672 78 621 q 169 769 130 724 q 258 848 207 814 q 372 900 309 881 q 511 921 435 920 q 680 888 608 922 q 801 798 751 854 q 877 667 850 741 q 913 516 905 594 q 912 463 916 490 q 900 413 909 436 q 876 376 891 391 q 839 361 861 361 q 769 360 810 360 q 680 360 728 359 q 578 360 631 360 q 472 361 525 361 q 367 362 418 362 q 271 363 315 363 q 304 285 282 319 q 354 229 326 252 q 417 194 382 205 q 490 182 452 182 q 612 210 550 181 q 727 297 674 238 m 481 697 q 378 666 424 694 q 304 592 333 637 l 667 593 q 642 636 657 616 q 604 670 627 656 q 552 691 582 684 q 481 697 522 699 z "},"z":{"ha":768,"x_min":41,"x_max":730,"o":"m 417 688 l 94 690 q 72 706 81 690 q 57 748 62 722 q 52 804 52 774 q 55 861 51 834 q 67 905 59 887 q 90 924 76 923 l 633 921 q 688 908 668 921 q 715 873 707 895 q 721 826 723 852 q 710 771 718 799 q 689 717 702 743 q 663 670 677 690 q 650 650 658 661 q 629 621 642 640 q 593 572 615 602 q 537 495 571 542 q 453 381 503 448 q 336 223 404 315 l 672 219 q 699 202 687 219 q 718 159 711 184 q 728 103 726 133 q 724 47 730 73 q 705 5 719 22 q 668 -12 692 -12 l 197 -9 q 148 -1 173 -9 q 102 23 123 7 q 65 62 81 39 q 46 112 50 84 q 51 173 41 140 q 87 242 60 205 l 417 688 z "},"R":{"ha":943,"x_min":54,"x_max":897,"o":"m 167 1213 q 309 1222 232 1221 q 465 1215 387 1224 q 617 1182 543 1205 q 748 1117 690 1159 q 843 1013 806 1076 q 884 862 880 951 q 872 747 886 798 q 831 656 858 696 q 767 587 804 616 q 687 537 730 558 q 597 504 644 517 q 507 484 551 490 l 886 149 q 895 119 897 140 q 880 73 892 98 q 848 23 867 47 q 807 -19 829 -2 q 763 -40 785 -35 q 722 -28 741 -44 l 290 367 l 295 12 q 277 -14 295 -3 q 233 -32 260 -26 q 174 -40 205 -39 q 116 -34 143 -41 q 72 -14 90 -28 q 54 24 54 1 q 55 111 54 53 q 57 246 56 169 q 58 413 58 323 q 59 595 59 503 q 59 777 60 688 q 58 942 59 867 q 61 1038 57 991 q 77 1123 64 1085 q 111 1185 89 1160 q 167 1213 132 1209 m 299 704 q 332 701 311 702 q 381 701 354 700 q 440 705 409 701 q 502 716 471 709 q 560 736 532 724 q 608 766 587 748 q 639 809 628 784 q 647 867 650 834 q 627 925 644 900 q 582 967 609 949 q 519 994 554 984 q 446 1009 484 1004 q 369 1013 408 1014 q 296 1007 330 1012 l 299 704 z "},"f":{"ha":832,"x_min":48,"x_max":781,"o":"m 151 696 q 160 835 153 778 q 178 932 167 892 q 202 999 189 972 q 231 1049 216 1027 q 306 1127 265 1098 q 386 1171 347 1156 q 458 1190 425 1185 q 509 1196 491 1195 q 583 1192 544 1198 q 659 1174 623 1186 q 724 1145 694 1162 q 767 1108 753 1128 q 780 1068 779 1092 q 775 1021 781 1045 q 756 975 768 997 q 727 939 743 953 q 690 922 710 924 q 651 933 671 919 q 580 967 614 959 q 518 971 545 975 q 425 896 458 963 q 398 810 407 860 q 385 696 389 760 l 679 696 q 705 679 693 696 q 723 636 716 662 q 731 582 730 611 q 726 527 732 552 q 706 484 720 501 q 668 467 692 467 l 387 467 l 392 16 q 374 -9 392 2 q 330 -27 357 -21 q 271 -35 302 -34 q 213 -30 240 -36 q 169 -9 186 -23 q 151 29 151 5 l 150 467 l 94 467 q 71 484 81 467 q 56 526 62 500 q 50 581 51 551 q 52 636 48 611 q 63 679 55 662 q 85 696 71 696 l 151 696 z "},"q":{"ha":941,"x_min":43,"x_max":893,"o":"m 439 2 q 297 29 360 3 q 186 99 233 55 q 106 201 138 143 q 59 326 75 260 q 43 461 43 391 q 59 596 43 530 q 106 720 75 661 q 186 822 138 778 q 299 891 235 865 q 444 917 363 917 q 561 902 507 917 q 659 861 614 887 l 659 885 q 676 907 659 899 q 718 918 693 915 q 773 918 743 920 q 827 910 802 916 q 869 894 852 904 q 887 871 886 884 q 888 823 888 858 q 889 735 888 787 q 889 618 889 684 q 889 481 889 553 q 890 333 890 409 q 890 182 890 256 q 891 39 890 108 q 891 -89 891 -31 q 892 -191 892 -147 q 892 -258 892 -235 q 875 -296 893 -282 q 830 -317 857 -311 q 772 -322 804 -323 q 714 -315 741 -321 q 669 -297 687 -309 q 652 -271 652 -286 l 654 53 q 556 15 609 28 q 439 2 503 1 m 470 687 q 382 671 420 690 q 318 621 344 653 q 279 548 292 589 q 264 462 265 506 q 274 376 262 418 q 310 301 286 334 q 370 248 334 268 q 457 228 407 228 q 539 245 504 228 q 600 290 575 262 q 639 354 625 317 q 656 429 653 390 l 656 478 q 641 553 654 517 q 604 619 627 590 q 547 666 581 648 q 470 687 513 684 z "},"'":{"ha":452,"x_min":80,"x_max":359,"o":"m 111 942 q 112 979 103 962 q 140 1010 121 996 q 182 1033 158 1024 q 231 1044 207 1042 q 274 1040 254 1046 q 302 1020 293 1035 q 346 918 332 967 q 357 820 359 869 q 337 723 355 772 q 286 622 319 674 q 246 586 270 597 q 196 577 222 576 q 145 588 170 578 q 105 613 121 597 q 85 649 90 629 q 94 690 80 669 q 130 756 118 727 q 146 809 142 786 q 146 851 150 833 q 137 885 143 869 q 123 914 131 900 q 111 942 115 928 z "},"+":{"ha":669,"x_min":69,"x_max":594,"o":"m 204 459 l 112 459 q 90 476 99 459 q 76 519 81 494 q 70 575 71 545 q 73 631 69 605 q 86 673 77 656 q 109 690 94 690 l 205 691 l 206 785 q 224 810 206 799 q 269 827 242 821 q 326 834 295 833 q 382 828 356 835 q 426 807 408 821 q 442 768 443 792 l 441 694 l 542 695 q 568 677 556 695 q 586 633 579 660 q 593 576 592 607 q 588 519 594 546 q 567 476 581 493 q 529 458 553 458 l 437 458 l 435 351 q 418 330 435 338 q 375 316 400 321 q 319 311 349 311 q 263 315 289 311 q 221 328 238 319 q 204 351 204 337 l 204 459 z "},".":{"ha":371,"x_min":56,"x_max":322,"o":"m 197 -6 q 119 11 150 -7 q 72 58 88 30 q 56 121 56 87 q 71 184 56 155 q 116 233 85 213 q 191 252 146 252 q 261 234 233 252 q 305 186 290 215 q 321 125 320 158 q 309 63 322 92 q 268 15 296 35 q 197 -6 240 -5 z "},"M":{"ha":1448,"x_min":49,"x_max":1399,"o":"m 423 1173 q 424 1171 423 1173 q 429 1160 425 1169 q 440 1131 433 1150 q 463 1076 448 1111 q 498 986 477 1040 q 552 854 520 932 q 626 671 583 776 q 724 429 668 566 q 823 673 780 568 q 897 857 865 779 q 950 989 928 935 q 986 1078 972 1043 q 1008 1132 1000 1113 q 1020 1161 1016 1152 q 1024 1172 1023 1170 q 1025 1173 1025 1173 q 1048 1193 1029 1185 q 1091 1204 1066 1200 q 1143 1207 1116 1208 q 1194 1203 1171 1207 q 1233 1191 1217 1199 q 1251 1171 1249 1183 q 1258 1123 1253 1158 q 1269 1037 1263 1088 q 1284 922 1276 986 q 1301 788 1293 859 q 1320 642 1310 717 q 1339 495 1330 568 q 1357 354 1349 422 q 1373 229 1366 286 q 1387 128 1381 172 q 1396 62 1392 85 q 1383 22 1399 38 q 1341 -4 1367 5 q 1284 -17 1316 -14 q 1226 -17 1253 -20 q 1179 -4 1198 -14 q 1158 19 1160 5 l 1080 683 q 1030 553 1055 619 q 979 424 1004 487 q 931 301 954 360 q 888 192 908 241 q 853 105 869 143 q 829 47 838 68 q 808 29 825 36 q 770 18 792 22 q 724 14 749 14 q 677 18 699 14 q 639 28 655 21 q 618 47 623 36 q 594 105 610 68 q 559 192 579 143 q 517 301 540 241 q 469 424 494 360 q 418 553 444 487 q 368 683 392 619 l 290 19 q 269 -4 288 5 q 222 -17 250 -14 q 163 -17 195 -20 q 106 -4 132 -14 q 65 22 81 5 q 52 62 49 38 q 61 128 56 85 q 75 229 67 172 q 91 354 82 286 q 109 495 99 422 q 128 642 118 568 q 146 788 138 717 q 164 922 155 859 q 179 1037 172 986 q 190 1123 185 1088 q 197 1171 195 1158 q 215 1191 199 1183 q 254 1203 231 1199 q 305 1207 277 1207 q 357 1204 332 1208 q 400 1193 382 1200 q 423 1173 418 1185 z "},"A":{"ha":1126,"x_min":48,"x_max":1082,"o":"m 766 252 l 363 255 l 269 -1 q 245 -19 264 -14 q 199 -22 225 -24 q 144 -11 173 -20 q 94 11 116 -3 q 60 43 72 25 q 56 83 48 62 q 72 130 60 96 q 101 214 83 164 q 142 326 119 263 q 189 457 164 388 q 240 600 214 526 q 292 744 267 673 q 342 881 318 814 q 386 1002 366 947 q 420 1100 406 1058 q 443 1164 435 1141 q 465 1186 448 1177 q 506 1198 482 1194 q 557 1202 530 1202 q 608 1197 584 1202 q 649 1185 631 1193 q 671 1166 667 1177 q 706 1081 684 1139 q 758 947 728 1024 q 820 781 787 871 q 887 600 853 691 q 952 422 920 509 q 1009 264 984 335 q 1052 144 1035 193 q 1075 79 1069 95 q 1070 39 1082 58 q 1037 7 1059 21 q 986 -15 1015 -7 q 931 -26 958 -24 q 886 -23 905 -28 q 861 -5 866 -18 l 766 252 m 448 485 l 682 484 l 565 802 l 448 485 z "},"S":{"ha":810,"x_min":33,"x_max":776,"o":"m 764 290 q 739 151 764 210 q 670 52 713 92 q 570 -7 627 13 q 454 -26 514 -26 q 338 -10 397 -26 q 226 36 280 6 q 125 109 172 66 q 43 204 78 151 q 38 238 33 218 q 56 277 43 257 q 89 315 70 297 q 128 343 109 332 q 164 356 147 355 q 190 346 181 358 q 242 286 213 313 q 302 239 271 259 q 366 207 333 218 q 429 193 398 195 q 475 198 456 191 q 505 220 494 206 q 520 252 515 234 q 524 290 524 271 q 517 329 523 310 q 502 364 511 349 q 448 431 482 397 q 371 497 413 464 q 284 565 330 531 q 198 635 239 600 q 124 709 157 671 q 72 786 90 746 q 45 922 41 853 q 81 1050 48 991 q 142 1132 106 1098 q 221 1185 178 1165 q 311 1212 263 1205 q 407 1214 358 1219 q 503 1192 455 1209 q 593 1147 550 1175 q 636 1115 612 1135 q 686 1073 661 1095 q 732 1028 711 1050 q 764 989 753 1006 q 770 950 776 970 q 748 912 764 930 q 707 878 731 893 q 659 854 683 863 q 615 845 635 846 q 587 854 595 844 q 497 938 545 906 q 406 981 450 969 q 330 984 363 993 q 283 947 296 976 q 281 897 273 924 q 313 841 290 870 q 369 781 336 812 q 442 717 403 749 q 522 652 481 685 q 600 586 563 618 q 668 520 637 553 q 717 456 699 487 q 751 376 739 417 q 764 290 764 336 z "},"r":{"ha":824,"x_min":56,"x_max":787,"o":"m 283 831 q 350 862 312 849 q 432 880 389 875 q 521 883 475 886 q 613 866 568 880 q 700 829 658 853 q 776 768 741 805 q 786 736 787 755 q 778 694 786 716 q 757 651 770 673 q 729 614 744 629 q 700 592 714 599 q 677 593 686 585 q 602 638 642 623 q 522 659 562 654 q 445 661 482 665 q 376 645 407 656 q 322 617 345 634 q 290 578 299 600 l 297 16 q 279 -9 297 2 q 235 -27 262 -21 q 176 -35 208 -34 q 118 -30 145 -36 q 74 -9 92 -23 q 56 29 56 5 q 57 103 57 56 q 57 209 57 149 q 57 335 57 268 q 57 472 57 403 q 57 607 57 541 q 57 729 57 673 q 56 827 56 785 q 56 889 56 869 q 73 911 56 902 q 116 926 90 921 q 171 932 141 931 q 226 930 201 933 q 269 918 252 926 q 286 895 286 909 l 283 831 z "},"@":{"ha":1296,"x_min":47,"x_max":1240,"o":"m 931 427 q 941 375 931 387 q 964 367 951 363 q 992 388 977 372 q 1016 420 1006 404 q 1046 492 1034 453 q 1062 574 1059 532 q 1060 661 1065 617 q 1036 747 1054 705 q 988 825 1019 788 q 912 889 958 861 q 805 935 867 917 q 663 955 743 952 q 542 940 598 958 q 440 890 486 922 q 358 812 395 857 q 297 714 322 767 q 257 603 271 661 q 239 486 242 545 q 262 260 231 354 q 352 107 293 167 q 492 18 410 47 q 669 -12 574 -10 q 751 -4 709 -13 q 834 23 793 5 q 913 69 875 41 q 981 132 951 96 q 1013 152 995 149 q 1050 150 1031 155 q 1085 134 1068 145 q 1114 107 1102 122 q 1129 78 1125 93 q 1126 50 1133 62 q 1040 -52 1093 -7 q 925 -125 987 -96 q 797 -170 863 -155 q 669 -184 730 -184 q 493 -159 576 -182 q 339 -95 410 -136 q 214 6 269 -53 q 121 137 159 64 q 65 294 83 210 q 52 473 47 379 q 75 640 56 559 q 126 792 93 720 q 210 923 160 863 q 329 1026 260 983 q 485 1093 397 1069 q 680 1117 572 1116 q 859 1093 777 1117 q 1007 1025 941 1068 q 1120 924 1072 983 q 1196 798 1168 865 q 1232 656 1224 730 q 1227 508 1240 583 q 1176 363 1213 434 q 1078 231 1139 292 q 1044 208 1066 218 q 995 192 1022 197 q 939 188 968 186 q 884 202 910 189 q 838 241 858 215 q 808 311 817 267 q 805 325 806 317 q 803 340 804 332 q 761 282 784 306 q 713 242 737 258 q 667 220 689 227 q 631 214 646 214 q 518 237 566 213 q 438 300 470 261 q 391 390 407 340 q 372 491 374 439 q 386 599 370 546 q 434 694 401 652 q 517 762 467 736 q 634 788 567 788 q 695 781 667 787 q 747 761 723 774 l 747 773 q 761 787 748 781 q 792 797 773 793 q 832 802 810 800 q 872 801 854 803 q 904 794 891 799 q 916 781 916 789 l 931 427 m 627 602 q 594 593 609 602 q 569 570 579 585 q 553 535 559 555 q 549 492 548 515 q 554 458 549 476 q 569 424 559 439 q 593 398 578 408 q 629 387 608 387 q 668 397 651 387 q 697 424 686 408 q 715 461 709 441 q 721 502 721 481 q 715 540 721 522 q 696 573 709 559 q 667 595 684 587 q 627 602 650 604 z "},"g":{"ha":949,"x_min":53,"x_max":896,"o":"m 889 872 q 892 760 891 817 q 895 645 894 702 q 896 534 895 589 q 896 430 896 479 q 895 339 896 381 q 894 265 895 297 q 887 122 892 193 q 871 -4 881 52 q 820 -140 856 -81 q 732 -238 785 -199 q 612 -297 679 -277 q 467 -314 545 -316 q 328 -301 388 -312 q 225 -273 269 -290 q 152 -238 181 -257 q 105 -201 123 -219 q 84 -157 87 -183 q 87 -105 81 -132 q 109 -55 94 -79 q 143 -16 124 -31 q 184 2 163 -1 q 226 -10 205 5 q 297 -57 255 -38 q 384 -84 338 -76 q 474 -88 429 -92 q 555 -65 519 -84 q 614 -13 591 -47 q 640 75 637 22 q 566 51 605 59 q 484 42 528 43 q 328 65 397 41 q 207 131 258 90 q 120 229 155 173 q 70 349 86 286 q 53 478 53 412 q 71 609 53 545 q 122 728 88 672 q 208 827 157 785 q 327 894 259 869 q 479 918 395 918 q 570 908 528 918 q 648 881 612 899 l 648 885 q 665 911 648 899 q 709 929 682 922 q 766 936 735 935 q 825 931 798 937 q 870 910 852 924 q 889 872 888 896 m 452 688 q 370 666 405 686 q 311 617 334 647 q 276 549 288 587 q 265 473 264 512 q 278 398 265 435 q 316 332 291 361 q 378 286 340 303 q 465 268 415 268 q 552 286 515 268 q 613 335 589 304 q 648 404 637 366 q 659 483 660 443 q 644 561 657 523 q 604 629 630 600 q 541 674 578 658 q 452 688 503 691 z "},"N":{"ha":1095,"x_min":41,"x_max":1048,"o":"m 1048 28 q 1035 2 1048 14 q 1000 -18 1021 -9 q 952 -31 979 -26 q 902 -33 926 -35 q 856 -24 877 -32 q 824 -2 835 -17 q 775 65 808 19 q 698 175 743 112 q 601 314 654 238 q 493 469 548 389 q 382 628 437 549 q 277 778 327 707 l 282 24 q 264 -2 282 9 q 220 -20 247 -14 q 162 -27 193 -26 q 103 -22 130 -28 q 59 -1 77 -16 q 41 37 41 13 l 45 1166 q 60 1184 45 1175 q 96 1199 74 1192 q 144 1210 117 1206 q 195 1214 170 1214 q 239 1208 220 1213 q 268 1190 259 1202 l 808 433 q 809 591 808 510 q 809 749 809 671 q 809 896 809 826 q 809 1023 809 966 q 810 1118 810 1079 q 811 1171 810 1156 q 828 1193 811 1183 q 871 1207 846 1202 q 926 1214 897 1213 q 981 1211 956 1215 q 1023 1199 1006 1208 q 1040 1177 1040 1190 l 1048 28 z "},"T":{"ha":783,"x_min":41,"x_max":751,"o":"m 699 1195 q 724 1177 713 1195 q 742 1133 736 1160 q 750 1076 749 1107 q 744 1019 751 1046 q 724 976 738 993 q 686 958 709 958 l 507 959 l 511 24 q 494 -2 511 9 q 449 -20 476 -14 q 391 -27 422 -26 q 333 -22 359 -28 q 288 -1 306 -16 q 271 37 270 13 q 271 90 271 52 q 271 179 271 127 q 271 297 271 232 q 272 432 271 361 q 272 576 272 503 q 272 718 272 649 q 272 849 272 787 q 272 960 272 911 l 83 962 q 61 979 71 962 q 47 1022 52 996 q 41 1078 42 1048 q 45 1133 41 1107 q 57 1176 49 1159 q 80 1193 66 1193 l 699 1195 z "},"B":{"ha":949,"x_min":58,"x_max":887,"o":"m 284 -21 q 179 -15 222 -20 q 109 2 136 -9 q 70 34 81 14 q 58 85 58 54 l 58 942 q 62 1059 58 1010 q 78 1142 66 1109 q 111 1192 90 1175 q 167 1213 132 1209 q 220 1218 193 1217 q 273 1221 246 1220 q 425 1222 351 1225 q 564 1204 498 1218 q 685 1163 630 1190 q 779 1096 739 1137 q 839 997 818 1055 q 857 862 859 939 q 820 717 854 777 q 730 617 785 657 q 791 570 762 596 q 841 513 820 545 q 875 443 863 481 q 886 360 887 405 q 863 232 885 287 q 806 136 842 176 q 725 67 771 95 q 629 22 679 40 q 527 -4 578 5 q 429 -17 475 -14 q 345 -21 383 -21 q 284 -21 307 -22 m 292 202 q 340 198 307 199 q 413 201 373 197 q 496 214 454 204 q 572 243 538 224 q 626 291 606 262 q 643 365 646 321 q 622 426 640 400 q 575 468 604 451 q 511 494 547 485 q 437 507 475 504 q 361 509 399 511 q 292 502 323 507 l 292 202 m 292 722 q 355 719 319 718 q 431 723 392 719 q 509 738 471 728 q 576 765 547 748 q 623 807 606 783 q 638 867 640 832 q 619 925 636 900 q 575 967 602 949 q 513 994 548 984 q 441 1009 479 1004 q 365 1013 403 1014 q 292 1007 326 1012 l 292 722 z "},"s":{"ha":768,"x_min":39,"x_max":726,"o":"m 726 216 q 703 107 726 153 q 642 32 680 62 q 553 -13 604 2 q 447 -30 503 -28 q 332 -20 391 -31 q 221 13 274 -9 q 122 67 168 35 q 47 140 77 99 q 42 170 39 151 q 57 211 46 189 q 85 252 68 232 q 118 287 101 273 q 151 307 136 301 q 176 302 166 312 q 228 259 199 279 q 288 224 258 239 q 349 202 319 210 q 404 196 379 195 q 447 209 429 197 q 471 244 465 220 q 456 287 477 265 q 397 334 435 309 q 313 387 360 359 q 219 447 265 415 q 132 515 172 479 q 68 595 91 552 q 44 680 45 636 q 57 763 42 723 q 102 839 73 804 q 172 899 132 873 q 260 936 212 924 q 361 943 309 947 q 460 924 410 938 q 555 889 510 911 q 638 838 600 867 q 700 771 675 808 q 706 737 709 756 q 691 697 703 718 q 663 659 680 677 q 628 627 646 640 q 594 610 610 614 q 568 612 578 605 q 495 663 534 639 q 420 701 456 688 q 355 714 384 715 q 314 691 326 714 q 312 666 307 678 q 327 641 316 653 q 354 618 338 629 q 388 597 370 607 q 421 580 405 588 q 448 568 437 572 q 555 511 505 545 q 644 432 606 477 q 704 333 682 387 q 726 216 726 279 z "},"U":{"ha":928,"x_min":47,"x_max":877,"o":"m 462 -14 q 334 5 391 -14 q 233 55 277 23 q 157 132 189 87 q 103 229 125 176 q 71 340 82 281 q 58 460 60 399 q 55 561 57 504 q 52 680 54 617 q 50 808 51 743 q 48 935 49 873 q 48 1048 47 996 q 50 1138 48 1101 q 68 1171 51 1158 q 111 1190 85 1183 q 165 1196 136 1196 q 219 1189 194 1196 q 259 1170 243 1182 q 275 1138 275 1157 q 272 1064 273 1107 q 271 972 271 1021 q 270 868 271 922 q 270 761 270 814 q 271 657 271 707 q 272 563 271 606 q 273 486 273 519 q 275 434 274 453 q 296 336 279 378 q 340 264 314 293 q 398 220 366 235 q 462 205 430 205 q 526 220 494 205 q 585 264 558 235 q 629 336 611 293 q 650 434 646 378 q 652 486 651 453 q 653 563 652 519 q 654 657 654 606 q 654 761 654 707 q 654 868 654 814 q 653 972 654 922 q 652 1064 653 1021 q 650 1138 651 1107 q 665 1170 649 1157 q 706 1189 681 1182 q 760 1196 730 1196 q 814 1190 789 1196 q 856 1171 839 1183 q 874 1138 873 1158 q 876 1048 876 1101 q 877 935 877 996 q 875 808 876 873 q 873 680 874 743 q 870 561 871 617 q 867 460 868 504 q 854 340 865 399 q 822 228 843 281 q 768 131 800 176 q 692 55 736 87 q 590 4 648 22 q 462 -14 533 -14 z "},"C":{"ha":938,"x_min":44,"x_max":901,"o":"m 709 292 q 744 309 722 309 q 788 300 765 310 q 834 272 812 290 q 873 233 857 254 q 895 193 889 213 q 892 159 901 174 q 825 87 865 121 q 737 27 785 53 q 634 -15 688 1 q 524 -31 579 -31 q 371 -10 439 -33 q 249 55 302 13 q 156 155 195 96 q 93 283 117 213 q 56 434 68 354 q 45 600 44 515 q 64 774 47 692 q 112 924 81 855 q 186 1046 142 992 q 285 1137 231 1099 q 403 1194 339 1174 q 539 1213 467 1213 q 653 1199 598 1213 q 753 1159 707 1185 q 833 1093 799 1132 q 884 1003 867 1054 q 879 969 890 987 q 848 936 868 951 q 802 909 828 921 q 752 892 777 897 q 708 889 728 886 q 681 905 688 892 q 618 967 659 945 q 513 983 577 988 q 421 953 466 980 q 342 878 377 926 q 284 761 307 829 q 258 607 262 693 q 272 424 253 502 q 327 294 292 346 q 409 217 362 243 q 505 191 455 191 q 563 200 532 191 q 621 224 593 210 q 672 257 648 239 q 709 292 695 275 z "},"h":{"ha":857,"x_min":41,"x_max":810,"o":"m 277 809 q 298 819 288 814 q 321 829 309 824 q 519 876 433 874 q 664 835 604 878 q 759 701 724 791 q 802 469 793 610 q 810 265 809 372 q 805 30 810 158 q 787 -3 804 10 q 745 -22 770 -16 q 690 -28 720 -28 q 636 -21 661 -28 q 596 -2 612 -14 q 581 30 580 11 q 589 256 586 156 q 588 433 593 357 q 572 545 584 498 q 535 615 560 591 q 470 642 510 640 q 368 620 429 644 q 279 571 317 600 l 282 24 q 264 -2 282 9 q 220 -20 247 -14 q 161 -27 193 -26 q 103 -22 130 -28 q 59 -1 77 -16 q 41 37 41 13 q 42 104 41 60 q 42 206 42 148 q 43 334 43 264 q 43 477 43 403 q 43 628 43 552 q 43 777 43 705 q 44 914 43 849 q 44 1031 44 979 q 44 1119 44 1083 q 45 1168 45 1154 q 63 1190 46 1181 q 105 1205 80 1200 q 160 1211 131 1210 q 215 1208 190 1212 q 258 1196 241 1205 q 275 1174 275 1187 l 277 809 z "},"t":{"ha":680,"x_min":39,"x_max":644,"o":"m 220 891 q 220 985 220 940 q 221 1068 220 1031 q 221 1131 221 1105 q 222 1166 222 1156 q 239 1188 222 1179 q 282 1203 256 1198 q 337 1210 307 1208 q 392 1207 366 1211 q 434 1195 417 1204 q 451 1173 451 1186 l 452 892 l 591 892 q 617 875 606 892 q 635 831 629 858 q 643 774 642 805 q 637 717 644 743 q 616 673 631 690 q 578 656 602 656 l 454 656 l 458 24 q 441 -2 458 9 q 396 -20 423 -14 q 338 -27 369 -26 q 280 -22 307 -28 q 235 -1 253 -16 q 218 37 217 13 q 218 93 218 57 q 218 177 218 130 q 219 281 218 224 q 219 400 219 338 q 219 527 219 462 q 219 658 219 593 l 82 659 q 60 676 69 659 q 46 719 51 694 q 40 775 41 745 q 43 830 39 805 q 56 873 47 856 q 79 890 64 890 l 220 891 z "},"D":{"ha":952,"x_min":53,"x_max":901,"o":"m 899 608 q 884 447 901 526 q 831 299 867 368 q 741 171 795 229 q 614 72 686 113 q 451 7 541 30 q 254 -14 361 -15 q 171 -7 208 -13 q 108 11 134 -2 q 67 47 81 24 q 53 105 53 70 q 53 220 53 155 q 53 358 53 285 q 54 508 54 431 q 55 662 54 586 q 55 809 55 738 q 56 941 56 881 q 57 1047 56 1002 q 57 1118 57 1093 q 68 1148 57 1134 q 104 1173 79 1162 q 166 1188 128 1183 q 258 1191 205 1194 q 422 1168 343 1186 q 572 1118 502 1150 q 701 1038 642 1085 q 803 927 760 991 q 871 785 846 864 q 899 608 896 705 m 688 559 q 668 712 690 642 q 598 833 647 781 q 472 917 550 885 q 281 957 393 949 l 286 191 q 450 228 376 197 q 576 309 524 259 q 658 422 629 358 q 688 559 687 486 z "},"i":{"ha":353,"x_min":42,"x_max":309,"o":"m 183 916 q 105 933 136 914 q 59 980 75 951 q 42 1042 43 1008 q 57 1105 42 1076 q 102 1154 72 1135 q 178 1174 132 1174 q 248 1155 219 1174 q 291 1108 276 1137 q 308 1047 307 1080 q 295 985 309 1014 q 254 937 282 956 q 183 916 227 917 m 294 24 q 276 -2 294 9 q 231 -20 258 -14 q 173 -27 204 -26 q 115 -22 142 -28 q 70 -1 88 -16 q 53 37 52 13 l 62 836 q 80 859 62 849 q 122 873 97 868 q 177 879 148 878 q 232 877 207 880 q 275 865 258 873 q 292 842 292 856 l 294 24 z "},"V":{"ha":1122,"x_min":54,"x_max":1087,"o":"m 571 385 l 867 1175 q 891 1193 871 1188 q 937 1196 911 1198 q 991 1186 963 1194 q 1042 1163 1020 1177 q 1076 1131 1064 1149 q 1080 1091 1087 1113 q 1058 1027 1075 1076 q 1016 910 1041 979 q 959 755 990 840 q 896 582 928 671 q 831 405 863 492 q 771 241 799 317 q 723 109 744 166 q 693 24 703 52 q 671 2 688 10 q 630 -11 654 -7 q 579 -15 606 -15 q 528 -10 552 -14 q 487 3 505 -5 q 465 22 469 11 q 430 106 452 49 q 378 238 408 163 q 316 402 349 314 q 249 581 283 491 q 184 756 216 671 q 126 912 152 842 q 83 1031 101 982 q 61 1095 66 1080 q 65 1135 54 1117 q 99 1167 77 1154 q 150 1190 121 1181 q 204 1200 178 1198 q 250 1197 231 1202 q 275 1179 270 1192 l 571 385 z "},"u":{"ha":854,"x_min":43,"x_max":812,"o":"m 577 58 q 555 47 566 52 q 533 38 545 43 q 335 -9 420 -7 q 190 32 250 -12 q 95 166 130 75 q 52 398 61 257 q 44 612 45 496 q 49 858 43 729 q 67 890 50 878 q 109 909 84 903 q 163 916 134 916 q 217 909 193 916 q 258 889 242 902 q 273 858 274 877 q 268 735 271 795 q 264 621 266 675 q 263 519 263 566 q 266 434 264 471 q 282 322 270 368 q 319 251 294 276 q 384 225 344 227 q 486 247 425 223 q 575 296 537 267 l 572 864 q 589 890 572 878 q 634 908 607 901 q 692 915 661 914 q 750 910 724 916 q 795 889 777 903 q 812 851 812 875 q 812 774 812 821 q 811 668 812 726 q 811 543 811 609 q 811 411 811 477 q 810 283 810 345 q 810 168 810 220 q 809 78 810 116 q 808 24 809 40 q 791 1 808 11 q 748 -13 774 -8 q 693 -19 723 -18 q 638 -17 664 -20 q 596 -5 613 -14 q 579 18 579 3 l 577 58 z "},"O":{"ha":1164,"x_min":51,"x_max":1116,"o":"m 606 -41 q 405 -8 494 -43 q 249 86 315 26 q 138 227 182 146 q 73 398 94 307 q 51 585 51 489 q 74 771 52 680 q 140 943 96 862 q 251 1084 184 1023 q 404 1180 317 1145 q 600 1215 491 1215 q 786 1179 703 1215 q 931 1084 869 1144 q 1034 944 993 1024 q 1096 773 1075 863 q 1116 588 1116 684 q 1096 403 1116 493 q 1034 232 1075 313 q 932 92 993 152 q 789 -5 871 31 q 606 -41 707 -41 m 570 972 q 439 931 495 967 q 346 840 383 895 q 290 715 309 785 q 273 574 272 646 q 293 434 273 503 q 353 313 313 366 q 451 227 392 259 q 589 193 510 194 q 692 215 646 193 q 773 275 739 237 q 832 365 808 313 q 868 473 856 416 q 880 590 880 530 q 868 707 880 650 q 831 813 856 764 q 770 900 807 863 q 683 956 732 936 q 570 972 633 975 z "},"j":{"ha":372,"x_min":-257,"x_max":317,"o":"m 309 808 q 316 516 315 642 q 314 293 317 389 q 295 58 311 161 q 242 -119 279 -45 q 186 -198 219 -165 q 115 -252 154 -231 q 33 -282 76 -273 q -55 -293 -11 -292 q -142 -286 -99 -294 q -224 -264 -186 -279 q -250 -237 -242 -257 q -256 -191 -257 -216 q -246 -137 -255 -165 q -222 -90 -237 -110 q -185 -60 -207 -69 q -138 -60 -164 -51 q -70 -73 -102 -75 q -14 -55 -39 -71 q 28 -12 10 -40 q 55 56 45 17 q 71 163 66 102 q 77 296 75 224 q 78 514 80 386 q 68 821 77 643 q 85 847 68 836 q 129 865 102 859 q 186 872 155 871 q 245 867 218 873 q 290 846 272 861 q 309 808 309 832 m 191 917 q 113 934 144 916 q 66 981 82 953 q 50 1044 50 1010 q 64 1107 50 1078 q 110 1156 79 1136 q 185 1175 140 1175 q 255 1157 227 1175 q 299 1109 283 1138 q 315 1048 314 1081 q 303 986 316 1015 q 262 938 290 958 q 191 917 234 918 z "},"E":{"ha":821,"x_min":40,"x_max":776,"o":"m 279 701 l 676 702 q 702 684 690 702 q 720 639 713 666 q 727 581 726 612 q 722 523 728 550 q 701 478 715 496 q 663 461 687 460 l 280 465 l 281 217 l 724 217 q 749 200 738 217 q 767 156 761 182 q 775 100 774 130 q 769 44 776 70 q 749 1 763 18 q 711 -16 734 -16 q 609 -15 666 -15 q 488 -15 551 -15 q 360 -15 425 -15 q 235 -16 295 -16 q 149 -11 183 -16 q 93 5 114 -5 q 61 34 71 16 q 46 78 50 52 q 42 138 42 104 q 42 216 42 172 l 40 980 q 40 1058 40 1024 q 44 1118 40 1093 q 59 1162 48 1144 q 91 1191 69 1180 q 146 1207 112 1202 q 233 1212 180 1212 q 358 1212 293 1212 q 486 1211 423 1211 q 607 1211 549 1211 q 709 1212 664 1211 q 747 1195 732 1212 q 767 1151 761 1177 q 773 1094 774 1125 q 765 1037 772 1063 q 747 993 759 1010 q 722 975 736 975 l 279 975 l 279 701 z "},"v":{"ha":1037,"x_min":37,"x_max":1000,"o":"m 520 308 l 788 863 q 813 877 794 876 q 857 873 832 879 q 908 855 882 867 q 956 829 935 843 q 988 801 977 815 q 994 774 1000 786 q 970 725 987 760 q 932 644 954 691 q 883 540 910 597 q 828 424 857 484 q 771 305 800 364 q 718 193 743 245 q 672 98 692 140 q 637 28 651 55 q 615 13 633 19 q 574 3 597 6 q 524 1 551 1 q 474 5 497 1 q 434 16 451 9 q 413 33 417 22 q 382 103 402 60 q 336 199 361 146 q 280 312 310 252 q 221 430 251 371 q 162 546 191 490 q 109 649 133 602 q 67 730 85 696 q 43 779 50 764 q 48 805 37 790 q 81 833 60 819 q 128 859 102 847 q 179 877 155 871 q 223 881 204 883 q 249 867 243 880 l 520 308 z "},"[":{"ha":496,"x_min":40,"x_max":450,"o":"m 281 112 l 397 112 q 422 95 411 112 q 440 52 434 77 q 448 -4 447 26 q 443 -60 449 -35 q 422 -103 436 -86 q 384 -121 408 -121 l 235 -121 q 149 -116 183 -121 q 93 -100 114 -111 q 61 -71 71 -89 q 46 -27 50 -53 q 42 33 42 -1 q 42 111 42 67 l 40 1056 q 40 1134 40 1100 q 44 1194 40 1168 q 59 1238 48 1220 q 91 1267 69 1256 q 146 1283 112 1278 q 233 1288 180 1288 l 385 1288 q 422 1271 408 1288 q 443 1227 437 1253 q 449 1170 450 1200 q 441 1113 448 1139 q 423 1069 435 1086 q 397 1051 412 1051 l 279 1051 l 281 112 z "},"F":{"ha":827,"x_min":52,"x_max":786,"o":"m 292 701 l 652 702 q 678 684 667 702 q 696 639 690 666 q 704 581 703 612 q 698 523 705 550 q 677 478 692 496 q 640 461 663 460 l 292 465 l 293 25 q 275 2 293 12 q 231 -15 258 -9 q 174 -24 205 -22 q 116 -22 142 -26 q 72 -6 90 -18 q 54 24 54 5 l 52 980 q 52 1058 52 1024 q 56 1118 52 1093 q 71 1162 60 1144 q 103 1191 81 1180 q 158 1207 124 1202 q 245 1212 193 1212 q 370 1212 305 1212 q 498 1211 435 1211 q 619 1211 562 1211 q 721 1212 676 1211 q 759 1195 745 1212 q 780 1151 773 1177 q 785 1094 786 1125 q 778 1037 784 1063 q 760 993 771 1010 q 734 975 748 975 l 291 975 l 292 701 z "},"$":{"ha":829,"x_min":33,"x_max":776,"o":"m 610 1135 q 652 1102 629 1121 q 696 1063 675 1083 q 735 1023 718 1042 q 764 989 753 1004 q 770 950 776 970 q 748 912 764 930 q 707 878 731 893 q 659 854 683 863 q 615 845 635 846 q 587 854 595 844 q 576 868 582 861 q 564 880 570 874 l 524 650 q 582 601 553 626 q 636 552 611 576 q 683 503 662 528 q 717 456 703 479 q 751 376 739 417 q 764 290 764 336 q 739 151 764 210 q 670 52 713 92 q 570 -7 627 13 q 454 -26 514 -26 q 429 -25 441 -26 q 404 -23 416 -24 l 395 -73 q 374 -96 393 -87 q 327 -108 355 -105 q 269 -107 300 -111 q 212 -95 237 -104 q 170 -68 186 -85 q 158 -28 155 -52 l 176 67 q 103 129 137 95 q 43 204 69 163 q 38 238 33 218 q 56 277 43 257 q 89 315 70 297 q 128 343 109 332 q 164 356 147 355 q 190 346 181 358 q 221 307 205 324 l 271 576 q 209 626 239 600 q 153 677 179 651 q 106 730 127 703 q 72 786 85 758 q 45 922 41 853 q 81 1050 48 991 q 139 1129 105 1096 q 214 1182 174 1162 q 299 1211 254 1202 q 391 1215 345 1219 l 400 1263 q 420 1282 402 1276 q 464 1291 438 1289 q 520 1290 490 1293 q 574 1280 549 1287 q 614 1262 599 1273 q 628 1238 630 1251 l 610 1135 m 502 364 q 491 380 496 372 q 478 397 486 389 l 441 192 q 497 211 478 193 q 521 257 515 230 q 520 313 526 283 q 502 364 515 342 m 283 947 q 283 893 272 922 q 319 833 294 865 l 348 987 q 308 975 325 985 q 283 947 292 965 z "},"!":{"ha":374,"x_min":54,"x_max":320,"o":"m 179 243 q 257 226 226 245 q 303 179 288 208 q 320 117 319 151 q 305 54 320 83 q 260 5 290 24 q 184 -15 230 -15 q 115 4 143 -15 q 71 51 86 22 q 55 112 56 79 q 67 174 54 145 q 108 222 80 203 q 179 243 136 242 m 66 1149 q 84 1175 66 1164 q 129 1193 102 1187 q 187 1201 156 1200 q 245 1195 218 1202 q 290 1175 272 1189 q 307 1137 307 1160 l 300 323 q 282 301 300 310 q 240 286 265 292 q 185 280 214 281 q 130 282 155 279 q 87 294 104 286 q 71 317 71 302 l 66 1149 z "},":":{"ha":429,"x_min":80,"x_max":348,"o":"m 221 606 q 143 623 174 604 q 97 670 113 642 q 80 732 81 699 q 95 795 80 766 q 140 844 110 825 q 216 864 170 864 q 286 845 257 864 q 329 798 314 827 q 346 737 345 770 q 333 675 347 704 q 292 627 320 646 q 221 606 264 607 m 222 227 q 145 244 176 225 q 98 291 114 262 q 82 353 82 319 q 96 416 81 387 q 141 465 111 446 q 217 485 172 485 q 287 466 258 485 q 331 419 315 448 q 347 358 346 391 q 335 296 348 325 q 294 248 321 267 q 222 227 266 228 z "},"<":{"ha":787,"x_min":90,"x_max":710,"o":"m 397 549 l 683 391 q 697 366 695 385 q 692 322 699 347 q 674 270 686 297 q 649 223 663 243 q 620 191 635 202 q 594 184 606 179 l 117 431 q 102 453 108 436 q 93 494 96 471 q 90 543 90 517 q 95 593 91 570 q 105 633 98 616 q 121 656 112 650 l 606 907 q 632 901 617 912 q 660 869 646 890 q 686 821 674 848 q 704 770 698 795 q 708 726 710 745 q 694 701 707 707 l 397 549 z "},">":{"ha":772,"x_min":83,"x_max":704,"o":"m 99 701 q 85 726 87 707 q 90 770 83 745 q 107 821 96 795 q 133 869 119 848 q 162 901 147 890 q 188 907 176 912 l 672 656 q 688 634 682 651 q 699 593 695 616 q 703 543 703 570 q 701 494 704 517 q 692 453 698 471 q 676 431 686 436 l 199 184 q 173 191 188 179 q 145 223 159 202 q 119 270 131 243 q 101 322 107 297 q 97 366 95 347 q 111 391 98 385 l 397 549 l 99 701 z "},"›":{"ha":772,"x_min":102,"x_max":722,"o":"m 117 588 q 103 613 105 594 q 108 657 102 633 q 126 709 114 682 q 152 756 138 735 q 180 788 165 777 q 206 794 195 800 l 690 543 q 707 521 700 538 q 717 480 713 504 q 722 431 721 457 q 719 381 722 404 q 710 341 716 358 q 694 319 704 323 l 218 72 q 192 78 206 66 q 163 110 177 90 q 137 158 149 131 q 119 209 125 184 q 115 253 113 234 q 129 278 117 272 l 415 436 l 117 588 z "},"»":{"ha":1380,"x_min":102,"x_max":1302,"o":"m 117 588 q 103 613 105 594 q 108 657 102 633 q 126 709 114 682 q 152 756 138 735 q 180 788 165 777 q 206 794 195 800 l 690 543 q 707 521 700 538 q 717 480 713 504 q 722 431 721 457 q 719 381 722 404 q 710 341 716 358 q 694 319 704 323 l 218 72 q 192 78 206 66 q 163 110 177 90 q 137 158 149 131 q 119 209 125 184 q 115 253 113 234 q 129 278 117 272 l 415 436 l 117 588 m 697 597 q 683 622 685 603 q 688 666 682 642 q 706 718 694 691 q 731 765 718 744 q 760 797 745 786 q 786 803 774 808 l 1270 552 q 1286 530 1280 547 q 1297 489 1293 513 q 1301 439 1301 466 q 1299 390 1302 413 q 1290 350 1296 367 q 1274 328 1284 332 l 798 81 q 771 87 786 75 q 743 119 757 98 q 717 166 729 140 q 699 218 705 193 q 695 262 693 243 q 709 287 696 281 l 995 445 l 697 597 z "},"«":{"ha":1400,"x_min":90,"x_max":1297,"o":"m 397 549 l 683 391 q 697 366 695 385 q 692 322 699 347 q 674 270 686 297 q 649 223 663 243 q 620 191 635 202 q 594 184 606 179 l 117 431 q 102 453 108 436 q 93 494 96 471 q 90 543 90 517 q 95 593 91 570 q 105 633 98 616 q 121 656 112 650 l 606 907 q 632 901 617 912 q 660 869 646 890 q 686 821 674 848 q 704 770 698 795 q 708 726 710 745 q 694 701 707 707 l 397 549 m 983 551 l 1270 393 q 1283 368 1282 387 q 1279 325 1285 349 q 1261 273 1273 300 q 1235 225 1249 246 q 1207 193 1221 205 q 1181 187 1192 182 l 704 434 q 688 456 694 439 q 679 496 682 473 q 677 546 676 519 q 681 596 677 572 q 692 636 685 619 q 708 659 699 653 l 1192 909 q 1218 904 1204 915 q 1247 871 1233 892 q 1273 824 1261 850 q 1291 773 1284 798 q 1295 729 1297 748 q 1281 703 1293 709 l 983 551 z "},"‹":{"ha":757,"x_min":79,"x_max":699,"o":"m 386 436 l 672 278 q 686 253 684 272 q 682 209 688 234 q 664 158 675 184 q 638 110 652 131 q 609 78 624 90 q 583 72 595 66 l 106 319 q 91 341 97 323 q 82 381 85 358 q 79 431 79 404 q 84 480 80 457 q 94 521 87 504 q 111 543 101 538 l 595 794 q 621 788 606 800 q 649 756 635 777 q 675 709 663 735 q 693 657 687 682 q 697 613 699 633 q 684 588 696 594 l 386 436 z "},"(":{"ha":512,"x_min":45,"x_max":478,"o":"m 459 -40 q 472 -76 474 -54 q 456 -121 469 -98 q 421 -164 443 -144 q 376 -195 400 -184 q 328 -203 352 -205 q 287 -176 304 -200 q 234 -103 262 -142 q 179 -14 206 -63 q 129 95 153 35 q 86 230 104 155 q 57 396 68 305 q 45 599 46 488 q 57 763 45 672 q 97 952 69 854 q 172 1151 125 1050 q 288 1343 219 1252 q 323 1365 301 1360 q 370 1364 346 1369 q 418 1345 395 1358 q 456 1314 441 1332 q 475 1276 471 1297 q 463 1235 478 1255 q 350 1050 391 1141 q 290 880 310 960 q 265 729 271 799 q 258 607 260 660 q 263 452 254 526 q 288 311 272 377 q 327 187 304 244 q 372 85 349 130 q 418 8 395 41 q 459 -40 441 -24 z "},")":{"ha":534,"x_min":47,"x_max":479,"o":"m 66 -40 q 106 8 83 -24 q 153 85 130 41 q 198 187 176 130 q 237 311 220 244 q 262 452 253 377 q 267 607 271 526 q 260 729 265 660 q 235 880 254 799 q 175 1050 215 960 q 62 1235 134 1141 q 50 1276 47 1255 q 68 1314 54 1297 q 107 1345 83 1332 q 155 1364 130 1358 q 201 1365 179 1369 q 237 1343 224 1360 q 353 1151 306 1252 q 428 952 399 1050 q 468 763 456 854 q 479 599 479 672 q 468 396 479 488 q 439 230 457 305 q 396 95 420 155 q 346 -14 372 35 q 291 -103 319 -63 q 238 -176 263 -142 q 197 -202 220 -199 q 149 -195 173 -205 q 103 -164 125 -184 q 69 -121 82 -144 q 53 -76 56 -98 q 66 -40 51 -54 z "},"\"":{"ha":873,"x_min":142,"x_max":715,"o":"m 173 942 q 175 979 165 962 q 202 1010 184 996 q 245 1033 220 1024 q 293 1044 269 1042 q 336 1040 317 1046 q 364 1020 355 1035 q 408 918 395 967 q 420 820 422 869 q 400 723 418 772 q 349 622 382 674 q 308 586 332 597 q 258 577 284 576 q 208 588 232 578 q 168 613 184 597 q 147 649 152 629 q 156 690 142 669 q 193 756 180 727 q 209 809 205 786 q 209 851 212 833 q 199 885 205 869 q 185 914 193 900 q 173 942 178 928 m 467 945 q 468 982 459 964 q 496 1013 477 999 q 538 1036 514 1027 q 587 1046 563 1044 q 630 1043 610 1048 q 658 1023 649 1038 q 702 921 688 970 q 713 823 715 871 q 693 726 711 774 q 642 625 675 677 q 602 589 626 600 q 552 579 578 578 q 502 590 526 581 q 461 616 477 600 q 441 652 446 632 q 450 692 436 672 q 486 759 474 730 q 502 812 498 789 q 503 854 506 836 q 493 887 499 872 q 479 917 487 903 q 467 945 471 930 z "},",":{"ha":391,"x_min":54,"x_max":334,"o":"m 85 180 q 86 217 77 200 q 114 249 96 235 q 157 271 132 262 q 205 282 181 280 q 248 279 229 284 q 276 258 267 273 q 320 156 307 205 q 332 59 334 107 q 312 -39 330 10 q 260 -140 294 -87 q 220 -175 244 -165 q 170 -185 196 -186 q 120 -174 144 -184 q 80 -148 96 -164 q 59 -112 64 -132 q 68 -72 54 -92 q 104 -5 92 -35 q 120 48 117 24 q 121 90 124 71 q 111 123 117 108 q 97 152 105 138 q 85 180 90 166 z "},";":{"ha":448,"x_min":96,"x_max":387,"o":"m 138 180 q 139 217 130 200 q 167 249 149 235 q 210 271 185 262 q 258 282 234 280 q 301 279 281 284 q 329 258 320 273 q 373 156 359 205 q 385 59 387 107 q 365 -39 382 10 q 313 -140 347 -87 q 273 -175 297 -165 q 223 -185 249 -186 q 173 -174 197 -184 q 133 -148 149 -164 q 112 -112 117 -132 q 121 -72 107 -92 q 157 -5 145 -35 q 173 48 170 24 q 174 90 177 71 q 164 123 170 108 q 150 152 158 138 q 138 180 142 166 m 237 346 q 159 363 190 345 q 112 410 128 382 q 96 473 96 439 q 111 536 96 507 q 156 585 125 565 q 231 604 186 604 q 301 586 273 604 q 345 538 330 567 q 361 477 360 510 q 349 415 362 444 q 308 367 336 387 q 237 346 280 347 z "},"”":{"ha":701,"x_min":66,"x_max":639,"o":"m 96 942 q 98 979 89 962 q 125 1010 107 996 q 168 1033 144 1024 q 216 1044 193 1042 q 259 1040 240 1046 q 288 1020 279 1035 q 332 918 318 967 q 343 820 345 869 q 323 723 341 772 q 272 622 305 674 q 232 586 256 597 q 181 577 208 576 q 131 588 155 578 q 91 613 107 597 q 71 649 75 629 q 79 690 66 669 q 116 756 104 727 q 132 809 128 786 q 132 851 136 833 q 123 885 129 869 q 109 914 117 900 q 96 942 101 928 m 390 945 q 392 982 382 964 q 419 1013 401 999 q 462 1036 437 1027 q 510 1046 486 1044 q 553 1043 534 1048 q 581 1023 572 1038 q 625 921 612 970 q 637 823 639 871 q 617 726 635 774 q 566 625 599 677 q 525 589 549 600 q 475 579 501 578 q 425 590 449 581 q 385 616 401 600 q 364 652 369 632 q 373 692 359 672 q 410 759 397 730 q 426 812 422 789 q 426 854 429 836 q 416 887 422 872 q 402 917 410 903 q 390 945 395 930 z "},"“":{"ha":686,"x_min":54,"x_max":627,"o":"m 597 662 q 595 625 604 642 q 568 594 586 608 q 525 571 549 580 q 477 560 500 562 q 433 564 453 558 q 406 584 414 569 q 361 686 375 637 q 350 784 348 735 q 370 881 352 832 q 421 982 388 930 q 461 1018 437 1007 q 512 1027 486 1028 q 562 1016 538 1026 q 602 990 586 1006 q 623 955 618 975 q 614 914 627 935 q 577 847 589 876 q 561 794 565 818 q 561 753 557 771 q 570 719 564 734 q 584 690 576 704 q 597 662 591 676 m 303 659 q 301 622 311 640 q 274 591 292 605 q 231 568 256 577 q 183 557 207 559 q 140 561 159 555 q 112 581 120 566 q 68 683 81 634 q 56 781 54 732 q 76 878 58 829 q 127 979 94 927 q 168 1015 144 1004 q 218 1024 192 1025 q 268 1014 244 1023 q 308 988 292 1004 q 329 952 324 972 q 320 911 334 932 q 283 844 296 873 q 268 792 271 815 q 267 750 264 768 q 277 716 271 732 q 290 687 283 701 q 303 659 298 673 z "},"’":{"ha":452,"x_min":80,"x_max":359,"o":"m 111 942 q 112 979 103 962 q 140 1010 121 996 q 182 1033 158 1024 q 231 1044 207 1042 q 274 1040 254 1046 q 302 1020 293 1035 q 346 918 332 967 q 357 820 359 869 q 337 723 355 772 q 286 622 319 674 q 246 586 270 597 q 196 577 222 576 q 145 588 170 578 q 105 613 121 597 q 85 649 90 629 q 94 690 80 669 q 130 756 118 727 q 146 809 142 786 q 146 851 150 833 q 137 885 143 869 q 123 914 131 900 q 111 942 115 928 z "},"‘":{"ha":452,"x_min":63,"x_max":342,"o":"m 312 942 q 299 914 307 928 q 286 885 292 900 q 276 851 279 869 q 276 809 273 833 q 292 756 280 786 q 329 690 304 727 q 338 649 342 669 q 317 613 333 629 q 277 588 301 597 q 227 577 253 578 q 177 586 201 576 q 136 622 153 597 q 85 723 103 674 q 65 820 67 772 q 77 918 63 869 q 121 1020 90 967 q 149 1040 129 1035 q 192 1044 168 1046 q 240 1033 216 1042 q 283 1010 264 1024 q 310 979 301 996 q 312 942 319 962 z "},"‚":{"ha":452,"x_min":80,"x_max":359,"o":"m 111 216 q 112 253 103 236 q 140 284 121 271 q 182 307 158 298 q 231 318 207 316 q 274 315 254 320 q 302 294 293 309 q 346 192 332 241 q 357 95 359 143 q 337 -3 355 46 q 286 -104 319 -52 q 246 -139 270 -129 q 196 -149 222 -150 q 145 -138 170 -148 q 105 -112 121 -128 q 85 -76 90 -96 q 94 -36 80 -56 q 130 31 118 1 q 146 84 142 60 q 146 125 150 107 q 137 159 143 144 q 123 188 131 174 q 111 216 115 202 z "},"„":{"ha":728,"x_min":85,"x_max":658,"o":"m 115 241 q 117 278 108 261 q 144 310 126 296 q 187 332 163 323 q 235 343 212 341 q 278 340 259 345 q 307 319 298 334 q 351 217 337 267 q 362 120 364 168 q 342 22 360 71 q 291 -79 324 -26 q 251 -114 275 -104 q 200 -124 227 -125 q 150 -113 174 -123 q 110 -87 126 -103 q 90 -51 94 -71 q 98 -11 85 -31 q 135 56 123 26 q 151 109 147 85 q 151 151 155 132 q 142 184 148 169 q 128 213 136 199 q 115 241 120 227 m 409 244 q 411 281 401 264 q 438 312 420 298 q 481 335 456 326 q 529 346 505 344 q 572 342 553 348 q 600 322 591 337 q 644 220 631 269 q 656 122 658 171 q 636 25 654 74 q 585 -76 618 -24 q 544 -112 568 -101 q 494 -121 520 -122 q 444 -110 468 -120 q 404 -84 420 -100 q 383 -48 388 -68 q 392 -8 378 -28 q 429 59 416 29 q 445 112 441 88 q 445 153 448 135 q 435 187 441 172 q 421 216 429 202 q 409 244 414 230 z "},"-":{"ha":656,"x_min":69,"x_max":594,"o":"m 542 695 q 568 677 556 695 q 586 633 579 660 q 593 576 592 607 q 588 519 594 546 q 567 476 581 493 q 529 458 553 458 l 112 459 q 90 476 99 459 q 76 519 81 494 q 70 575 71 545 q 73 631 69 605 q 86 673 77 656 q 109 690 94 690 l 542 695 z "},"_":{"ha":625,"x_min":48,"x_max":573,"o":"m 521 197 q 547 179 535 197 q 565 135 558 161 q 572 78 571 109 q 567 21 573 47 q 546 -23 560 -5 q 508 -40 532 -40 l 91 -39 q 69 -22 78 -39 q 55 21 60 -5 q 49 77 50 47 q 52 132 48 106 q 65 175 56 158 q 87 192 73 192 l 521 197 z "},"=":{"ha":679,"x_min":76,"x_max":601,"o":"m 549 806 q 574 788 563 806 q 592 744 586 770 q 600 687 599 718 q 594 630 601 656 q 574 586 588 604 q 536 569 559 569 l 119 570 q 97 587 106 570 q 82 630 87 604 q 77 686 77 656 q 80 741 76 715 q 93 784 84 767 q 115 801 101 801 l 549 806 m 549 501 q 574 484 563 501 q 592 439 586 466 q 600 382 599 413 q 594 326 601 352 q 574 282 588 299 q 536 264 559 264 l 119 265 q 97 282 106 265 q 82 326 87 300 q 77 381 77 351 q 80 437 76 411 q 93 479 84 463 q 115 496 101 496 l 549 501 z "},"¨":{"ha":625,"x_min":127,"x_max":489,"o":"m 214 1017 q 166 1028 185 1017 q 137 1058 146 1040 q 127 1098 127 1076 q 137 1138 127 1119 q 164 1169 146 1156 q 211 1181 183 1181 q 254 1170 236 1181 q 281 1140 271 1158 q 291 1101 290 1122 q 283 1061 292 1080 q 258 1030 275 1043 q 214 1017 241 1018 m 412 1014 q 364 1025 383 1013 q 335 1055 345 1037 q 325 1095 325 1073 q 333 1135 324 1116 q 361 1165 342 1153 q 408 1178 380 1178 q 451 1166 433 1178 q 478 1136 469 1154 q 488 1097 488 1118 q 481 1058 489 1076 q 455 1027 473 1040 q 412 1014 438 1015 z "},"#":{"ha":992,"x_min":83,"x_max":895,"o":"m 247 588 l 248 665 l 126 665 q 104 680 113 665 q 90 718 95 695 q 84 768 85 741 q 87 818 83 795 q 100 856 92 840 q 123 871 109 871 l 249 871 l 250 972 q 266 997 250 986 q 305 1015 281 1008 q 356 1022 329 1021 q 407 1016 384 1022 q 446 995 431 1009 q 461 956 462 980 l 460 873 l 532 873 l 533 968 q 549 993 533 982 q 589 1011 565 1004 q 640 1018 612 1017 q 691 1011 667 1018 q 729 990 714 1005 q 745 952 745 976 l 743 875 l 842 876 q 868 860 857 876 q 886 821 880 844 q 893 769 892 797 q 888 719 895 742 q 867 680 882 695 q 829 664 853 664 l 740 664 l 739 591 l 842 592 q 868 576 857 592 q 886 537 880 561 q 893 486 892 513 q 888 435 895 458 q 867 396 882 412 q 829 380 853 380 l 736 380 l 734 249 q 718 227 733 236 q 680 214 703 218 q 630 209 656 209 q 581 212 604 208 q 543 225 557 216 q 528 248 528 234 l 528 380 l 452 380 l 450 253 q 434 231 450 240 q 396 218 419 222 q 347 213 373 213 q 297 216 320 212 q 259 229 274 220 q 244 252 244 238 l 245 381 l 126 381 q 104 396 113 381 q 90 435 95 412 q 84 485 85 458 q 87 534 83 511 q 100 572 92 557 q 123 587 109 587 l 247 588 m 455 589 l 530 590 l 531 664 l 456 664 l 455 589 z "},"–":{"ha":598,"x_min":69,"x_max":530,"o":"m 477 692 q 503 675 492 692 q 521 631 515 657 q 529 574 528 604 q 523 517 530 543 q 503 473 517 490 q 465 456 488 456 l 112 459 q 90 476 99 459 q 76 519 81 494 q 70 575 71 545 q 73 631 69 605 q 86 673 77 656 q 109 690 94 690 l 477 692 z "},"—":{"ha":919,"x_min":69,"x_max":854,"o":"m 802 698 q 827 680 816 698 q 845 636 839 663 q 853 579 852 610 q 847 522 854 549 q 827 478 841 496 q 789 461 812 461 l 112 459 q 90 476 99 459 q 76 519 81 494 q 70 575 71 545 q 73 631 69 605 q 86 673 77 656 q 109 690 94 690 l 802 698 z "},"¡":{"ha":375,"x_min":1,"x_max":267,"o":"m 142 882 q 64 900 95 881 q 17 947 33 918 q 1 1009 1 975 q 16 1072 1 1043 q 61 1121 31 1101 q 136 1141 91 1141 q 206 1122 178 1141 q 250 1075 235 1103 q 266 1014 265 1046 q 254 952 267 981 q 213 903 241 923 q 142 882 185 884 m 254 -24 q 236 -49 254 -38 q 192 -67 218 -61 q 134 -75 165 -74 q 76 -69 102 -76 q 31 -49 49 -63 q 14 -11 14 -35 l 21 803 q 38 825 21 816 q 81 840 56 834 q 136 846 106 845 q 191 844 165 847 q 233 832 216 840 q 250 809 250 823 l 254 -24 z "},"¢":{"ha":1032,"x_min":132,"x_max":921,"o":"m 660 1018 q 808 947 744 998 q 903 820 871 896 q 899 786 909 804 q 868 754 888 769 q 822 727 848 739 q 771 709 796 715 q 727 706 747 704 q 699 722 707 709 q 663 766 685 748 l 668 386 q 702 413 686 399 q 729 442 718 428 q 763 459 742 458 q 808 450 785 460 q 854 421 831 439 q 893 383 877 404 q 915 343 909 363 q 911 309 921 323 q 866 254 892 281 q 810 204 840 228 q 744 163 779 181 q 671 132 709 144 l 673 45 q 655 27 673 35 q 612 14 638 19 q 555 9 586 9 q 498 13 524 8 q 455 28 472 18 q 437 55 437 38 l 437 130 q 303 195 360 151 q 207 298 245 239 q 150 428 169 357 q 132 571 132 498 q 151 714 132 644 q 209 844 170 785 q 303 948 247 904 q 435 1014 360 993 l 435 1099 q 452 1115 435 1109 q 493 1125 469 1122 q 547 1130 518 1129 q 601 1128 576 1131 q 643 1120 626 1126 q 659 1104 659 1114 l 660 1018 m 436 766 q 385 713 406 745 q 354 644 364 681 q 344 568 344 607 q 354 492 344 528 q 385 424 364 455 q 437 372 406 392 l 436 766 z "},"¿":{"ha":895,"x_min":-6,"x_max":806,"o":"m 552 555 q 546 511 553 528 q 526 484 538 494 q 496 468 513 473 q 458 461 479 463 q 362 438 405 454 q 289 397 319 423 q 241 338 258 372 q 220 260 223 303 q 232 194 218 226 q 271 137 246 161 q 331 98 296 113 q 405 84 366 83 q 484 100 449 85 q 543 140 518 115 q 580 197 567 165 q 595 262 593 229 q 612 287 596 277 q 651 303 628 298 q 702 309 675 309 q 752 306 729 310 q 791 293 776 302 q 806 270 806 284 q 791 153 806 206 q 749 56 776 100 q 685 -20 722 13 q 604 -76 648 -53 q 512 -110 560 -98 q 414 -123 464 -122 q 316 -116 366 -125 q 220 -87 267 -106 q 134 -38 174 -68 q 63 33 94 -8 q 15 125 33 73 q -5 239 -3 176 q 14 368 -6 305 q 75 484 33 431 q 182 575 117 536 q 336 631 247 614 l 334 761 q 350 789 334 778 q 390 806 366 801 q 440 811 413 812 q 491 804 468 810 q 530 784 515 797 q 547 750 546 770 l 552 555 m 439 842 q 361 859 392 840 q 314 906 330 878 q 298 968 298 935 q 313 1031 298 1002 q 358 1080 328 1061 q 433 1100 388 1100 q 503 1081 475 1100 q 547 1034 532 1063 q 563 973 562 1006 q 551 911 564 940 q 510 863 538 882 q 439 842 482 843 z "},"|":{"ha":336,"x_min":45,"x_max":286,"o":"m 286 -102 q 268 -129 286 -117 q 223 -146 250 -140 q 165 -154 197 -153 q 107 -148 134 -155 q 62 -127 80 -142 q 45 -90 45 -113 l 54 1265 q 71 1287 54 1278 q 114 1302 88 1297 q 169 1308 139 1307 q 223 1305 198 1309 q 266 1293 249 1302 q 283 1271 283 1284 l 286 -102 z "},"\\":{"ha":623,"x_min":22,"x_max":617,"o":"m 26 1137 q 36 1163 22 1150 q 74 1187 50 1177 q 126 1206 97 1198 q 180 1216 155 1213 q 225 1214 206 1218 q 248 1198 244 1210 l 610 35 q 605 -7 617 12 q 568 -39 592 -26 q 514 -61 544 -53 q 456 -71 484 -70 q 408 -67 429 -73 q 384 -47 388 -62 l 26 1137 z "},"/":{"ha":657,"x_min":33,"x_max":627,"o":"m 267 -47 q 242 -67 262 -62 q 194 -71 222 -73 q 137 -61 167 -70 q 82 -39 106 -53 q 45 -7 58 -26 q 40 35 33 12 l 402 1198 q 425 1214 406 1210 q 470 1216 444 1218 q 525 1206 496 1213 q 577 1187 553 1198 q 614 1163 600 1177 q 624 1137 627 1150 l 267 -47 z "},"€":{"ha":1069,"x_min":69,"x_max":1015,"o":"m 201 869 q 273 1017 229 951 q 375 1127 317 1082 q 503 1197 433 1173 q 652 1221 573 1221 q 766 1207 711 1221 q 866 1166 821 1193 q 946 1100 912 1139 q 998 1010 980 1061 q 992 977 1003 994 q 961 944 981 959 q 916 917 941 928 q 865 899 890 905 q 821 897 841 894 q 794 913 802 899 q 731 974 772 953 q 626 991 690 996 q 528 957 575 987 q 446 871 481 926 l 673 873 q 699 856 687 873 q 716 812 710 838 q 724 755 723 785 q 719 698 725 724 q 698 654 712 671 q 660 637 684 637 l 372 637 q 371 626 372 631 q 371 614 371 620 q 370 590 370 602 q 370 566 370 578 l 673 569 q 699 551 687 569 q 716 507 710 534 q 724 450 723 481 q 719 393 725 420 q 698 350 712 367 q 660 332 684 332 l 422 332 q 509 232 457 265 q 618 199 562 199 q 676 208 646 199 q 734 232 706 217 q 785 264 762 246 q 823 300 808 282 q 857 317 836 316 q 902 307 878 317 q 948 279 925 297 q 986 241 970 261 q 1008 201 1002 220 q 1005 167 1015 181 q 939 95 979 129 q 850 35 899 60 q 747 -7 802 9 q 637 -24 692 -23 q 474 1 546 -25 q 347 75 401 27 q 253 188 292 122 q 193 333 215 254 l 112 333 q 90 350 99 333 q 76 393 81 368 q 70 449 71 419 q 73 505 69 479 q 86 547 77 530 q 109 564 94 564 l 159 564 q 158 586 159 575 q 159 607 158 596 q 159 622 159 614 q 159 637 159 630 l 112 637 q 90 655 99 637 q 76 698 81 672 q 70 753 71 724 q 73 809 69 783 q 86 852 77 835 q 109 869 94 869 l 201 869 z "},"%":{"ha":726,"x_min":42,"x_max":686,"o":"m 298 -3 q 274 -23 294 -17 q 226 -27 254 -28 q 169 -17 199 -26 q 114 5 138 -9 q 77 37 90 18 q 72 79 64 56 l 422 1198 q 446 1214 427 1210 q 490 1216 465 1218 q 545 1206 516 1213 q 597 1187 574 1198 q 634 1163 621 1177 q 644 1137 648 1150 l 298 -3 m 560 -9 q 483 8 513 -11 q 436 55 452 26 q 419 117 420 83 q 434 180 419 151 q 479 229 449 210 q 555 249 509 249 q 625 230 596 249 q 668 183 653 212 q 685 122 684 155 q 672 60 686 89 q 631 12 659 31 q 560 -9 604 -8 m 183 924 q 105 942 136 923 q 59 989 75 960 q 42 1051 43 1017 q 57 1114 42 1085 q 102 1163 72 1143 q 178 1183 132 1183 q 248 1164 219 1183 q 291 1117 276 1145 q 308 1056 307 1088 q 295 994 309 1023 q 254 945 282 965 q 183 924 227 926 z "},"~":{"ha":768,"x_min":49,"x_max":711,"o":"m 182 397 q 162 384 176 385 q 132 390 149 383 q 98 409 115 396 q 70 437 81 421 q 53 469 58 452 q 58 502 49 486 q 110 576 83 548 q 164 619 136 604 q 220 635 191 633 q 277 631 248 637 q 336 610 307 624 q 397 578 366 596 q 454 555 432 558 q 492 562 476 553 q 519 590 507 571 q 547 631 532 608 q 577 652 559 647 q 615 655 595 658 q 654 643 635 652 q 686 619 673 633 q 705 589 699 606 q 703 557 711 573 q 638 458 676 500 q 554 397 600 417 q 460 382 509 377 q 361 420 410 387 q 308 454 332 440 q 262 469 283 468 q 221 454 241 470 q 182 397 201 437 z "},"˜":{"ha":765,"x_min":177,"x_max":631,"o":"m 269 1035 q 255 1026 264 1027 q 234 1030 245 1025 q 212 1043 223 1034 q 192 1062 200 1051 q 180 1084 183 1072 q 183 1106 177 1095 q 237 1174 210 1153 q 294 1197 265 1195 q 354 1188 323 1200 q 416 1158 385 1177 q 455 1141 440 1144 q 481 1143 470 1138 q 500 1159 492 1147 q 519 1185 508 1170 q 539 1200 527 1196 q 565 1201 551 1203 q 592 1193 578 1199 q 614 1177 605 1186 q 627 1157 623 1168 q 626 1135 631 1145 q 581 1068 608 1095 q 524 1030 555 1042 q 459 1023 493 1019 q 391 1050 425 1027 q 355 1074 372 1064 q 323 1084 338 1083 q 295 1073 309 1084 q 269 1035 281 1062 z "},"⁄":{"ha":657,"x_min":33,"x_max":627,"o":"m 267 -47 q 242 -67 262 -62 q 194 -71 222 -73 q 137 -61 167 -70 q 82 -39 106 -53 q 45 -7 58 -26 q 40 35 33 12 l 402 1198 q 425 1214 406 1210 q 470 1216 444 1218 q 525 1206 496 1213 q 577 1187 553 1198 q 614 1163 600 1177 q 624 1137 627 1150 l 267 -47 z "},"ı":{"ha":347,"x_min":52,"x_max":294,"o":"m 294 24 q 276 -2 294 9 q 231 -20 258 -14 q 173 -27 204 -26 q 115 -22 142 -28 q 70 -1 88 -16 q 53 37 52 13 l 62 836 q 80 859 62 849 q 122 873 97 868 q 177 879 148 878 q 232 877 207 880 q 275 865 258 873 q 292 842 292 856 l 294 24 z "},"¸":{"ha":389,"x_min":68,"x_max":355,"o":"m 93 -227 q 71 -197 74 -215 q 75 -165 68 -180 q 92 -143 81 -151 q 113 -141 104 -135 q 146 -159 127 -151 q 186 -169 166 -167 q 222 -164 205 -171 q 247 -138 239 -158 q 242 -120 251 -127 q 216 -107 233 -113 q 176 -99 199 -102 q 128 -95 153 -96 q 118 -94 123 -95 q 109 -88 113 -92 q 103 -75 105 -83 q 102 -51 101 -66 l 104 24 l 200 22 q 199 11 200 18 q 196 -5 197 3 q 196 -21 195 -13 q 200 -33 196 -28 q 314 -66 273 -37 q 355 -143 355 -96 q 340 -190 354 -170 q 305 -223 327 -210 q 255 -244 283 -237 q 198 -253 227 -252 q 142 -248 170 -254 q 93 -229 115 -241 l 93 -227 l 93 -227 z "},"•":{"ha":421,"x_min":90,"x_max":356,"o":"m 231 414 q 153 431 184 412 q 106 478 122 450 q 90 541 90 507 q 104 604 90 574 q 150 652 119 633 q 225 672 180 672 q 295 653 267 672 q 339 606 323 635 q 355 545 354 578 q 343 483 356 512 q 302 435 330 454 q 231 414 274 415 z "},"˙":{"ha":361,"x_min":89,"x_max":260,"o":"m 180 1012 q 130 1023 150 1010 q 100 1054 110 1035 q 89 1094 90 1072 q 99 1135 89 1116 q 128 1167 109 1154 q 176 1179 147 1179 q 221 1167 203 1179 q 249 1137 239 1155 q 260 1097 259 1118 q 252 1057 260 1076 q 225 1025 243 1038 q 180 1012 208 1013 z "},"`":{"ha":289,"x_min":51,"x_max":259,"o":"m 254 1044 q 255 1027 259 1038 q 243 1007 252 1017 q 222 987 234 996 q 197 972 210 977 q 172 968 184 967 q 154 979 161 969 l 55 1110 q 55 1124 51 1116 q 69 1143 60 1133 q 90 1162 78 1153 q 113 1177 102 1171 q 135 1184 125 1183 q 149 1179 144 1185 l 254 1044 z "},"´":{"ha":311,"x_min":47,"x_max":254,"o":"m 157 1185 q 171 1190 161 1192 q 193 1183 181 1189 q 216 1168 204 1177 q 237 1149 228 1159 q 250 1131 246 1139 q 251 1116 254 1122 l 152 985 q 133 974 144 975 q 109 978 122 973 q 84 993 96 983 q 63 1013 72 1002 q 51 1034 54 1023 q 52 1050 47 1044 l 157 1185 z "},"˝":{"ha":509,"x_min":64,"x_max":463,"o":"m 175 1176 q 189 1181 179 1182 q 210 1174 199 1179 q 234 1159 222 1168 q 255 1140 245 1149 q 268 1121 264 1130 q 269 1107 272 1112 l 170 976 q 151 965 162 966 q 127 969 140 964 q 102 983 114 974 q 81 1003 90 993 q 68 1024 72 1014 q 69 1040 64 1034 l 175 1176 m 366 1163 q 379 1168 370 1169 q 401 1161 389 1166 q 424 1146 412 1155 q 445 1127 436 1137 q 458 1108 454 1117 q 459 1094 463 1099 l 360 963 q 341 952 353 953 q 317 956 330 951 q 292 970 304 961 q 271 990 280 980 q 259 1011 262 1001 q 260 1027 255 1021 l 366 1163 z "},"^":{"ha":497,"x_min":84,"x_max":438,"o":"m 260 562 l 230 492 q 213 482 226 484 q 183 484 200 481 q 148 495 166 488 q 115 512 129 503 q 92 530 100 521 q 87 548 84 540 l 175 750 q 190 761 178 757 q 217 768 201 766 q 251 770 233 770 q 284 768 269 770 q 312 762 300 766 q 328 751 324 758 l 434 553 q 431 536 438 546 q 409 516 423 526 q 377 497 395 506 q 343 485 359 489 q 313 481 326 480 q 296 490 300 481 l 260 562 z "},"ˆ":{"ha":468,"x_min":90,"x_max":389,"o":"m 239 1065 l 213 1008 q 199 1001 210 1002 q 173 1002 188 1000 q 143 1011 159 1005 q 116 1025 128 1017 q 97 1040 104 1032 q 93 1054 90 1047 l 167 1217 q 190 1229 171 1225 q 231 1233 209 1233 q 272 1229 252 1233 q 295 1217 291 1225 l 385 1058 q 382 1044 389 1052 q 364 1028 376 1036 q 338 1013 353 1020 q 309 1003 323 1006 q 283 1000 294 999 q 269 1007 272 1000 l 239 1065 z "},"ˇ":{"ha":477,"x_min":112,"x_max":389,"o":"m 252 1177 l 275 1223 q 288 1230 278 1229 q 312 1229 298 1231 q 339 1221 325 1226 q 365 1210 353 1216 q 382 1198 376 1204 q 386 1186 389 1192 l 317 1054 q 297 1044 314 1047 q 259 1040 279 1040 q 221 1043 239 1040 q 199 1053 203 1046 l 117 1183 q 126 1201 112 1190 q 160 1219 140 1211 q 199 1230 180 1227 q 224 1225 218 1233 l 252 1177 z "},"˛":{"ha":311,"x_min":54,"x_max":292,"o":"m 205 37 q 193 -9 197 15 q 193 -55 188 -33 q 215 -92 198 -76 q 269 -113 233 -108 q 285 -126 279 -114 q 291 -154 290 -138 q 289 -190 292 -171 q 278 -224 286 -208 q 259 -249 271 -239 q 231 -255 247 -258 q 117 -208 157 -243 q 65 -125 77 -173 q 68 -24 54 -78 q 117 81 82 31 q 142 91 125 93 q 175 81 159 90 q 200 60 191 73 q 205 37 210 47 z "},"˘":{"ha":569,"x_min":82,"x_max":465,"o":"m 367 1154 q 393 1159 378 1161 q 421 1150 408 1158 q 446 1129 435 1142 q 461 1102 456 1117 q 461 1072 465 1088 q 441 1042 457 1056 q 395 1011 422 1024 q 338 992 368 999 q 275 986 307 986 q 211 991 242 985 q 153 1008 180 996 q 105 1037 125 1019 q 86 1066 90 1050 q 85 1100 82 1083 q 98 1131 89 1116 q 119 1154 107 1145 q 145 1163 132 1162 q 171 1154 159 1164 q 234 1117 204 1124 q 289 1117 264 1111 q 334 1135 314 1122 q 367 1154 354 1147 z "},"˚":{"ha":362,"x_min":51,"x_max":317,"o":"m 192 981 q 114 999 145 980 q 67 1046 83 1017 q 51 1108 52 1074 q 66 1171 51 1142 q 111 1220 81 1200 q 186 1240 141 1240 q 256 1221 228 1240 q 300 1174 285 1202 q 316 1113 315 1145 q 304 1051 317 1080 q 263 1002 291 1022 q 192 981 235 983 m 187 1084 q 209 1093 202 1084 q 216 1112 216 1102 q 208 1131 216 1122 q 185 1139 200 1139 q 162 1131 170 1139 q 154 1111 154 1122 q 162 1092 154 1101 q 187 1084 171 1084 z "},"¯":{"ha":602,"x_min":82,"x_max":513,"o":"m 470 1153 q 491 1143 481 1153 q 506 1120 500 1134 q 512 1089 511 1105 q 508 1058 513 1072 q 491 1035 503 1044 q 459 1025 479 1025 l 117 1025 q 99 1035 106 1025 q 87 1058 92 1044 q 82 1088 83 1072 q 85 1119 82 1105 q 95 1142 88 1133 q 114 1151 102 1151 l 470 1153 z "},"…":{"ha":1004,"x_min":56,"x_max":956,"o":"m 197 -6 q 119 11 150 -7 q 72 58 88 30 q 56 121 56 87 q 71 184 56 155 q 116 233 85 213 q 191 252 146 252 q 261 234 233 252 q 305 186 290 215 q 321 125 320 158 q 309 63 322 92 q 268 15 296 35 q 197 -6 240 -5 m 513 -6 q 436 11 467 -7 q 389 58 405 30 q 373 121 373 87 q 387 184 372 155 q 432 233 402 213 q 508 252 463 252 q 578 234 549 252 q 622 186 606 215 q 638 125 637 158 q 626 63 639 92 q 585 15 612 35 q 513 -6 557 -5 m 830 -6 q 752 11 783 -7 q 706 58 722 30 q 689 121 690 87 q 704 184 689 155 q 749 233 719 213 q 825 252 779 252 q 895 234 866 252 q 938 186 923 215 q 955 125 954 158 q 942 63 956 92 q 901 15 929 35 q 830 -6 873 -5 z "},"−":{"ha":656,"x_min":69,"x_max":594,"o":"m 542 695 q 568 677 556 695 q 586 633 579 660 q 593 576 592 607 q 588 519 594 546 q 567 476 581 493 q 529 458 553 458 l 112 459 q 90 476 99 459 q 76 519 81 494 q 70 575 71 545 q 73 631 69 605 q 86 673 77 656 q 109 690 94 690 l 542 695 z "},"®":{"ha":1424,"x_min":86,"x_max":1356,"o":"m 748 -26 q 508 8 614 -27 q 323 104 402 43 q 191 248 243 165 q 112 422 138 330 q 87 611 86 514 q 114 801 87 709 q 194 976 141 894 q 325 1119 246 1058 q 507 1217 403 1181 q 741 1252 611 1253 q 963 1216 864 1252 q 1135 1119 1061 1180 q 1258 977 1209 1058 q 1332 804 1307 895 q 1356 615 1356 712 q 1332 427 1356 518 q 1259 253 1308 335 q 1137 110 1210 171 q 966 12 1063 48 q 748 -26 869 -25 m 715 1053 q 574 1022 637 1049 q 464 952 511 995 q 385 852 416 909 q 338 734 353 796 q 324 606 323 671 q 342 479 325 541 q 392 362 359 417 q 475 266 425 307 q 592 201 526 225 q 741 176 658 177 q 878 201 817 176 q 985 269 939 226 q 1062 370 1031 312 q 1109 492 1093 427 q 1125 624 1125 556 q 1109 755 1125 692 q 1061 875 1093 819 q 979 972 1028 931 q 865 1035 930 1013 q 715 1053 799 1057 m 704 998 q 801 983 751 995 q 892 945 851 970 q 960 881 932 920 q 989 786 987 842 q 973 690 992 730 q 921 625 954 651 q 848 585 888 599 q 769 564 808 570 l 991 368 q 996 350 998 363 q 987 323 994 338 q 969 294 980 309 q 945 270 958 279 q 919 258 932 260 q 895 264 905 255 l 642 496 l 644 288 q 634 273 644 279 q 608 262 623 266 q 574 258 592 258 q 540 261 555 257 q 514 273 524 264 q 503 295 503 281 q 504 346 503 312 q 504 425 504 380 q 505 523 505 470 q 505 630 505 576 q 505 736 505 684 q 505 833 505 789 q 508 902 505 873 q 517 950 510 930 q 537 979 524 969 q 570 991 549 989 q 637 998 603 996 q 704 998 671 1001 m 647 693 q 675 691 656 692 q 718 693 694 690 q 766 701 741 695 q 810 717 790 706 q 841 746 829 728 q 850 789 852 763 q 827 836 848 818 q 776 863 806 854 q 710 873 745 872 q 645 871 675 875 l 647 693 z "},"Á":{"ha":1126,"x_min":48,"x_max":1082,"o":"m 766 252 l 363 255 l 269 -1 q 245 -19 264 -14 q 199 -22 225 -24 q 144 -11 173 -20 q 94 11 116 -3 q 60 43 72 25 q 56 83 48 62 q 72 130 60 96 q 101 214 83 164 q 142 326 119 263 q 189 457 164 388 q 240 600 214 526 q 292 744 267 673 q 342 881 318 814 q 386 1002 366 947 q 420 1100 406 1058 q 443 1164 435 1141 q 465 1186 448 1177 q 506 1198 482 1194 q 557 1202 530 1202 q 608 1197 584 1202 q 649 1185 631 1193 q 671 1166 667 1177 q 706 1081 684 1139 q 758 947 728 1024 q 820 781 787 871 q 887 600 853 691 q 952 422 920 509 q 1009 264 984 335 q 1052 144 1035 193 q 1075 79 1069 95 q 1070 39 1082 58 q 1037 7 1059 21 q 986 -15 1015 -7 q 931 -26 958 -24 q 886 -23 905 -28 q 861 -5 866 -18 l 766 252 m 448 485 l 682 484 l 565 802 l 448 485 m 579 1426 q 593 1431 583 1432 q 614 1424 603 1430 q 638 1409 626 1418 q 659 1390 650 1400 q 672 1371 668 1380 q 673 1357 676 1362 l 574 1226 q 555 1215 566 1216 q 531 1219 544 1214 q 506 1234 518 1224 q 485 1254 494 1243 q 472 1274 476 1264 q 473 1291 469 1284 l 579 1426 z "},"Ă":{"ha":1126,"x_min":48,"x_max":1082,"o":"m 766 252 l 363 255 l 269 -1 q 245 -19 264 -14 q 199 -22 225 -24 q 144 -11 173 -20 q 94 11 116 -3 q 60 43 72 25 q 56 83 48 62 q 72 130 60 96 q 101 214 83 164 q 142 326 119 263 q 189 457 164 388 q 240 600 214 526 q 292 744 267 673 q 342 881 318 814 q 386 1002 366 947 q 420 1100 406 1058 q 443 1164 435 1141 q 465 1186 448 1177 q 506 1198 482 1194 q 557 1202 530 1202 q 608 1197 584 1202 q 649 1185 631 1193 q 671 1166 667 1177 q 706 1081 684 1139 q 758 947 728 1024 q 820 781 787 871 q 887 600 853 691 q 952 422 920 509 q 1009 264 984 335 q 1052 144 1035 193 q 1075 79 1069 95 q 1070 39 1082 58 q 1037 7 1059 21 q 986 -15 1015 -7 q 931 -26 958 -24 q 886 -23 905 -28 q 861 -5 866 -18 l 766 252 m 448 485 l 682 484 l 565 802 l 448 485 m 652 1440 q 679 1445 664 1447 q 707 1435 693 1443 q 731 1415 720 1428 q 746 1388 742 1402 q 747 1357 751 1373 q 727 1327 743 1341 q 681 1297 707 1310 q 623 1278 654 1284 q 560 1271 593 1272 q 497 1276 528 1271 q 438 1293 466 1282 q 391 1322 411 1305 q 372 1352 376 1335 q 371 1385 368 1369 q 384 1416 374 1402 q 405 1439 393 1430 q 431 1449 417 1448 q 456 1439 444 1449 q 519 1403 490 1409 q 574 1402 549 1396 q 620 1420 600 1408 q 652 1440 640 1432 z "},"Â":{"ha":1126,"x_min":48,"x_max":1082,"o":"m 766 252 l 363 255 l 269 -1 q 245 -19 264 -14 q 199 -22 225 -24 q 144 -11 173 -20 q 94 11 116 -3 q 60 43 72 25 q 56 83 48 62 q 72 130 60 96 q 101 214 83 164 q 142 326 119 263 q 189 457 164 388 q 240 600 214 526 q 292 744 267 673 q 342 881 318 814 q 386 1002 366 947 q 420 1100 406 1058 q 443 1164 435 1141 q 465 1186 448 1177 q 506 1198 482 1194 q 557 1202 530 1202 q 608 1197 584 1202 q 649 1185 631 1193 q 671 1166 667 1177 q 706 1081 684 1139 q 758 947 728 1024 q 820 781 787 871 q 887 600 853 691 q 952 422 920 509 q 1009 264 984 335 q 1052 144 1035 193 q 1075 79 1069 95 q 1070 39 1082 58 q 1037 7 1059 21 q 986 -15 1015 -7 q 931 -26 958 -24 q 886 -23 905 -28 q 861 -5 866 -18 l 766 252 m 448 485 l 682 484 l 565 802 l 448 485 m 566 1325 l 540 1268 q 526 1260 536 1261 q 500 1262 515 1259 q 470 1271 486 1265 q 443 1284 455 1277 q 424 1299 431 1292 q 420 1314 416 1307 l 494 1476 q 517 1489 498 1485 q 557 1493 536 1493 q 598 1489 579 1493 q 622 1477 618 1485 l 712 1318 q 709 1303 715 1312 q 691 1288 703 1295 q 665 1273 680 1280 q 635 1262 650 1266 q 610 1259 621 1259 q 595 1267 599 1260 l 566 1325 z "},"À":{"ha":1126,"x_min":48,"x_max":1082,"o":"m 766 252 l 363 255 l 269 -1 q 245 -19 264 -14 q 199 -22 225 -24 q 144 -11 173 -20 q 94 11 116 -3 q 60 43 72 25 q 56 83 48 62 q 72 130 60 96 q 101 214 83 164 q 142 326 119 263 q 189 457 164 388 q 240 600 214 526 q 292 744 267 673 q 342 881 318 814 q 386 1002 366 947 q 420 1100 406 1058 q 443 1164 435 1141 q 465 1186 448 1177 q 506 1198 482 1194 q 557 1202 530 1202 q 608 1197 584 1202 q 649 1185 631 1193 q 671 1166 667 1177 q 706 1081 684 1139 q 758 947 728 1024 q 820 781 787 871 q 887 600 853 691 q 952 422 920 509 q 1009 264 984 335 q 1052 144 1035 193 q 1075 79 1069 95 q 1070 39 1082 58 q 1037 7 1059 21 q 986 -15 1015 -7 q 931 -26 958 -24 q 886 -23 905 -28 q 861 -5 866 -18 l 766 252 m 448 485 l 682 484 l 565 802 l 448 485 m 658 1303 q 659 1287 663 1297 q 646 1266 655 1277 q 625 1246 637 1256 q 600 1232 613 1237 q 576 1228 587 1227 q 557 1239 564 1229 l 458 1370 q 459 1384 454 1375 q 472 1403 463 1393 q 493 1422 481 1413 q 517 1437 505 1431 q 538 1444 528 1442 q 552 1439 548 1445 l 658 1303 z "},"Ä":{"ha":1126,"x_min":48,"x_max":1082,"o":"m 766 252 l 363 255 l 269 -1 q 245 -19 264 -14 q 199 -22 225 -24 q 144 -11 173 -20 q 94 11 116 -3 q 60 43 72 25 q 56 83 48 62 q 72 130 60 96 q 101 214 83 164 q 142 326 119 263 q 189 457 164 388 q 240 600 214 526 q 292 744 267 673 q 342 881 318 814 q 386 1002 366 947 q 420 1100 406 1058 q 443 1164 435 1141 q 465 1186 448 1177 q 506 1198 482 1194 q 557 1202 530 1202 q 608 1197 584 1202 q 649 1185 631 1193 q 671 1166 667 1177 q 706 1081 684 1139 q 758 947 728 1024 q 820 781 787 871 q 887 600 853 691 q 952 422 920 509 q 1009 264 984 335 q 1052 144 1035 193 q 1075 79 1069 95 q 1070 39 1082 58 q 1037 7 1059 21 q 986 -15 1015 -7 q 931 -26 958 -24 q 886 -23 905 -28 q 861 -5 866 -18 l 766 252 m 448 485 l 682 484 l 565 802 l 448 485 m 455 1277 q 407 1288 427 1276 q 378 1318 388 1299 q 369 1357 369 1336 q 378 1397 369 1379 q 406 1429 387 1416 q 452 1441 425 1441 q 495 1429 477 1441 q 522 1399 513 1417 q 532 1360 532 1381 q 525 1321 533 1339 q 499 1290 517 1303 q 455 1277 482 1278 m 653 1274 q 605 1285 625 1273 q 576 1315 586 1297 q 566 1354 566 1333 q 575 1394 566 1376 q 603 1425 584 1413 q 649 1438 621 1438 q 692 1426 675 1438 q 720 1396 710 1414 q 730 1357 729 1378 q 722 1318 730 1336 q 697 1287 714 1299 q 653 1274 680 1274 z "},"Å":{"ha":1126,"x_min":48,"x_max":1082,"o":"m 766 252 l 363 255 l 269 -1 q 245 -19 264 -14 q 199 -22 225 -24 q 144 -11 173 -20 q 94 11 116 -3 q 60 43 72 25 q 56 83 48 62 q 72 130 60 96 q 101 214 83 164 q 142 326 119 263 q 189 457 164 388 q 240 600 214 526 q 292 744 267 673 q 342 881 318 814 q 386 1002 366 947 q 420 1100 406 1058 q 443 1164 435 1141 q 465 1186 448 1177 q 506 1198 482 1194 q 557 1202 530 1202 q 608 1197 584 1202 q 649 1185 631 1193 q 671 1166 667 1177 q 706 1081 684 1139 q 758 947 728 1024 q 820 781 787 871 q 887 600 853 691 q 952 422 920 509 q 1009 264 984 335 q 1052 144 1035 193 q 1075 79 1069 95 q 1070 39 1082 58 q 1037 7 1059 21 q 986 -15 1015 -7 q 931 -26 958 -24 q 886 -23 905 -28 q 861 -5 866 -18 l 766 252 m 448 485 l 682 484 l 565 802 l 448 485 m 570 1241 q 492 1258 523 1240 q 445 1305 461 1277 q 429 1368 429 1334 q 444 1431 429 1402 q 489 1480 458 1460 q 564 1499 519 1499 q 634 1481 606 1499 q 678 1434 663 1462 q 694 1372 693 1405 q 682 1311 695 1339 q 641 1262 669 1282 q 570 1241 613 1242 m 565 1344 q 587 1353 580 1344 q 594 1372 594 1362 q 586 1391 593 1382 q 563 1399 578 1399 q 539 1390 547 1399 q 532 1371 532 1381 q 540 1352 532 1360 q 565 1344 549 1343 z "},"Ā":{"ha":1126,"x_min":48,"x_max":1082,"o":"m 766 252 l 363 255 l 269 -1 q 245 -19 264 -14 q 199 -22 225 -24 q 144 -11 173 -20 q 94 11 116 -3 q 60 43 72 25 q 56 83 48 62 q 72 130 60 96 q 101 214 83 164 q 142 326 119 263 q 189 457 164 388 q 240 600 214 526 q 292 744 267 673 q 342 881 318 814 q 386 1002 366 947 q 420 1100 406 1058 q 443 1164 435 1141 q 465 1186 448 1177 q 506 1198 482 1194 q 557 1202 530 1202 q 608 1197 584 1202 q 649 1185 631 1193 q 671 1166 667 1177 q 706 1081 684 1139 q 758 947 728 1024 q 820 781 787 871 q 887 600 853 691 q 952 422 920 509 q 1009 264 984 335 q 1052 144 1035 193 q 1075 79 1069 95 q 1070 39 1082 58 q 1037 7 1059 21 q 986 -15 1015 -7 q 931 -26 958 -24 q 886 -23 905 -28 q 861 -5 866 -18 l 766 252 m 448 485 l 682 484 l 565 802 l 448 485 m 719 1413 q 740 1403 730 1413 q 755 1379 749 1394 q 761 1349 760 1365 q 756 1318 762 1332 q 740 1294 751 1303 q 708 1285 728 1285 l 366 1285 q 348 1295 355 1285 q 336 1318 340 1304 q 331 1348 332 1332 q 334 1378 331 1364 q 344 1401 337 1392 q 363 1411 351 1411 l 719 1413 z "},"Ą":{"ha":1126,"x_min":48,"x_max":1082,"o":"m 1075 79 q 1072 41 1082 59 q 1042 11 1061 24 q 996 -12 1022 -3 q 945 -24 970 -20 q 949 -51 945 -38 q 962 -74 953 -63 q 986 -92 971 -84 q 1023 -102 1001 -99 q 1039 -115 1034 -103 q 1045 -143 1044 -127 q 1043 -179 1046 -160 q 1033 -213 1040 -197 q 1013 -238 1025 -229 q 985 -244 1001 -247 q 880 -205 919 -234 q 826 -136 842 -176 q 815 -49 810 -96 q 843 44 821 -2 l 766 252 l 363 255 l 269 -1 q 245 -19 264 -14 q 199 -22 225 -24 q 144 -11 173 -20 q 94 11 116 -3 q 60 43 72 25 q 56 83 48 62 q 72 130 60 96 q 101 214 83 164 q 142 326 119 263 q 189 457 164 388 q 240 600 214 526 q 292 744 267 673 q 342 881 318 814 q 386 1002 366 947 q 420 1100 406 1058 q 443 1164 435 1141 q 465 1186 448 1177 q 506 1198 482 1194 q 557 1202 530 1202 q 608 1197 584 1202 q 649 1185 631 1193 q 671 1166 667 1177 q 706 1081 684 1139 q 758 947 728 1024 q 820 781 787 871 q 887 600 853 691 q 952 422 920 509 q 1009 264 984 335 q 1052 144 1035 193 q 1075 79 1069 95 m 448 485 l 682 484 l 565 802 l 448 485 z "},"Ã":{"ha":1126,"x_min":48,"x_max":1082,"o":"m 766 252 l 363 255 l 269 -1 q 245 -19 264 -14 q 199 -22 225 -24 q 144 -11 173 -20 q 94 11 116 -3 q 60 43 72 25 q 56 83 48 62 q 72 130 60 96 q 101 214 83 164 q 142 326 119 263 q 189 457 164 388 q 240 600 214 526 q 292 744 267 673 q 342 881 318 814 q 386 1002 366 947 q 420 1100 406 1058 q 443 1164 435 1141 q 465 1186 448 1177 q 506 1198 482 1194 q 557 1202 530 1202 q 608 1197 584 1202 q 649 1185 631 1193 q 671 1166 667 1177 q 706 1081 684 1139 q 758 947 728 1024 q 820 781 787 871 q 887 600 853 691 q 952 422 920 509 q 1009 264 984 335 q 1052 144 1035 193 q 1075 79 1069 95 q 1070 39 1082 58 q 1037 7 1059 21 q 986 -15 1015 -7 q 931 -26 958 -24 q 886 -23 905 -28 q 861 -5 866 -18 l 766 252 m 448 485 l 682 484 l 565 802 l 448 485 m 464 1295 q 450 1286 460 1286 q 430 1290 441 1285 q 407 1302 418 1294 q 387 1321 395 1311 q 375 1343 378 1332 q 378 1366 372 1355 q 433 1434 405 1413 q 490 1457 460 1455 q 549 1448 519 1459 q 611 1418 580 1436 q 650 1401 635 1404 q 676 1402 665 1398 q 695 1418 687 1407 q 714 1444 703 1430 q 734 1459 722 1456 q 760 1461 747 1463 q 787 1452 774 1459 q 809 1437 800 1446 q 822 1416 819 1428 q 821 1394 826 1405 q 777 1328 803 1355 q 719 1290 750 1301 q 654 1283 688 1278 q 587 1310 621 1287 q 550 1333 567 1324 q 518 1343 533 1343 q 490 1333 504 1344 q 464 1295 477 1322 z "},"Æ":{"ha":1523,"x_min":27,"x_max":1478,"o":"m 982 701 l 1379 702 q 1405 684 1394 702 q 1422 639 1416 666 q 1430 581 1429 612 q 1424 523 1431 550 q 1404 478 1418 496 q 1366 461 1390 460 l 983 465 l 983 217 l 1426 217 q 1452 200 1440 217 q 1470 156 1463 182 q 1477 100 1476 130 q 1472 44 1478 70 q 1451 1 1466 18 q 1413 -16 1437 -16 q 1311 -15 1369 -15 q 1191 -15 1254 -15 q 1063 -15 1128 -15 q 937 -16 998 -16 q 851 -11 885 -16 q 795 5 817 -5 q 763 34 774 16 q 749 78 753 52 q 745 138 745 104 q 745 216 745 172 l 745 267 l 398 280 l 233 -18 q 204 -35 225 -31 q 158 -36 184 -39 q 106 -22 133 -33 q 61 3 80 -12 q 35 37 42 18 q 40 78 27 56 q 66 123 47 90 q 113 205 85 157 q 176 314 141 254 q 251 441 212 374 q 331 579 290 509 q 414 719 373 650 q 493 852 454 788 q 565 969 532 916 q 624 1061 597 1022 q 665 1121 650 1101 q 725 1169 688 1151 q 800 1196 761 1187 q 875 1209 838 1206 q 935 1212 911 1212 q 1061 1212 996 1212 q 1189 1211 1126 1211 q 1309 1211 1252 1211 q 1411 1212 1367 1211 q 1449 1195 1435 1212 q 1470 1151 1463 1177 q 1475 1094 1476 1125 q 1468 1037 1474 1063 q 1450 993 1461 1010 q 1424 975 1438 975 l 981 975 l 982 701 m 541 505 l 744 501 l 743 783 l 738 817 l 541 505 z "},"Ǽ":{"ha":1523,"x_min":27,"x_max":1478,"o":"m 982 701 l 1379 702 q 1405 684 1394 702 q 1422 639 1416 666 q 1430 581 1429 612 q 1424 523 1431 550 q 1404 478 1418 496 q 1366 461 1390 460 l 983 465 l 983 217 l 1426 217 q 1452 200 1440 217 q 1470 156 1463 182 q 1477 100 1476 130 q 1472 44 1478 70 q 1451 1 1466 18 q 1413 -16 1437 -16 q 1311 -15 1369 -15 q 1191 -15 1254 -15 q 1063 -15 1128 -15 q 937 -16 998 -16 q 851 -11 885 -16 q 795 5 817 -5 q 763 34 774 16 q 749 78 753 52 q 745 138 745 104 q 745 216 745 172 l 745 267 l 398 280 l 233 -18 q 204 -35 225 -31 q 158 -36 184 -39 q 106 -22 133 -33 q 61 3 80 -12 q 35 37 42 18 q 40 78 27 56 q 66 123 47 90 q 113 205 85 157 q 176 314 141 254 q 251 441 212 374 q 331 579 290 509 q 414 719 373 650 q 493 852 454 788 q 565 969 532 916 q 624 1061 597 1022 q 665 1121 650 1101 q 725 1169 688 1151 q 800 1196 761 1187 q 875 1209 838 1206 q 935 1212 911 1212 q 1061 1212 996 1212 q 1189 1211 1126 1211 q 1309 1211 1252 1211 q 1411 1212 1367 1211 q 1449 1195 1435 1212 q 1470 1151 1463 1177 q 1475 1094 1476 1125 q 1468 1037 1474 1063 q 1450 993 1461 1010 q 1424 975 1438 975 l 981 975 l 982 701 m 541 505 l 744 501 l 743 783 l 738 817 l 541 505 m 1143 1463 q 1157 1468 1147 1470 q 1178 1461 1166 1467 q 1201 1446 1190 1455 q 1222 1427 1213 1437 q 1236 1409 1232 1417 q 1236 1394 1240 1400 l 1137 1263 q 1119 1252 1130 1253 q 1095 1256 1107 1251 q 1069 1271 1082 1261 q 1048 1291 1057 1280 q 1036 1312 1040 1301 q 1037 1328 1032 1322 l 1143 1463 z "},"Ć":{"ha":938,"x_min":44,"x_max":901,"o":"m 709 292 q 744 309 722 309 q 788 300 765 310 q 834 272 812 290 q 873 233 857 254 q 895 193 889 213 q 892 159 901 174 q 825 87 865 121 q 737 27 785 53 q 634 -15 688 1 q 524 -31 579 -31 q 371 -10 439 -33 q 249 55 302 13 q 156 155 195 96 q 93 283 117 213 q 56 434 68 354 q 45 600 44 515 q 64 774 47 692 q 112 924 81 855 q 186 1046 142 992 q 285 1137 231 1099 q 403 1194 339 1174 q 539 1213 467 1213 q 653 1199 598 1213 q 753 1159 707 1185 q 833 1093 799 1132 q 884 1003 867 1054 q 879 969 890 987 q 848 936 868 951 q 802 909 828 921 q 752 892 777 897 q 708 889 728 886 q 681 905 688 892 q 618 967 659 945 q 513 983 577 988 q 421 953 466 980 q 342 878 377 926 q 284 761 307 829 q 258 607 262 693 q 272 424 253 502 q 327 294 292 346 q 409 217 362 243 q 505 191 455 191 q 563 200 532 191 q 621 224 593 210 q 672 257 648 239 q 709 292 695 275 m 477 1445 q 491 1450 481 1451 q 512 1443 500 1449 q 535 1428 524 1437 q 556 1409 547 1419 q 570 1390 566 1399 q 570 1376 574 1381 l 471 1245 q 453 1234 464 1235 q 429 1238 441 1233 q 404 1253 416 1243 q 382 1273 391 1262 q 370 1293 374 1283 q 371 1310 366 1303 l 477 1445 z "},"Č":{"ha":938,"x_min":44,"x_max":901,"o":"m 709 292 q 744 309 722 309 q 788 300 765 310 q 834 272 812 290 q 873 233 857 254 q 895 193 889 213 q 892 159 901 174 q 825 87 865 121 q 737 27 785 53 q 634 -15 688 1 q 524 -31 579 -31 q 371 -10 439 -33 q 249 55 302 13 q 156 155 195 96 q 93 283 117 213 q 56 434 68 354 q 45 600 44 515 q 64 774 47 692 q 112 924 81 855 q 186 1046 142 992 q 285 1137 231 1099 q 403 1194 339 1174 q 539 1213 467 1213 q 653 1199 598 1213 q 753 1159 707 1185 q 833 1093 799 1132 q 884 1003 867 1054 q 879 969 890 987 q 848 936 868 951 q 802 909 828 921 q 752 892 777 897 q 708 889 728 886 q 681 905 688 892 q 618 967 659 945 q 513 983 577 988 q 421 953 466 980 q 342 878 377 926 q 284 761 307 829 q 258 607 262 693 q 272 424 253 502 q 327 294 292 346 q 409 217 362 243 q 505 191 455 191 q 563 200 532 191 q 621 224 593 210 q 672 257 648 239 q 709 292 695 275 m 468 1437 l 492 1483 q 505 1490 494 1489 q 528 1488 515 1491 q 555 1481 541 1486 q 581 1470 570 1476 q 598 1458 592 1464 q 602 1446 605 1451 l 534 1314 q 513 1303 530 1307 q 475 1300 496 1300 q 437 1303 455 1300 q 416 1312 420 1306 l 333 1442 q 342 1460 328 1450 q 377 1479 357 1471 q 416 1490 397 1487 q 440 1485 435 1493 l 468 1437 z "},"Ç":{"ha":938,"x_min":44,"x_max":901,"o":"m 432 -249 q 410 -219 413 -237 q 414 -187 408 -201 q 431 -164 420 -172 q 452 -163 443 -157 q 486 -180 466 -172 q 525 -191 505 -189 q 561 -186 545 -193 q 586 -159 578 -180 q 581 -142 590 -149 q 555 -129 572 -134 q 515 -121 538 -123 q 467 -117 492 -118 q 457 -115 462 -117 q 448 -110 452 -114 q 442 -96 444 -105 q 441 -73 440 -87 l 442 -26 q 261 45 337 -11 q 137 185 186 100 q 66 376 89 269 q 45 600 44 483 q 64 774 47 692 q 112 924 81 855 q 186 1046 142 992 q 285 1137 231 1099 q 403 1194 339 1174 q 539 1213 467 1213 q 653 1199 598 1213 q 753 1159 707 1185 q 833 1093 799 1132 q 884 1003 867 1054 q 879 969 890 987 q 848 936 868 951 q 802 909 828 921 q 752 892 777 897 q 708 889 728 886 q 681 905 688 892 q 618 967 659 945 q 513 983 577 988 q 421 953 466 980 q 342 878 377 926 q 284 761 307 829 q 258 607 262 693 q 272 424 253 502 q 327 294 292 346 q 409 217 362 243 q 505 191 455 191 q 563 200 532 191 q 621 224 593 210 q 672 257 648 239 q 709 292 695 275 q 744 309 722 309 q 788 300 765 310 q 834 272 812 290 q 873 233 857 254 q 895 193 889 213 q 892 159 901 174 q 827 89 866 122 q 742 30 789 56 q 642 -12 694 4 q 534 -31 589 -28 q 535 -44 534 -38 q 539 -55 536 -51 q 653 -88 612 -59 q 694 -165 694 -117 q 680 -211 693 -191 q 644 -245 666 -231 q 594 -266 622 -259 q 537 -274 566 -273 q 481 -269 509 -275 q 432 -250 454 -263 l 432 -249 l 432 -249 z "},"Ĉ":{"ha":938,"x_min":44,"x_max":901,"o":"m 709 292 q 744 309 722 309 q 788 300 765 310 q 834 272 812 290 q 873 233 857 254 q 895 193 889 213 q 892 159 901 174 q 825 87 865 121 q 737 27 785 53 q 634 -15 688 1 q 524 -31 579 -31 q 371 -10 439 -33 q 249 55 302 13 q 156 155 195 96 q 93 283 117 213 q 56 434 68 354 q 45 600 44 515 q 64 774 47 692 q 112 924 81 855 q 186 1046 142 992 q 285 1137 231 1099 q 403 1194 339 1174 q 539 1213 467 1213 q 653 1199 598 1213 q 753 1159 707 1185 q 833 1093 799 1132 q 884 1003 867 1054 q 879 969 890 987 q 848 936 868 951 q 802 909 828 921 q 752 892 777 897 q 708 889 728 886 q 681 905 688 892 q 618 967 659 945 q 513 983 577 988 q 421 953 466 980 q 342 878 377 926 q 284 761 307 829 q 258 607 262 693 q 272 424 253 502 q 327 294 292 346 q 409 217 362 243 q 505 191 455 191 q 563 200 532 191 q 621 224 593 210 q 672 257 648 239 q 709 292 695 275 m 468 1325 l 442 1268 q 428 1260 439 1261 q 402 1262 417 1259 q 373 1271 388 1265 q 345 1284 357 1277 q 326 1299 333 1292 q 322 1314 319 1307 l 396 1476 q 419 1489 400 1485 q 460 1493 438 1493 q 501 1489 481 1493 q 524 1477 520 1485 l 614 1318 q 611 1303 618 1312 q 593 1288 605 1295 q 567 1273 582 1280 q 538 1262 552 1266 q 512 1259 524 1259 q 498 1267 501 1260 l 468 1325 z "},"Ċ":{"ha":938,"x_min":44,"x_max":901,"o":"m 709 292 q 744 309 722 309 q 788 300 765 310 q 834 272 812 290 q 873 233 857 254 q 895 193 889 213 q 892 159 901 174 q 825 87 865 121 q 737 27 785 53 q 634 -15 688 1 q 524 -31 579 -31 q 371 -10 439 -33 q 249 55 302 13 q 156 155 195 96 q 93 283 117 213 q 56 434 68 354 q 45 600 44 515 q 64 774 47 692 q 112 924 81 855 q 186 1046 142 992 q 285 1137 231 1099 q 403 1194 339 1174 q 539 1213 467 1213 q 653 1199 598 1213 q 753 1159 707 1185 q 833 1093 799 1132 q 884 1003 867 1054 q 879 969 890 987 q 848 936 868 951 q 802 909 828 921 q 752 892 777 897 q 708 889 728 886 q 681 905 688 892 q 618 967 659 945 q 513 983 577 988 q 421 953 466 980 q 342 878 377 926 q 284 761 307 829 q 258 607 262 693 q 272 424 253 502 q 327 294 292 346 q 409 217 362 243 q 505 191 455 191 q 563 200 532 191 q 621 224 593 210 q 672 257 648 239 q 709 292 695 275 m 532 1316 q 482 1326 502 1314 q 452 1357 462 1339 q 441 1398 441 1376 q 451 1439 441 1420 q 480 1471 460 1458 q 528 1483 499 1483 q 573 1471 555 1483 q 601 1440 591 1459 q 612 1401 611 1422 q 604 1361 612 1379 q 577 1329 595 1342 q 532 1316 559 1316 z "},"Ď":{"ha":952,"x_min":53,"x_max":901,"o":"m 899 608 q 884 447 901 526 q 831 299 867 368 q 741 171 795 229 q 614 72 686 113 q 451 7 541 30 q 254 -14 361 -15 q 171 -7 208 -13 q 108 11 134 -2 q 67 47 81 24 q 53 105 53 70 q 53 220 53 155 q 53 358 53 285 q 54 508 54 431 q 55 662 54 586 q 55 809 55 738 q 56 941 56 881 q 57 1047 56 1002 q 57 1118 57 1093 q 68 1148 57 1134 q 104 1173 79 1162 q 166 1188 128 1183 q 258 1191 205 1194 q 422 1168 343 1186 q 572 1118 502 1150 q 701 1038 642 1085 q 803 927 760 991 q 871 785 846 864 q 899 608 896 705 m 688 559 q 668 712 690 642 q 598 833 647 781 q 472 917 550 885 q 281 957 393 949 l 286 191 q 450 228 376 197 q 576 309 524 259 q 658 422 629 358 q 688 559 687 486 m 475 1437 l 499 1483 q 512 1490 502 1489 q 535 1488 522 1491 q 563 1481 549 1486 q 588 1470 577 1476 q 606 1458 600 1464 q 610 1446 612 1451 l 541 1314 q 520 1303 538 1307 q 483 1300 503 1300 q 445 1303 463 1300 q 423 1312 427 1306 l 340 1442 q 350 1460 336 1450 q 384 1479 364 1471 q 423 1490 404 1487 q 448 1485 442 1493 l 475 1437 z "},"Đ":{"ha":952,"x_min":-18,"x_max":901,"o":"m 55 721 q 55 850 55 788 q 56 964 56 912 q 57 1056 56 1016 q 57 1118 57 1096 q 68 1148 57 1134 q 104 1173 79 1162 q 166 1188 128 1183 q 258 1191 205 1194 q 422 1168 343 1186 q 572 1118 502 1150 q 701 1038 642 1085 q 803 927 760 991 q 871 785 846 864 q 899 608 896 705 q 884 447 901 526 q 831 299 867 368 q 741 171 795 229 q 614 72 686 113 q 451 7 541 30 q 254 -14 361 -15 q 171 -7 208 -13 q 108 11 134 -2 q 67 47 81 24 q 53 105 53 70 q 53 200 53 147 q 53 312 53 252 q 54 435 54 371 q 54 564 54 498 l 22 564 q 1 575 9 564 q -12 605 -7 587 q -17 642 -17 622 q -14 680 -18 663 q -2 709 -10 698 q 19 721 6 721 l 55 721 m 688 559 q 668 712 690 642 q 598 833 647 781 q 472 917 550 885 q 281 957 393 949 l 282 722 l 425 724 q 449 712 438 724 q 465 682 459 700 q 472 643 471 664 q 467 605 473 623 q 448 575 461 587 q 412 564 435 564 l 283 564 l 286 191 q 450 228 376 197 q 576 309 524 259 q 658 422 629 358 q 688 559 687 486 z "},"É":{"ha":821,"x_min":40,"x_max":776,"o":"m 279 701 l 676 702 q 702 684 690 702 q 720 639 713 666 q 727 581 726 612 q 722 523 728 550 q 701 478 715 496 q 663 461 687 460 l 280 465 l 281 217 l 724 217 q 749 200 738 217 q 767 156 761 182 q 775 100 774 130 q 769 44 776 70 q 749 1 763 18 q 711 -16 734 -16 q 609 -15 666 -15 q 488 -15 551 -15 q 360 -15 425 -15 q 235 -16 295 -16 q 149 -11 183 -16 q 93 5 114 -5 q 61 34 71 16 q 46 78 50 52 q 42 138 42 104 q 42 216 42 172 l 40 980 q 40 1058 40 1024 q 44 1118 40 1093 q 59 1162 48 1144 q 91 1191 69 1180 q 146 1207 112 1202 q 233 1212 180 1212 q 358 1212 293 1212 q 486 1211 423 1211 q 607 1211 549 1211 q 709 1212 664 1211 q 747 1195 732 1212 q 767 1151 761 1177 q 773 1094 774 1125 q 765 1037 772 1063 q 747 993 759 1010 q 722 975 736 975 l 279 975 l 279 701 m 418 1445 q 432 1450 422 1451 q 453 1443 441 1449 q 476 1428 465 1437 q 497 1409 488 1419 q 511 1390 507 1399 q 511 1376 515 1381 l 412 1245 q 394 1234 405 1235 q 370 1238 382 1233 q 345 1253 357 1243 q 323 1273 332 1262 q 311 1293 315 1283 q 312 1310 307 1303 l 418 1445 z "},"Ĕ":{"ha":821,"x_min":40,"x_max":776,"o":"m 279 701 l 676 702 q 702 684 690 702 q 720 639 713 666 q 727 581 726 612 q 722 523 728 550 q 701 478 715 496 q 663 461 687 460 l 280 465 l 281 217 l 724 217 q 749 200 738 217 q 767 156 761 182 q 775 100 774 130 q 769 44 776 70 q 749 1 763 18 q 711 -16 734 -16 q 609 -15 666 -15 q 488 -15 551 -15 q 360 -15 425 -15 q 235 -16 295 -16 q 149 -11 183 -16 q 93 5 114 -5 q 61 34 71 16 q 46 78 50 52 q 42 138 42 104 q 42 216 42 172 l 40 980 q 40 1058 40 1024 q 44 1118 40 1093 q 59 1162 48 1144 q 91 1191 69 1180 q 146 1207 112 1202 q 233 1212 180 1212 q 358 1212 293 1212 q 486 1211 423 1211 q 607 1211 549 1211 q 709 1212 664 1211 q 747 1195 732 1212 q 767 1151 761 1177 q 773 1094 774 1125 q 765 1037 772 1063 q 747 993 759 1010 q 722 975 736 975 l 279 975 l 279 701 m 499 1443 q 525 1448 511 1450 q 553 1439 540 1447 q 578 1418 567 1431 q 593 1391 589 1406 q 593 1361 597 1377 q 574 1331 589 1345 q 527 1300 554 1313 q 470 1281 500 1288 q 407 1275 439 1275 q 343 1280 374 1274 q 285 1297 313 1285 q 237 1326 258 1308 q 218 1355 222 1339 q 218 1389 214 1372 q 230 1419 221 1405 q 252 1442 239 1434 q 277 1452 264 1451 q 303 1442 291 1453 q 366 1406 336 1413 q 421 1406 396 1400 q 466 1423 446 1411 q 499 1443 486 1436 z "},"Ě":{"ha":821,"x_min":40,"x_max":776,"o":"m 279 701 l 676 702 q 702 684 690 702 q 720 639 713 666 q 727 581 726 612 q 722 523 728 550 q 701 478 715 496 q 663 461 687 460 l 280 465 l 281 217 l 724 217 q 749 200 738 217 q 767 156 761 182 q 775 100 774 130 q 769 44 776 70 q 749 1 763 18 q 711 -16 734 -16 q 609 -15 666 -15 q 488 -15 551 -15 q 360 -15 425 -15 q 235 -16 295 -16 q 149 -11 183 -16 q 93 5 114 -5 q 61 34 71 16 q 46 78 50 52 q 42 138 42 104 q 42 216 42 172 l 40 980 q 40 1058 40 1024 q 44 1118 40 1093 q 59 1162 48 1144 q 91 1191 69 1180 q 146 1207 112 1202 q 233 1212 180 1212 q 358 1212 293 1212 q 486 1211 423 1211 q 607 1211 549 1211 q 709 1212 664 1211 q 747 1195 732 1212 q 767 1151 761 1177 q 773 1094 774 1125 q 765 1037 772 1063 q 747 993 759 1010 q 722 975 736 975 l 279 975 l 279 701 m 410 1437 l 433 1483 q 446 1490 436 1489 q 470 1488 456 1491 q 497 1481 483 1486 q 523 1470 511 1476 q 540 1458 534 1464 q 544 1446 547 1451 l 475 1314 q 455 1303 472 1307 q 417 1300 437 1300 q 379 1303 397 1300 q 357 1312 361 1306 l 275 1442 q 284 1460 270 1450 q 318 1479 298 1471 q 357 1490 338 1487 q 382 1485 376 1493 l 410 1437 z "},"Ê":{"ha":821,"x_min":40,"x_max":776,"o":"m 279 701 l 676 702 q 702 684 690 702 q 720 639 713 666 q 727 581 726 612 q 722 523 728 550 q 701 478 715 496 q 663 461 687 460 l 280 465 l 281 217 l 724 217 q 749 200 738 217 q 767 156 761 182 q 775 100 774 130 q 769 44 776 70 q 749 1 763 18 q 711 -16 734 -16 q 609 -15 666 -15 q 488 -15 551 -15 q 360 -15 425 -15 q 235 -16 295 -16 q 149 -11 183 -16 q 93 5 114 -5 q 61 34 71 16 q 46 78 50 52 q 42 138 42 104 q 42 216 42 172 l 40 980 q 40 1058 40 1024 q 44 1118 40 1093 q 59 1162 48 1144 q 91 1191 69 1180 q 146 1207 112 1202 q 233 1212 180 1212 q 358 1212 293 1212 q 486 1211 423 1211 q 607 1211 549 1211 q 709 1212 664 1211 q 747 1195 732 1212 q 767 1151 761 1177 q 773 1094 774 1125 q 765 1037 772 1063 q 747 993 759 1010 q 722 975 736 975 l 279 975 l 279 701 m 409 1325 l 383 1268 q 369 1260 380 1261 q 343 1262 358 1259 q 314 1271 329 1265 q 286 1284 298 1277 q 267 1299 274 1292 q 263 1314 260 1307 l 337 1476 q 360 1489 341 1485 q 401 1493 379 1493 q 442 1489 422 1493 q 465 1477 461 1485 l 555 1318 q 552 1303 559 1312 q 534 1288 546 1295 q 508 1273 523 1280 q 479 1262 493 1266 q 453 1259 465 1259 q 439 1267 442 1260 l 409 1325 z "},"Ë":{"ha":821,"x_min":40,"x_max":776,"o":"m 279 701 l 676 702 q 702 684 690 702 q 720 639 713 666 q 727 581 726 612 q 722 523 728 550 q 701 478 715 496 q 663 461 687 460 l 280 465 l 281 217 l 724 217 q 749 200 738 217 q 767 156 761 182 q 775 100 774 130 q 769 44 776 70 q 749 1 763 18 q 711 -16 734 -16 q 609 -15 666 -15 q 488 -15 551 -15 q 360 -15 425 -15 q 235 -16 295 -16 q 149 -11 183 -16 q 93 5 114 -5 q 61 34 71 16 q 46 78 50 52 q 42 138 42 104 q 42 216 42 172 l 40 980 q 40 1058 40 1024 q 44 1118 40 1093 q 59 1162 48 1144 q 91 1191 69 1180 q 146 1207 112 1202 q 233 1212 180 1212 q 358 1212 293 1212 q 486 1211 423 1211 q 607 1211 549 1211 q 709 1212 664 1211 q 747 1195 732 1212 q 767 1151 761 1177 q 773 1094 774 1125 q 765 1037 772 1063 q 747 993 759 1010 q 722 975 736 975 l 279 975 l 279 701 m 315 1277 q 267 1288 286 1276 q 238 1318 248 1299 q 229 1357 229 1336 q 238 1397 229 1379 q 266 1429 247 1416 q 312 1441 284 1441 q 355 1429 337 1441 q 382 1399 372 1417 q 392 1360 391 1381 q 385 1321 393 1339 q 359 1290 376 1303 q 315 1277 342 1278 m 513 1274 q 465 1285 484 1273 q 436 1315 446 1297 q 426 1354 426 1333 q 434 1394 425 1376 q 462 1425 444 1413 q 509 1438 481 1438 q 552 1426 534 1438 q 579 1396 570 1414 q 589 1357 589 1378 q 582 1318 590 1336 q 556 1287 574 1299 q 513 1274 539 1274 z "},"Ė":{"ha":821,"x_min":40,"x_max":776,"o":"m 279 701 l 676 702 q 702 684 690 702 q 720 639 713 666 q 727 581 726 612 q 722 523 728 550 q 701 478 715 496 q 663 461 687 460 l 280 465 l 281 217 l 724 217 q 749 200 738 217 q 767 156 761 182 q 775 100 774 130 q 769 44 776 70 q 749 1 763 18 q 711 -16 734 -16 q 609 -15 666 -15 q 488 -15 551 -15 q 360 -15 425 -15 q 235 -16 295 -16 q 149 -11 183 -16 q 93 5 114 -5 q 61 34 71 16 q 46 78 50 52 q 42 138 42 104 q 42 216 42 172 l 40 980 q 40 1058 40 1024 q 44 1118 40 1093 q 59 1162 48 1144 q 91 1191 69 1180 q 146 1207 112 1202 q 233 1212 180 1212 q 358 1212 293 1212 q 486 1211 423 1211 q 607 1211 549 1211 q 709 1212 664 1211 q 747 1195 732 1212 q 767 1151 761 1177 q 773 1094 774 1125 q 765 1037 772 1063 q 747 993 759 1010 q 722 975 736 975 l 279 975 l 279 701 m 407 1272 q 357 1282 377 1270 q 327 1313 337 1295 q 316 1354 317 1332 q 326 1395 316 1376 q 355 1427 336 1414 q 404 1439 374 1439 q 448 1427 430 1439 q 476 1396 467 1415 q 487 1357 486 1378 q 479 1317 488 1335 q 453 1285 471 1298 q 407 1272 435 1272 z "},"È":{"ha":821,"x_min":40,"x_max":776,"o":"m 279 701 l 676 702 q 702 684 690 702 q 720 639 713 666 q 727 581 726 612 q 722 523 728 550 q 701 478 715 496 q 663 461 687 460 l 280 465 l 281 217 l 724 217 q 749 200 738 217 q 767 156 761 182 q 775 100 774 130 q 769 44 776 70 q 749 1 763 18 q 711 -16 734 -16 q 609 -15 666 -15 q 488 -15 551 -15 q 360 -15 425 -15 q 235 -16 295 -16 q 149 -11 183 -16 q 93 5 114 -5 q 61 34 71 16 q 46 78 50 52 q 42 138 42 104 q 42 216 42 172 l 40 980 q 40 1058 40 1024 q 44 1118 40 1093 q 59 1162 48 1144 q 91 1191 69 1180 q 146 1207 112 1202 q 233 1212 180 1212 q 358 1212 293 1212 q 486 1211 423 1211 q 607 1211 549 1211 q 709 1212 664 1211 q 747 1195 732 1212 q 767 1151 761 1177 q 773 1094 774 1125 q 765 1037 772 1063 q 747 993 759 1010 q 722 975 736 975 l 279 975 l 279 701 m 508 1303 q 509 1287 513 1297 q 496 1266 505 1277 q 475 1246 488 1256 q 450 1232 463 1237 q 426 1228 437 1227 q 408 1239 414 1229 l 309 1370 q 309 1384 304 1375 q 322 1403 313 1393 q 343 1422 332 1413 q 367 1437 355 1431 q 388 1444 378 1442 q 402 1439 398 1445 l 508 1303 z "},"Ē":{"ha":821,"x_min":40,"x_max":776,"o":"m 279 701 l 676 702 q 702 684 690 702 q 720 639 713 666 q 727 581 726 612 q 722 523 728 550 q 701 478 715 496 q 663 461 687 460 l 280 465 l 281 217 l 724 217 q 749 200 738 217 q 767 156 761 182 q 775 100 774 130 q 769 44 776 70 q 749 1 763 18 q 711 -16 734 -16 q 609 -15 666 -15 q 488 -15 551 -15 q 360 -15 425 -15 q 235 -16 295 -16 q 149 -11 183 -16 q 93 5 114 -5 q 61 34 71 16 q 46 78 50 52 q 42 138 42 104 q 42 216 42 172 l 40 980 q 40 1058 40 1024 q 44 1118 40 1093 q 59 1162 48 1144 q 91 1191 69 1180 q 146 1207 112 1202 q 233 1212 180 1212 q 358 1212 293 1212 q 486 1211 423 1211 q 607 1211 549 1211 q 709 1212 664 1211 q 747 1195 732 1212 q 767 1151 761 1177 q 773 1094 774 1125 q 765 1037 772 1063 q 747 993 759 1010 q 722 975 736 975 l 279 975 l 279 701 m 566 1413 q 587 1403 577 1413 q 602 1379 596 1394 q 608 1349 607 1365 q 603 1318 608 1332 q 586 1294 598 1303 q 555 1285 574 1285 l 212 1285 q 194 1295 201 1285 q 183 1318 187 1304 q 178 1348 178 1332 q 181 1378 178 1364 q 191 1401 184 1392 q 210 1411 198 1411 l 566 1413 z "},"Ę":{"ha":821,"x_min":40,"x_max":776,"o":"m 279 701 l 676 702 q 702 684 690 702 q 720 639 713 666 q 727 581 726 612 q 722 523 728 550 q 701 478 715 496 q 663 461 687 460 l 280 465 l 281 217 l 724 217 q 749 200 738 217 q 767 156 761 182 q 775 100 774 130 q 769 44 776 70 q 749 1 763 18 q 711 -16 734 -16 q 669 -15 691 -15 q 623 -14 646 -14 q 614 -56 616 -35 q 619 -96 612 -78 q 643 -128 626 -115 q 693 -146 661 -142 q 709 -159 703 -147 q 715 -188 714 -171 q 713 -223 716 -204 q 702 -257 710 -241 q 683 -282 694 -273 q 654 -288 671 -291 q 553 -251 591 -278 q 498 -186 515 -224 q 484 -104 481 -149 q 506 -14 487 -59 q 369 -15 439 -15 q 235 -16 300 -16 q 149 -11 183 -16 q 93 5 114 -5 q 61 34 71 16 q 46 78 50 52 q 42 138 42 104 q 42 216 42 172 l 40 980 q 40 1058 40 1024 q 44 1118 40 1093 q 59 1162 48 1144 q 91 1191 69 1180 q 146 1207 112 1202 q 233 1212 180 1212 q 358 1212 293 1212 q 486 1211 423 1211 q 607 1211 549 1211 q 709 1212 664 1211 q 747 1195 732 1212 q 767 1151 761 1177 q 773 1094 774 1125 q 765 1037 772 1063 q 747 993 759 1010 q 722 975 736 975 l 279 975 l 279 701 z "},"Ğ":{"ha":972,"x_min":50,"x_max":934,"o":"m 826 687 q 876 672 856 687 q 908 634 896 658 q 925 582 920 611 q 932 525 930 553 q 932 473 934 497 q 930 436 931 450 q 889 234 921 320 q 807 89 858 147 q 687 1 756 31 q 535 -31 618 -28 q 382 -10 451 -33 q 259 54 313 12 q 165 153 205 95 q 100 281 126 211 q 62 431 75 351 q 50 596 50 511 q 85 849 50 735 q 185 1043 121 962 q 339 1168 250 1124 q 536 1213 428 1213 q 650 1200 595 1213 q 750 1160 705 1187 q 831 1095 796 1134 q 884 1006 865 1057 q 879 972 890 989 q 848 939 868 954 q 803 911 828 923 q 753 894 777 899 q 709 891 728 888 q 682 907 689 893 q 618 968 659 947 q 512 983 577 989 q 421 952 465 979 q 342 877 377 925 q 286 760 308 828 q 262 605 264 691 q 279 422 258 500 q 335 294 299 345 q 417 217 370 243 q 514 191 464 192 q 588 206 555 191 q 644 254 621 221 q 680 340 667 288 q 696 465 694 392 l 473 465 q 450 481 460 465 q 435 522 441 498 q 428 575 429 547 q 430 627 427 603 q 441 668 433 652 q 464 684 450 684 l 826 687 m 578 1414 q 604 1419 589 1421 q 632 1410 618 1417 q 656 1389 646 1402 q 672 1362 667 1377 q 672 1332 676 1348 q 652 1301 668 1316 q 606 1271 633 1284 q 549 1252 579 1259 q 486 1245 518 1246 q 422 1251 453 1245 q 364 1267 391 1256 q 316 1297 336 1279 q 297 1326 301 1310 q 296 1359 293 1343 q 309 1390 300 1376 q 330 1413 318 1404 q 356 1423 342 1422 q 382 1413 370 1423 q 445 1377 415 1383 q 500 1376 475 1371 q 545 1394 525 1382 q 578 1414 565 1407 z "},"Ĝ":{"ha":972,"x_min":50,"x_max":934,"o":"m 826 687 q 876 672 856 687 q 908 634 896 658 q 925 582 920 611 q 932 525 930 553 q 932 473 934 497 q 930 436 931 450 q 889 234 921 320 q 807 89 858 147 q 687 1 756 31 q 535 -31 618 -28 q 382 -10 451 -33 q 259 54 313 12 q 165 153 205 95 q 100 281 126 211 q 62 431 75 351 q 50 596 50 511 q 85 849 50 735 q 185 1043 121 962 q 339 1168 250 1124 q 536 1213 428 1213 q 650 1200 595 1213 q 750 1160 705 1187 q 831 1095 796 1134 q 884 1006 865 1057 q 879 972 890 989 q 848 939 868 954 q 803 911 828 923 q 753 894 777 899 q 709 891 728 888 q 682 907 689 893 q 618 968 659 947 q 512 983 577 989 q 421 952 465 979 q 342 877 377 925 q 286 760 308 828 q 262 605 264 691 q 279 422 258 500 q 335 294 299 345 q 417 217 370 243 q 514 191 464 192 q 588 206 555 191 q 644 254 621 221 q 680 340 667 288 q 696 465 694 392 l 473 465 q 450 481 460 465 q 435 522 441 498 q 428 575 429 547 q 430 627 427 603 q 441 668 433 652 q 464 684 450 684 l 826 687 m 485 1325 l 459 1268 q 445 1260 456 1261 q 419 1262 434 1259 q 390 1271 405 1265 q 362 1284 374 1277 q 343 1299 350 1292 q 339 1314 336 1307 l 413 1476 q 436 1489 417 1485 q 477 1493 455 1493 q 518 1489 498 1493 q 541 1477 537 1485 l 631 1318 q 628 1303 635 1312 q 610 1288 622 1295 q 584 1273 599 1280 q 555 1262 569 1266 q 529 1259 541 1259 q 515 1267 518 1260 l 485 1325 z "},"Ģ":{"ha":972,"x_min":50,"x_max":934,"o":"m 826 687 q 876 672 856 687 q 908 634 896 658 q 925 582 920 611 q 932 525 930 553 q 932 473 934 497 q 930 436 931 450 q 889 234 921 320 q 807 89 858 147 q 687 1 756 31 q 535 -31 618 -28 q 382 -10 451 -33 q 259 54 313 12 q 165 153 205 95 q 100 281 126 211 q 62 431 75 351 q 50 596 50 511 q 85 849 50 735 q 185 1043 121 962 q 339 1168 250 1124 q 536 1213 428 1213 q 650 1200 595 1213 q 750 1160 705 1187 q 831 1095 796 1134 q 884 1006 865 1057 q 879 972 890 989 q 848 939 868 954 q 803 911 828 923 q 753 894 777 899 q 709 891 728 888 q 682 907 689 893 q 618 968 659 947 q 512 983 577 989 q 421 952 465 979 q 342 877 377 925 q 286 760 308 828 q 262 605 264 691 q 279 422 258 500 q 335 294 299 345 q 417 217 370 243 q 514 191 464 192 q 588 206 555 191 q 644 254 621 221 q 680 340 667 288 q 696 465 694 392 l 473 465 q 450 481 460 465 q 435 522 441 498 q 428 575 429 547 q 430 627 427 603 q 441 668 433 652 q 464 684 450 684 l 826 687 m 456 -125 q 457 -106 452 -115 q 471 -90 462 -97 q 493 -79 481 -83 q 518 -74 506 -75 q 540 -75 530 -73 q 555 -85 550 -78 q 583 -188 586 -140 q 547 -289 581 -235 q 526 -307 538 -302 q 500 -312 513 -313 q 474 -307 487 -312 q 454 -293 462 -301 q 443 -275 446 -285 q 448 -254 441 -264 q 472 -205 467 -225 q 475 -172 477 -186 q 467 -146 473 -157 q 456 -125 460 -136 z "},"Ġ":{"ha":972,"x_min":50,"x_max":934,"o":"m 826 687 q 876 672 856 687 q 908 634 896 658 q 925 582 920 611 q 932 525 930 553 q 932 473 934 497 q 930 436 931 450 q 889 234 921 320 q 807 89 858 147 q 687 1 756 31 q 535 -31 618 -28 q 382 -10 451 -33 q 259 54 313 12 q 165 153 205 95 q 100 281 126 211 q 62 431 75 351 q 50 596 50 511 q 85 849 50 735 q 185 1043 121 962 q 339 1168 250 1124 q 536 1213 428 1213 q 650 1200 595 1213 q 750 1160 705 1187 q 831 1095 796 1134 q 884 1006 865 1057 q 879 972 890 989 q 848 939 868 954 q 803 911 828 923 q 753 894 777 899 q 709 891 728 888 q 682 907 689 893 q 618 968 659 947 q 512 983 577 989 q 421 952 465 979 q 342 877 377 925 q 286 760 308 828 q 262 605 264 691 q 279 422 258 500 q 335 294 299 345 q 417 217 370 243 q 514 191 464 192 q 588 206 555 191 q 644 254 621 221 q 680 340 667 288 q 696 465 694 392 l 473 465 q 450 481 460 465 q 435 522 441 498 q 428 575 429 547 q 430 627 427 603 q 441 668 433 652 q 464 684 450 684 l 826 687 m 490 1272 q 440 1282 460 1270 q 410 1313 420 1295 q 400 1354 400 1332 q 409 1395 399 1376 q 438 1427 419 1414 q 487 1439 458 1439 q 532 1427 513 1439 q 560 1396 550 1415 q 570 1357 570 1378 q 563 1317 571 1335 q 536 1285 554 1298 q 490 1272 518 1272 z "},"Ħ":{"ha":976,"x_min":-16,"x_max":981,"o":"m 921 967 l 938 967 q 959 958 950 967 q 974 934 968 948 q 980 903 979 920 q 976 872 981 886 q 959 849 970 858 q 927 840 947 840 l 922 840 l 927 31 q 909 5 927 16 q 865 -13 892 -7 q 806 -21 838 -20 q 748 -15 775 -22 q 704 5 722 -9 q 686 43 686 20 q 687 110 686 66 q 687 212 687 154 q 688 339 688 270 q 688 481 688 408 q 592 482 642 481 q 490 483 542 482 q 384 483 437 483 q 279 484 331 484 l 282 24 q 264 -2 282 9 q 220 -20 247 -14 q 161 -27 193 -26 q 103 -22 130 -28 q 59 -1 77 -16 q 41 37 41 13 q 42 110 41 62 q 42 223 42 159 q 43 364 43 288 q 43 520 43 440 q 43 682 43 601 q 43 838 43 764 l 19 838 q 1 848 9 838 q -11 871 -6 857 q -15 901 -15 885 q -13 931 -16 918 q -2 955 -9 945 q 16 964 5 964 l 43 964 q 44 1095 44 1041 q 45 1166 45 1149 q 63 1188 45 1179 q 105 1203 80 1198 q 160 1210 131 1208 q 215 1207 190 1211 q 258 1195 241 1204 q 275 1173 275 1186 l 276 964 l 688 966 q 689 1039 688 1005 q 689 1100 689 1073 q 690 1146 690 1127 q 690 1173 690 1164 q 708 1196 690 1186 q 750 1210 725 1205 q 805 1216 776 1215 q 860 1214 835 1217 q 903 1202 886 1211 q 920 1179 920 1193 l 921 967 m 688 839 l 277 838 l 277 718 l 688 719 l 688 839 z "},"Ĥ":{"ha":976,"x_min":41,"x_max":927,"o":"m 927 31 q 909 5 927 16 q 865 -13 892 -7 q 806 -21 838 -20 q 748 -15 775 -22 q 704 5 722 -9 q 686 43 686 20 q 687 110 686 66 q 687 212 687 154 q 688 339 688 270 q 688 481 688 408 q 592 482 642 481 q 490 483 542 482 q 384 483 437 483 q 279 484 331 484 l 282 24 q 264 -2 282 9 q 220 -20 247 -14 q 161 -27 193 -26 q 103 -22 130 -28 q 59 -1 77 -16 q 41 37 41 13 q 42 104 41 60 q 42 206 42 148 q 43 334 43 264 q 43 477 43 403 q 43 628 43 551 q 43 776 43 704 q 44 913 43 848 q 44 1030 44 979 q 44 1118 44 1082 q 45 1166 45 1153 q 63 1188 45 1179 q 105 1203 80 1198 q 160 1210 131 1208 q 215 1207 190 1211 q 258 1195 241 1204 q 275 1173 275 1186 l 277 718 l 688 719 q 688 877 688 801 q 689 1013 688 952 q 689 1116 689 1074 q 690 1173 690 1158 q 708 1196 690 1186 q 750 1210 725 1205 q 805 1216 776 1215 q 860 1214 835 1217 q 903 1202 886 1211 q 920 1179 920 1193 l 927 31 m 487 1325 l 461 1268 q 447 1260 458 1261 q 421 1262 436 1259 q 392 1271 407 1265 q 364 1284 376 1277 q 345 1299 352 1292 q 341 1314 338 1307 l 415 1476 q 438 1489 419 1485 q 479 1493 457 1493 q 520 1489 500 1493 q 543 1477 539 1485 l 633 1318 q 630 1303 637 1312 q 612 1288 624 1295 q 586 1273 601 1280 q 557 1262 571 1266 q 531 1259 543 1259 q 517 1267 520 1260 l 487 1325 z "},"Í":{"ha":790,"x_min":41,"x_max":754,"o":"m 95 -7 q 69 11 81 -7 q 51 55 58 28 q 44 112 45 81 q 49 169 43 142 q 70 213 56 195 q 108 230 84 230 l 271 229 q 271 342 271 281 q 271 468 271 403 q 272 600 271 533 q 272 730 272 666 q 272 852 272 793 q 272 960 272 911 l 83 962 q 61 979 71 962 q 47 1022 52 996 q 41 1078 42 1048 q 45 1133 41 1107 q 57 1176 49 1159 q 80 1193 66 1193 l 699 1195 q 724 1177 713 1195 q 742 1133 736 1160 q 750 1076 749 1107 q 744 1019 751 1046 q 724 976 738 993 q 686 958 709 958 l 507 959 l 511 228 l 711 227 q 733 209 724 227 q 748 166 743 192 q 753 111 753 140 q 750 55 754 81 q 737 12 746 29 q 715 -5 728 -5 l 95 -7 m 403 1445 q 417 1450 407 1451 q 438 1443 427 1449 q 461 1428 450 1437 q 483 1409 473 1419 q 496 1390 492 1399 q 496 1376 500 1381 l 397 1245 q 379 1234 390 1235 q 355 1238 368 1233 q 330 1253 342 1243 q 309 1273 317 1262 q 296 1293 300 1283 q 297 1310 292 1303 l 403 1445 z "},"Ĭ":{"ha":790,"x_min":41,"x_max":754,"o":"m 95 -7 q 69 11 81 -7 q 51 55 58 28 q 44 112 45 81 q 49 169 43 142 q 70 213 56 195 q 108 230 84 230 l 271 229 q 271 342 271 281 q 271 468 271 403 q 272 600 271 533 q 272 730 272 666 q 272 852 272 793 q 272 960 272 911 l 83 962 q 61 979 71 962 q 47 1022 52 996 q 41 1078 42 1048 q 45 1133 41 1107 q 57 1176 49 1159 q 80 1193 66 1193 l 699 1195 q 724 1177 713 1195 q 742 1133 736 1160 q 750 1076 749 1107 q 744 1019 751 1046 q 724 976 738 993 q 686 958 709 958 l 507 959 l 511 228 l 711 227 q 733 209 724 227 q 748 166 743 192 q 753 111 753 140 q 750 55 754 81 q 737 12 746 29 q 715 -5 728 -5 l 95 -7 m 486 1414 q 512 1419 498 1421 q 541 1410 527 1417 q 565 1389 554 1402 q 580 1362 576 1377 q 581 1332 585 1348 q 561 1301 576 1316 q 514 1271 541 1284 q 457 1252 488 1259 q 394 1245 427 1246 q 331 1251 361 1245 q 272 1267 300 1256 q 224 1297 245 1279 q 205 1326 210 1310 q 205 1359 201 1343 q 217 1390 208 1376 q 239 1413 227 1404 q 264 1423 251 1422 q 290 1413 278 1423 q 353 1377 323 1383 q 408 1376 383 1371 q 453 1394 433 1382 q 486 1414 473 1407 z "},"Î":{"ha":790,"x_min":41,"x_max":754,"o":"m 95 -7 q 69 11 81 -7 q 51 55 58 28 q 44 112 45 81 q 49 169 43 142 q 70 213 56 195 q 108 230 84 230 l 271 229 q 271 342 271 281 q 271 468 271 403 q 272 600 271 533 q 272 730 272 666 q 272 852 272 793 q 272 960 272 911 l 83 962 q 61 979 71 962 q 47 1022 52 996 q 41 1078 42 1048 q 45 1133 41 1107 q 57 1176 49 1159 q 80 1193 66 1193 l 699 1195 q 724 1177 713 1195 q 742 1133 736 1160 q 750 1076 749 1107 q 744 1019 751 1046 q 724 976 738 993 q 686 958 709 958 l 507 959 l 511 228 l 711 227 q 733 209 724 227 q 748 166 743 192 q 753 111 753 140 q 750 55 754 81 q 737 12 746 29 q 715 -5 728 -5 l 95 -7 m 394 1325 l 368 1268 q 354 1260 365 1261 q 329 1262 343 1259 q 299 1271 314 1265 q 271 1284 283 1277 q 252 1299 259 1292 q 248 1314 245 1307 l 322 1476 q 345 1489 326 1485 q 386 1493 364 1493 q 427 1489 408 1493 q 450 1477 446 1485 l 541 1318 q 537 1303 544 1312 q 519 1288 531 1295 q 493 1273 508 1280 q 464 1262 478 1266 q 438 1259 450 1259 q 424 1267 427 1260 l 394 1325 z "},"Ï":{"ha":790,"x_min":41,"x_max":754,"o":"m 95 -7 q 69 11 81 -7 q 51 55 58 28 q 44 112 45 81 q 49 169 43 142 q 70 213 56 195 q 108 230 84 230 l 271 229 q 271 342 271 281 q 271 468 271 403 q 272 600 271 533 q 272 730 272 666 q 272 852 272 793 q 272 960 272 911 l 83 962 q 61 979 71 962 q 47 1022 52 996 q 41 1078 42 1048 q 45 1133 41 1107 q 57 1176 49 1159 q 80 1193 66 1193 l 699 1195 q 724 1177 713 1195 q 742 1133 736 1160 q 750 1076 749 1107 q 744 1019 751 1046 q 724 976 738 993 q 686 958 709 958 l 507 959 l 511 228 l 711 227 q 733 209 724 227 q 748 166 743 192 q 753 111 753 140 q 750 55 754 81 q 737 12 746 29 q 715 -5 728 -5 l 95 -7 m 300 1277 q 252 1288 271 1276 q 223 1318 233 1299 q 214 1357 214 1336 q 223 1397 214 1379 q 251 1429 232 1416 q 297 1441 269 1441 q 340 1429 322 1441 q 367 1399 357 1417 q 377 1360 376 1381 q 370 1321 378 1339 q 344 1290 361 1303 q 300 1277 327 1278 m 498 1274 q 450 1285 469 1273 q 421 1315 431 1297 q 411 1354 411 1333 q 419 1394 410 1376 q 447 1425 429 1413 q 494 1438 466 1438 q 537 1426 519 1438 q 564 1396 555 1414 q 574 1357 574 1378 q 567 1318 575 1336 q 542 1287 559 1299 q 498 1274 524 1274 z "},"İ":{"ha":790,"x_min":41,"x_max":754,"o":"m 95 -7 q 69 11 81 -7 q 51 55 58 28 q 44 112 45 81 q 49 169 43 142 q 70 213 56 195 q 108 230 84 230 l 271 229 q 271 342 271 281 q 271 468 271 403 q 272 600 271 533 q 272 730 272 666 q 272 852 272 793 q 272 960 272 911 l 83 962 q 61 979 71 962 q 47 1022 52 996 q 41 1078 42 1048 q 45 1133 41 1107 q 57 1176 49 1159 q 80 1193 66 1193 l 699 1195 q 724 1177 713 1195 q 742 1133 736 1160 q 750 1076 749 1107 q 744 1019 751 1046 q 724 976 738 993 q 686 958 709 958 l 507 959 l 511 228 l 711 227 q 733 209 724 227 q 748 166 743 192 q 753 111 753 140 q 750 55 754 81 q 737 12 746 29 q 715 -5 728 -5 l 95 -7 m 399 1272 q 349 1282 369 1270 q 319 1313 329 1295 q 308 1354 309 1332 q 318 1395 308 1376 q 347 1427 328 1414 q 395 1439 366 1439 q 440 1427 422 1439 q 468 1396 458 1415 q 479 1357 478 1378 q 471 1317 479 1335 q 445 1285 463 1298 q 399 1272 427 1272 z "},"Ì":{"ha":790,"x_min":41,"x_max":754,"o":"m 95 -7 q 69 11 81 -7 q 51 55 58 28 q 44 112 45 81 q 49 169 43 142 q 70 213 56 195 q 108 230 84 230 l 271 229 q 271 342 271 281 q 271 468 271 403 q 272 600 271 533 q 272 730 272 666 q 272 852 272 793 q 272 960 272 911 l 83 962 q 61 979 71 962 q 47 1022 52 996 q 41 1078 42 1048 q 45 1133 41 1107 q 57 1176 49 1159 q 80 1193 66 1193 l 699 1195 q 724 1177 713 1195 q 742 1133 736 1160 q 750 1076 749 1107 q 744 1019 751 1046 q 724 976 738 993 q 686 958 709 958 l 507 959 l 511 228 l 711 227 q 733 209 724 227 q 748 166 743 192 q 753 111 753 140 q 750 55 754 81 q 737 12 746 29 q 715 -5 728 -5 l 95 -7 m 493 1303 q 494 1287 498 1297 q 481 1266 490 1277 q 460 1246 473 1256 q 435 1232 448 1237 q 411 1228 422 1227 q 393 1239 399 1229 l 294 1370 q 294 1384 290 1375 q 308 1403 298 1393 q 329 1422 317 1413 q 352 1437 340 1431 q 373 1444 363 1442 q 387 1439 383 1445 l 493 1303 z "},"Ī":{"ha":790,"x_min":41,"x_max":754,"o":"m 95 -7 q 69 11 81 -7 q 51 55 58 28 q 44 112 45 81 q 49 169 43 142 q 70 213 56 195 q 108 230 84 230 l 271 229 q 271 342 271 281 q 271 468 271 403 q 272 600 271 533 q 272 730 272 666 q 272 852 272 793 q 272 960 272 911 l 83 962 q 61 979 71 962 q 47 1022 52 996 q 41 1078 42 1048 q 45 1133 41 1107 q 57 1176 49 1159 q 80 1193 66 1193 l 699 1195 q 724 1177 713 1195 q 742 1133 736 1160 q 750 1076 749 1107 q 744 1019 751 1046 q 724 976 738 993 q 686 958 709 958 l 507 959 l 511 228 l 711 227 q 733 209 724 227 q 748 166 743 192 q 753 111 753 140 q 750 55 754 81 q 737 12 746 29 q 715 -5 728 -5 l 95 -7 m 562 1413 q 583 1403 573 1413 q 597 1379 592 1394 q 604 1349 603 1365 q 599 1318 604 1332 q 582 1294 594 1303 q 551 1285 570 1285 l 208 1285 q 190 1295 197 1285 q 179 1318 183 1304 q 174 1348 174 1332 q 177 1378 174 1364 q 187 1401 180 1392 q 205 1411 194 1411 l 562 1413 z "},"Į":{"ha":790,"x_min":41,"x_max":764,"o":"m 665 -5 q 663 -41 662 -23 q 672 -73 664 -58 q 697 -98 680 -87 q 741 -113 713 -109 q 757 -126 751 -114 q 763 -154 762 -138 q 761 -190 764 -171 q 750 -224 758 -208 q 731 -249 743 -239 q 703 -255 719 -258 q 607 -221 644 -245 q 551 -163 570 -197 q 532 -88 533 -129 q 545 -5 531 -47 l 95 -7 q 69 11 81 -7 q 51 55 58 28 q 44 112 45 81 q 49 169 43 142 q 70 213 56 195 q 108 230 84 230 l 271 229 q 271 342 271 281 q 271 468 271 403 q 272 600 271 533 q 272 730 272 666 q 272 852 272 793 q 272 960 272 911 l 83 962 q 61 979 71 962 q 47 1022 52 996 q 41 1078 42 1048 q 45 1133 41 1107 q 57 1176 49 1159 q 80 1193 66 1193 l 699 1195 q 724 1177 713 1195 q 742 1133 736 1160 q 750 1076 749 1107 q 744 1019 751 1046 q 724 976 738 993 q 686 958 709 958 l 507 959 l 511 228 l 711 227 q 733 209 724 227 q 748 166 743 192 q 753 111 753 140 q 750 55 754 81 q 737 12 746 29 q 715 -5 728 -5 l 665 -5 z "},"Ĩ":{"ha":790,"x_min":41,"x_max":754,"o":"m 95 -7 q 69 11 81 -7 q 51 55 58 28 q 44 112 45 81 q 49 169 43 142 q 70 213 56 195 q 108 230 84 230 l 271 229 q 271 342 271 281 q 271 468 271 403 q 272 600 271 533 q 272 730 272 666 q 272 852 272 793 q 272 960 272 911 l 83 962 q 61 979 71 962 q 47 1022 52 996 q 41 1078 42 1048 q 45 1133 41 1107 q 57 1176 49 1159 q 80 1193 66 1193 l 699 1195 q 724 1177 713 1195 q 742 1133 736 1160 q 750 1076 749 1107 q 744 1019 751 1046 q 724 976 738 993 q 686 958 709 958 l 507 959 l 511 228 l 711 227 q 733 209 724 227 q 748 166 743 192 q 753 111 753 140 q 750 55 754 81 q 737 12 746 29 q 715 -5 728 -5 l 95 -7 m 296 1295 q 282 1286 292 1286 q 261 1290 273 1285 q 239 1302 250 1294 q 219 1321 227 1311 q 207 1343 210 1332 q 210 1366 204 1355 q 264 1434 237 1413 q 321 1457 292 1455 q 381 1448 351 1459 q 443 1418 412 1436 q 482 1401 467 1404 q 508 1402 497 1398 q 527 1418 519 1407 q 546 1444 535 1430 q 566 1459 554 1456 q 592 1461 578 1463 q 619 1452 606 1459 q 641 1437 632 1446 q 654 1416 650 1428 q 653 1394 658 1405 q 608 1328 635 1355 q 551 1290 582 1301 q 486 1283 520 1278 q 418 1310 452 1287 q 382 1333 399 1324 q 350 1343 365 1343 q 322 1333 336 1344 q 296 1295 309 1322 z "},"Ĵ":{"ha":746,"x_min":62,"x_max":698,"o":"m 688 1135 q 693 970 690 1052 q 696 815 695 889 q 698 677 698 741 q 696 566 698 613 q 677 331 693 433 q 625 155 661 229 q 514 32 585 75 q 334 -16 444 -12 q 260 -10 299 -17 q 184 9 220 -3 q 119 39 149 21 q 76 77 90 56 q 63 117 64 94 q 68 164 62 140 q 87 210 75 189 q 116 245 100 232 q 153 261 133 259 q 192 250 172 264 q 218 233 205 240 q 244 221 231 226 q 313 208 281 207 q 369 224 344 210 q 411 267 393 239 q 437 333 428 294 q 453 441 449 380 q 460 574 458 502 q 461 681 461 618 q 459 818 460 743 q 454 978 457 893 q 447 1152 451 1063 q 464 1178 446 1166 q 507 1195 481 1189 q 565 1201 534 1201 q 623 1195 596 1202 q 669 1173 650 1187 q 688 1135 687 1158 m 548 1333 l 522 1276 q 508 1268 519 1269 q 483 1270 497 1267 q 453 1278 468 1272 q 425 1292 437 1284 q 406 1307 413 1299 q 402 1321 399 1314 l 476 1484 q 499 1496 480 1492 q 540 1500 518 1500 q 581 1496 562 1500 q 604 1485 600 1493 l 694 1325 q 691 1311 698 1319 q 673 1295 685 1303 q 647 1280 662 1287 q 618 1270 632 1274 q 592 1267 604 1266 q 578 1274 581 1267 l 548 1333 z "},"Ķ":{"ha":969,"x_min":66,"x_max":937,"o":"m 304 766 l 735 1194 q 764 1199 745 1204 q 805 1181 783 1195 q 847 1146 827 1167 q 880 1101 867 1124 q 894 1055 892 1078 q 878 1015 895 1032 l 471 626 l 926 164 q 932 133 937 154 q 912 89 927 113 q 876 43 897 66 q 830 7 854 21 q 784 -10 807 -7 q 745 5 761 -12 l 306 459 l 308 21 q 290 -5 308 7 q 245 -23 273 -16 q 187 -30 218 -29 q 129 -25 156 -31 q 84 -4 102 -18 q 67 34 66 10 q 67 101 67 58 q 68 203 68 145 q 68 331 68 262 q 68 475 68 400 q 69 626 68 549 q 69 774 69 702 q 70 911 69 846 q 70 1028 70 977 q 70 1116 70 1080 q 71 1165 71 1152 q 89 1187 71 1178 q 131 1202 106 1197 q 186 1208 157 1207 q 241 1206 216 1209 q 283 1194 267 1202 q 300 1171 300 1185 l 304 766 m 433 -74 q 433 -55 429 -64 q 448 -39 438 -46 q 470 -28 457 -33 q 494 -23 482 -24 q 516 -24 507 -22 q 531 -35 526 -27 q 559 -137 562 -89 q 523 -238 557 -184 q 502 -256 515 -251 q 476 -261 490 -262 q 451 -256 463 -261 q 430 -242 438 -250 q 419 -224 422 -234 q 424 -203 417 -214 q 448 -155 443 -174 q 452 -121 454 -135 q 443 -96 450 -106 q 433 -74 437 -85 z "},"Ĺ":{"ha":760,"x_min":42,"x_max":721,"o":"m 281 217 l 669 225 q 694 207 683 225 q 712 162 706 189 q 720 104 719 136 q 714 46 721 73 q 694 2 708 20 q 656 -16 680 -16 q 461 -15 566 -14 q 235 -16 357 -16 q 149 -11 183 -16 q 93 5 114 -5 q 61 34 71 16 q 46 78 50 52 q 42 138 42 104 q 42 216 42 172 q 42 342 42 274 q 42 483 42 410 q 43 629 43 555 q 43 773 43 703 q 43 906 43 844 q 44 1019 43 969 q 44 1104 44 1069 q 45 1152 45 1139 q 63 1174 46 1164 q 105 1188 80 1183 q 160 1195 131 1194 q 215 1192 190 1196 q 258 1180 241 1189 q 275 1158 275 1171 l 281 217 m 387 1445 q 401 1450 391 1451 q 422 1443 411 1449 q 446 1428 434 1437 q 467 1409 458 1419 q 480 1390 476 1399 q 481 1376 484 1381 l 382 1245 q 363 1234 374 1235 q 339 1238 352 1233 q 314 1253 326 1243 q 293 1273 302 1262 q 280 1293 284 1283 q 281 1310 277 1303 l 387 1445 z "},"Ľ":{"ha":760,"x_min":42,"x_max":721,"o":"m 410 983 q 417 1012 404 999 q 451 1033 431 1025 q 492 1039 471 1040 q 519 1025 512 1038 q 552 916 554 968 q 511 807 549 865 q 473 784 496 787 q 430 788 450 781 q 399 812 410 796 q 400 844 389 827 q 427 897 421 876 q 431 933 433 918 q 421 960 429 948 q 410 983 414 971 m 281 217 l 669 225 q 694 207 683 225 q 712 162 706 189 q 720 104 719 136 q 714 46 721 73 q 694 2 708 20 q 656 -16 680 -16 q 461 -15 566 -14 q 235 -16 357 -16 q 149 -11 183 -16 q 93 5 114 -5 q 61 34 71 16 q 46 78 50 52 q 42 138 42 104 q 42 216 42 172 q 42 342 42 274 q 42 483 42 410 q 43 629 43 555 q 43 773 43 703 q 43 906 43 844 q 44 1019 43 969 q 44 1104 44 1069 q 45 1152 45 1139 q 63 1174 46 1164 q 105 1188 80 1183 q 160 1195 131 1194 q 215 1192 190 1196 q 258 1180 241 1189 q 275 1158 275 1171 l 281 217 z "},"Ļ":{"ha":760,"x_min":42,"x_max":721,"o":"m 281 217 l 669 225 q 694 207 683 225 q 712 162 706 189 q 720 104 719 136 q 714 46 721 73 q 694 2 708 20 q 656 -16 680 -16 q 461 -15 566 -14 q 235 -16 357 -16 q 149 -11 183 -16 q 93 5 114 -5 q 61 34 71 16 q 46 78 50 52 q 42 138 42 104 q 42 216 42 172 q 42 342 42 274 q 42 483 42 410 q 43 629 43 555 q 43 773 43 703 q 43 906 43 844 q 44 1019 43 969 q 44 1104 44 1069 q 45 1152 45 1139 q 63 1174 46 1164 q 105 1188 80 1183 q 160 1195 131 1194 q 215 1192 190 1196 q 258 1180 241 1189 q 275 1158 275 1171 l 281 217 m 328 -74 q 328 -55 323 -64 q 342 -39 333 -46 q 365 -28 352 -33 q 389 -23 377 -24 q 411 -24 401 -22 q 426 -35 421 -27 q 454 -137 457 -89 q 418 -238 452 -184 q 397 -256 410 -251 q 371 -261 385 -262 q 346 -256 358 -261 q 325 -242 333 -250 q 314 -224 317 -234 q 319 -203 312 -214 q 343 -155 338 -174 q 347 -121 349 -135 q 338 -96 345 -106 q 328 -74 332 -85 z "},"Ŀ":{"ha":760,"x_min":42,"x_max":721,"o":"m 281 217 l 669 225 q 694 207 683 225 q 712 162 706 189 q 720 104 719 136 q 714 46 721 73 q 694 2 708 20 q 656 -16 680 -16 q 461 -15 566 -14 q 235 -16 357 -16 q 149 -11 183 -16 q 93 5 114 -5 q 61 34 71 16 q 46 78 50 52 q 42 138 42 104 q 42 216 42 172 q 42 342 42 274 q 42 483 42 410 q 43 629 43 555 q 43 773 43 703 q 43 906 43 844 q 44 1019 43 969 q 44 1104 44 1069 q 45 1152 45 1139 q 63 1174 46 1164 q 105 1188 80 1183 q 160 1195 131 1194 q 215 1192 190 1196 q 258 1180 241 1189 q 275 1158 275 1171 l 281 217 m 486 624 q 436 635 456 623 q 406 666 416 647 q 396 706 396 684 q 405 747 395 728 q 434 779 415 766 q 483 791 454 791 q 528 779 509 791 q 556 749 546 767 q 566 709 566 730 q 558 669 567 688 q 532 637 550 650 q 486 624 514 625 z "},"Ł":{"ha":760,"x_min":-66,"x_max":721,"o":"m 278 652 l 330 680 q 358 681 343 686 q 387 664 374 676 q 411 633 401 651 q 424 597 421 615 q 418 562 426 578 q 390 534 411 545 l 279 477 l 281 217 l 669 225 q 694 207 683 225 q 712 162 706 189 q 720 104 719 136 q 714 46 721 73 q 694 2 708 20 q 656 -16 680 -16 q 461 -15 566 -14 q 235 -16 357 -16 q 149 -11 183 -16 q 93 5 114 -5 q 61 34 71 16 q 46 78 50 52 q 42 138 42 104 q 42 216 42 172 l 42 357 l 24 347 q -1 348 12 342 q -26 367 -14 354 q -48 397 -39 380 q -62 431 -58 414 q -64 462 -66 448 q -49 482 -61 476 l 42 530 q 42 668 42 599 q 43 803 43 738 q 44 926 43 868 q 44 1030 44 984 q 45 1108 45 1076 q 45 1152 45 1139 q 63 1174 46 1164 q 105 1188 80 1183 q 160 1195 131 1194 q 215 1192 190 1196 q 258 1180 241 1189 q 275 1158 275 1171 l 278 652 z "},"ł":{"ha":327,"x_min":-66,"x_max":426,"o":"m 278 653 l 330 680 q 358 681 343 686 q 387 664 374 676 q 411 633 401 651 q 424 597 421 615 q 418 562 426 578 q 390 534 411 545 l 279 477 l 282 24 q 264 -2 282 9 q 220 -20 247 -14 q 162 -27 193 -26 q 103 -22 130 -28 q 59 -1 77 -16 q 41 37 41 13 l 42 357 l 24 347 q -1 348 12 342 q -26 367 -14 354 q -48 397 -39 380 q -62 431 -58 414 q -64 462 -66 448 q -49 482 -61 476 l 43 530 l 45 1166 q 62 1188 45 1179 q 105 1203 79 1198 q 160 1210 130 1208 q 215 1207 189 1211 q 257 1195 240 1204 q 275 1173 275 1186 l 278 653 z "},"Ń":{"ha":1095,"x_min":41,"x_max":1048,"o":"m 1048 28 q 1035 2 1048 14 q 1000 -18 1021 -9 q 952 -31 979 -26 q 902 -33 926 -35 q 856 -24 877 -32 q 824 -2 835 -17 q 775 65 808 19 q 698 175 743 112 q 601 314 654 238 q 493 469 548 389 q 382 628 437 549 q 277 778 327 707 l 282 24 q 264 -2 282 9 q 220 -20 247 -14 q 162 -27 193 -26 q 103 -22 130 -28 q 59 -1 77 -16 q 41 37 41 13 l 45 1166 q 60 1184 45 1175 q 96 1199 74 1192 q 144 1210 117 1206 q 195 1214 170 1214 q 239 1208 220 1213 q 268 1190 259 1202 l 808 433 q 809 591 808 510 q 809 749 809 671 q 809 896 809 826 q 809 1023 809 966 q 810 1118 810 1079 q 811 1171 810 1156 q 828 1193 811 1183 q 871 1207 846 1202 q 926 1214 897 1213 q 981 1211 956 1215 q 1023 1199 1006 1208 q 1040 1177 1040 1190 l 1048 28 m 555 1445 q 569 1450 559 1451 q 591 1443 579 1449 q 614 1428 602 1437 q 635 1409 626 1419 q 648 1390 644 1399 q 649 1376 652 1381 l 550 1245 q 531 1234 543 1235 q 507 1238 520 1233 q 482 1253 494 1243 q 461 1273 470 1262 q 449 1293 452 1283 q 450 1310 445 1303 l 555 1445 z "},"Ň":{"ha":1095,"x_min":41,"x_max":1048,"o":"m 1048 28 q 1035 2 1048 14 q 1000 -18 1021 -9 q 952 -31 979 -26 q 902 -33 926 -35 q 856 -24 877 -32 q 824 -2 835 -17 q 775 65 808 19 q 698 175 743 112 q 601 314 654 238 q 493 469 548 389 q 382 628 437 549 q 277 778 327 707 l 282 24 q 264 -2 282 9 q 220 -20 247 -14 q 162 -27 193 -26 q 103 -22 130 -28 q 59 -1 77 -16 q 41 37 41 13 l 45 1166 q 60 1184 45 1175 q 96 1199 74 1192 q 144 1210 117 1206 q 195 1214 170 1214 q 239 1208 220 1213 q 268 1190 259 1202 l 808 433 q 809 591 808 510 q 809 749 809 671 q 809 896 809 826 q 809 1023 809 966 q 810 1118 810 1079 q 811 1171 810 1156 q 828 1193 811 1183 q 871 1207 846 1202 q 926 1214 897 1213 q 981 1211 956 1215 q 1023 1199 1006 1208 q 1040 1177 1040 1190 l 1048 28 m 549 1437 l 572 1483 q 585 1490 575 1489 q 609 1488 595 1491 q 636 1481 622 1486 q 662 1470 650 1476 q 679 1458 673 1464 q 683 1446 686 1451 l 614 1314 q 594 1303 611 1307 q 556 1300 576 1300 q 518 1303 536 1300 q 496 1312 500 1306 l 414 1442 q 423 1460 409 1450 q 457 1479 437 1471 q 496 1490 477 1487 q 521 1485 515 1493 l 549 1437 z "},"Ņ":{"ha":1095,"x_min":41,"x_max":1048,"o":"m 1048 28 q 1035 2 1048 14 q 1000 -18 1021 -9 q 952 -31 979 -26 q 902 -33 926 -35 q 856 -24 877 -32 q 824 -2 835 -17 q 775 65 808 19 q 698 175 743 112 q 601 314 654 238 q 493 469 548 389 q 382 628 437 549 q 277 778 327 707 l 282 24 q 264 -2 282 9 q 220 -20 247 -14 q 162 -27 193 -26 q 103 -22 130 -28 q 59 -1 77 -16 q 41 37 41 13 l 45 1166 q 60 1184 45 1175 q 96 1199 74 1192 q 144 1210 117 1206 q 195 1214 170 1214 q 239 1208 220 1213 q 268 1190 259 1202 l 808 433 q 809 591 808 510 q 809 749 809 671 q 809 896 809 826 q 809 1023 809 966 q 810 1118 810 1079 q 811 1171 810 1156 q 828 1193 811 1183 q 871 1207 846 1202 q 926 1214 897 1213 q 981 1211 956 1215 q 1023 1199 1006 1208 q 1040 1177 1040 1190 l 1048 28 m 496 -74 q 496 -55 492 -64 q 511 -39 501 -46 q 533 -28 520 -33 q 557 -23 545 -24 q 579 -24 570 -22 q 594 -35 589 -27 q 623 -137 625 -89 q 586 -238 620 -184 q 565 -256 578 -251 q 539 -261 553 -262 q 514 -256 526 -261 q 493 -242 501 -250 q 483 -224 485 -234 q 487 -203 480 -214 q 511 -155 506 -174 q 515 -121 517 -135 q 506 -96 513 -106 q 496 -74 500 -85 z "},"Ñ":{"ha":1095,"x_min":41,"x_max":1048,"o":"m 1048 28 q 1035 2 1048 14 q 1000 -18 1021 -9 q 952 -31 979 -26 q 902 -33 926 -35 q 856 -24 877 -32 q 824 -2 835 -17 q 775 65 808 19 q 698 175 743 112 q 601 314 654 238 q 493 469 548 389 q 382 628 437 549 q 277 778 327 707 l 282 24 q 264 -2 282 9 q 220 -20 247 -14 q 162 -27 193 -26 q 103 -22 130 -28 q 59 -1 77 -16 q 41 37 41 13 l 45 1166 q 60 1184 45 1175 q 96 1199 74 1192 q 144 1210 117 1206 q 195 1214 170 1214 q 239 1208 220 1213 q 268 1190 259 1202 l 808 433 q 809 591 808 510 q 809 749 809 671 q 809 896 809 826 q 809 1023 809 966 q 810 1118 810 1079 q 811 1171 810 1156 q 828 1193 811 1183 q 871 1207 846 1202 q 926 1214 897 1213 q 981 1211 956 1215 q 1023 1199 1006 1208 q 1040 1177 1040 1190 l 1048 28 m 448 1295 q 435 1286 444 1286 q 414 1290 425 1285 q 391 1302 403 1294 q 371 1321 380 1311 q 360 1343 363 1332 q 363 1366 357 1355 q 417 1434 389 1413 q 474 1457 445 1455 q 534 1448 503 1459 q 595 1418 564 1436 q 635 1401 620 1404 q 661 1402 650 1398 q 680 1418 671 1407 q 699 1444 688 1430 q 719 1459 707 1456 q 745 1461 731 1463 q 771 1452 758 1459 q 794 1437 785 1446 q 807 1416 803 1428 q 806 1394 810 1405 q 761 1328 787 1355 q 704 1290 734 1301 q 639 1283 673 1278 q 571 1310 605 1287 q 534 1333 551 1324 q 503 1343 517 1343 q 475 1333 488 1344 q 448 1295 461 1322 z "},"Ó":{"ha":1164,"x_min":51,"x_max":1116,"o":"m 606 -41 q 405 -8 494 -43 q 249 86 315 26 q 138 227 182 146 q 73 398 94 307 q 51 585 51 489 q 74 771 52 680 q 140 943 96 862 q 251 1084 184 1023 q 404 1180 317 1145 q 600 1215 491 1215 q 786 1179 703 1215 q 931 1084 869 1144 q 1034 944 993 1024 q 1096 773 1075 863 q 1116 588 1116 684 q 1096 403 1116 493 q 1034 232 1075 313 q 932 92 993 152 q 789 -5 871 31 q 606 -41 707 -41 m 570 972 q 439 931 495 967 q 346 840 383 895 q 290 715 309 785 q 273 574 272 646 q 293 434 273 503 q 353 313 313 366 q 451 227 392 259 q 589 193 510 194 q 692 215 646 193 q 773 275 739 237 q 832 365 808 313 q 868 473 856 416 q 880 590 880 530 q 868 707 880 650 q 831 813 856 764 q 770 900 807 863 q 683 956 732 936 q 570 972 633 975 m 590 1445 q 604 1450 594 1451 q 625 1443 614 1449 q 649 1428 637 1437 q 670 1409 661 1419 q 683 1390 679 1399 q 684 1376 687 1381 l 585 1245 q 566 1234 577 1235 q 542 1238 555 1233 q 517 1253 529 1243 q 496 1273 505 1262 q 483 1293 487 1283 q 484 1310 479 1303 l 590 1445 z "},"Ŏ":{"ha":1164,"x_min":51,"x_max":1116,"o":"m 606 -41 q 405 -8 494 -43 q 249 86 315 26 q 138 227 182 146 q 73 398 94 307 q 51 585 51 489 q 74 771 52 680 q 140 943 96 862 q 251 1084 184 1023 q 404 1180 317 1145 q 600 1215 491 1215 q 786 1179 703 1215 q 931 1084 869 1144 q 1034 944 993 1024 q 1096 773 1075 863 q 1116 588 1116 684 q 1096 403 1116 493 q 1034 232 1075 313 q 932 92 993 152 q 789 -5 871 31 q 606 -41 707 -41 m 570 972 q 439 931 495 967 q 346 840 383 895 q 290 715 309 785 q 273 574 272 646 q 293 434 273 503 q 353 313 313 366 q 451 227 392 259 q 589 193 510 194 q 692 215 646 193 q 773 275 739 237 q 832 365 808 313 q 868 473 856 416 q 880 590 880 530 q 868 707 880 650 q 831 813 856 764 q 770 900 807 863 q 683 956 732 936 q 570 972 633 975 m 673 1414 q 700 1419 685 1421 q 728 1410 714 1417 q 752 1389 741 1402 q 767 1362 763 1377 q 768 1332 772 1348 q 748 1301 764 1316 q 702 1271 728 1284 q 644 1252 675 1259 q 581 1245 614 1246 q 518 1251 549 1245 q 459 1267 487 1256 q 412 1297 432 1279 q 393 1326 397 1310 q 392 1359 389 1343 q 405 1390 395 1376 q 426 1413 414 1404 q 452 1423 438 1422 q 477 1413 465 1423 q 541 1377 511 1383 q 595 1376 570 1371 q 641 1394 621 1382 q 673 1414 661 1407 z "},"Ô":{"ha":1164,"x_min":51,"x_max":1116,"o":"m 606 -41 q 405 -8 494 -43 q 249 86 315 26 q 138 227 182 146 q 73 398 94 307 q 51 585 51 489 q 74 771 52 680 q 140 943 96 862 q 251 1084 184 1023 q 404 1180 317 1145 q 600 1215 491 1215 q 786 1179 703 1215 q 931 1084 869 1144 q 1034 944 993 1024 q 1096 773 1075 863 q 1116 588 1116 684 q 1096 403 1116 493 q 1034 232 1075 313 q 932 92 993 152 q 789 -5 871 31 q 606 -41 707 -41 m 570 972 q 439 931 495 967 q 346 840 383 895 q 290 715 309 785 q 273 574 272 646 q 293 434 273 503 q 353 313 313 366 q 451 227 392 259 q 589 193 510 194 q 692 215 646 193 q 773 275 739 237 q 832 365 808 313 q 868 473 856 416 q 880 590 880 530 q 868 707 880 650 q 831 813 856 764 q 770 900 807 863 q 683 956 732 936 q 570 972 633 975 m 581 1325 l 555 1268 q 541 1260 552 1261 q 516 1262 530 1259 q 486 1271 501 1265 q 458 1284 471 1277 q 439 1299 446 1292 q 435 1314 432 1307 l 509 1476 q 532 1489 513 1485 q 573 1493 551 1493 q 614 1489 595 1493 q 637 1477 633 1485 l 728 1318 q 725 1303 731 1312 q 707 1288 718 1295 q 680 1273 695 1280 q 651 1262 665 1266 q 626 1259 637 1259 q 611 1267 614 1260 l 581 1325 z "},"Ö":{"ha":1164,"x_min":51,"x_max":1116,"o":"m 606 -41 q 405 -8 494 -43 q 249 86 315 26 q 138 227 182 146 q 73 398 94 307 q 51 585 51 489 q 74 771 52 680 q 140 943 96 862 q 251 1084 184 1023 q 404 1180 317 1145 q 600 1215 491 1215 q 786 1179 703 1215 q 931 1084 869 1144 q 1034 944 993 1024 q 1096 773 1075 863 q 1116 588 1116 684 q 1096 403 1116 493 q 1034 232 1075 313 q 932 92 993 152 q 789 -5 871 31 q 606 -41 707 -41 m 570 972 q 439 931 495 967 q 346 840 383 895 q 290 715 309 785 q 273 574 272 646 q 293 434 273 503 q 353 313 313 366 q 451 227 392 259 q 589 193 510 194 q 692 215 646 193 q 773 275 739 237 q 832 365 808 313 q 868 473 856 416 q 880 590 880 530 q 868 707 880 650 q 831 813 856 764 q 770 900 807 863 q 683 956 732 936 q 570 972 633 975 m 487 1277 q 439 1288 458 1276 q 410 1318 420 1299 q 401 1357 401 1336 q 410 1397 401 1379 q 438 1429 419 1416 q 484 1441 456 1441 q 527 1429 509 1441 q 554 1399 545 1417 q 564 1360 564 1381 q 557 1321 565 1339 q 531 1290 549 1303 q 487 1277 514 1278 m 685 1274 q 637 1285 656 1273 q 608 1315 618 1297 q 598 1354 598 1333 q 607 1394 597 1376 q 634 1425 616 1413 q 681 1438 653 1438 q 724 1426 707 1438 q 751 1396 742 1414 q 762 1357 761 1378 q 754 1318 762 1336 q 729 1287 746 1299 q 685 1274 711 1274 z "},"Ò":{"ha":1164,"x_min":51,"x_max":1116,"o":"m 606 -41 q 405 -8 494 -43 q 249 86 315 26 q 138 227 182 146 q 73 398 94 307 q 51 585 51 489 q 74 771 52 680 q 140 943 96 862 q 251 1084 184 1023 q 404 1180 317 1145 q 600 1215 491 1215 q 786 1179 703 1215 q 931 1084 869 1144 q 1034 944 993 1024 q 1096 773 1075 863 q 1116 588 1116 684 q 1096 403 1116 493 q 1034 232 1075 313 q 932 92 993 152 q 789 -5 871 31 q 606 -41 707 -41 m 570 972 q 439 931 495 967 q 346 840 383 895 q 290 715 309 785 q 273 574 272 646 q 293 434 273 503 q 353 313 313 366 q 451 227 392 259 q 589 193 510 194 q 692 215 646 193 q 773 275 739 237 q 832 365 808 313 q 868 473 856 416 q 880 590 880 530 q 868 707 880 650 q 831 813 856 764 q 770 900 807 863 q 683 956 732 936 q 570 972 633 975 m 680 1303 q 681 1287 685 1297 q 669 1266 677 1277 q 648 1246 660 1256 q 623 1232 635 1237 q 598 1228 610 1227 q 580 1239 587 1229 l 481 1370 q 481 1384 477 1375 q 495 1403 486 1393 q 516 1422 504 1413 q 539 1437 528 1431 q 561 1444 551 1442 q 574 1439 570 1445 l 680 1303 z "},"Ő":{"ha":1164,"x_min":51,"x_max":1116,"o":"m 606 -41 q 405 -8 494 -43 q 249 86 315 26 q 138 227 182 146 q 73 398 94 307 q 51 585 51 489 q 74 771 52 680 q 140 943 96 862 q 251 1084 184 1023 q 404 1180 317 1145 q 600 1215 491 1215 q 786 1179 703 1215 q 931 1084 869 1144 q 1034 944 993 1024 q 1096 773 1075 863 q 1116 588 1116 684 q 1096 403 1116 493 q 1034 232 1075 313 q 932 92 993 152 q 789 -5 871 31 q 606 -41 707 -41 m 570 972 q 439 931 495 967 q 346 840 383 895 q 290 715 309 785 q 273 574 272 646 q 293 434 273 503 q 353 313 313 366 q 451 227 392 259 q 589 193 510 194 q 692 215 646 193 q 773 275 739 237 q 832 365 808 313 q 868 473 856 416 q 880 590 880 530 q 868 707 880 650 q 831 813 856 764 q 770 900 807 863 q 683 956 732 936 q 570 972 633 975 m 534 1465 q 548 1470 538 1471 q 570 1462 558 1468 q 593 1448 581 1457 q 614 1429 605 1438 q 627 1410 623 1419 q 628 1396 631 1401 l 529 1265 q 510 1254 522 1255 q 486 1258 499 1253 q 461 1272 473 1263 q 440 1292 449 1282 q 428 1313 431 1303 q 429 1329 424 1323 l 534 1465 m 725 1452 q 739 1457 729 1458 q 760 1450 749 1455 q 784 1435 772 1444 q 805 1416 795 1426 q 818 1397 814 1406 q 819 1383 822 1388 l 720 1252 q 701 1241 712 1242 q 677 1245 690 1240 q 652 1259 664 1250 q 631 1279 640 1269 q 618 1300 622 1290 q 619 1316 614 1310 l 725 1452 z "},"Ō":{"ha":1164,"x_min":51,"x_max":1116,"o":"m 606 -41 q 405 -8 494 -43 q 249 86 315 26 q 138 227 182 146 q 73 398 94 307 q 51 585 51 489 q 74 771 52 680 q 140 943 96 862 q 251 1084 184 1023 q 404 1180 317 1145 q 600 1215 491 1215 q 786 1179 703 1215 q 931 1084 869 1144 q 1034 944 993 1024 q 1096 773 1075 863 q 1116 588 1116 684 q 1096 403 1116 493 q 1034 232 1075 313 q 932 92 993 152 q 789 -5 871 31 q 606 -41 707 -41 m 570 972 q 439 931 495 967 q 346 840 383 895 q 290 715 309 785 q 273 574 272 646 q 293 434 273 503 q 353 313 313 366 q 451 227 392 259 q 589 193 510 194 q 692 215 646 193 q 773 275 739 237 q 832 365 808 313 q 868 473 856 416 q 880 590 880 530 q 868 707 880 650 q 831 813 856 764 q 770 900 807 863 q 683 956 732 936 q 570 972 633 975 m 749 1413 q 770 1403 760 1413 q 785 1379 779 1394 q 791 1349 790 1365 q 786 1318 791 1332 q 769 1294 781 1303 q 738 1285 758 1285 l 395 1285 q 377 1295 385 1285 q 366 1318 370 1304 q 361 1348 361 1332 q 364 1378 361 1364 q 374 1401 367 1392 q 393 1411 381 1411 l 749 1413 z "},"Ø":{"ha":1164,"x_min":50,"x_max":1118,"o":"m 901 1110 q 1016 975 969 1054 q 1087 804 1063 895 q 1115 615 1112 713 q 1100 424 1118 517 q 1041 246 1081 330 q 939 99 1000 162 q 793 -3 877 35 q 606 -41 710 -41 q 554 -39 578 -41 l 553 -44 q 529 -63 549 -58 q 483 -68 509 -69 q 427 -59 456 -66 q 373 -39 397 -52 q 335 -8 349 -26 q 324 31 321 9 q 208 129 258 71 q 123 256 157 186 q 71 405 89 326 q 52 563 54 483 q 64 723 50 644 q 108 876 78 803 q 184 1010 138 948 q 291 1118 230 1072 q 430 1189 353 1163 q 600 1215 507 1215 q 646 1212 623 1215 q 691 1206 669 1210 q 719 1218 699 1216 q 764 1218 739 1221 q 817 1207 789 1215 q 866 1189 844 1200 q 901 1166 888 1179 q 910 1141 913 1154 l 901 1110 m 570 972 q 461 943 509 968 q 376 879 412 918 q 317 789 340 840 q 282 681 293 738 q 273 566 271 625 q 288 451 274 507 q 330 348 302 396 q 397 264 357 300 l 616 970 q 593 972 605 972 q 570 972 582 972 m 625 196 q 734 240 687 205 q 813 330 781 276 q 862 449 845 383 q 880 583 879 515 q 865 718 880 652 q 819 837 850 783 l 625 196 z "},"Ǿ":{"ha":1164,"x_min":50,"x_max":1119,"o":"m 894 1116 q 1012 981 964 1060 q 1086 811 1060 903 q 1115 621 1112 720 q 1101 429 1119 523 q 1042 250 1082 334 q 940 100 1002 165 q 794 -2 878 36 q 606 -41 711 -40 q 575 -41 590 -41 q 545 -39 560 -40 l 545 -40 q 522 -59 541 -54 q 475 -64 502 -65 q 419 -55 449 -62 q 366 -35 390 -47 q 327 -4 342 -22 q 317 35 313 14 q 202 135 252 76 q 120 263 153 193 q 70 410 87 332 q 52 568 53 488 q 65 728 50 648 q 110 879 79 807 q 185 1012 140 950 q 293 1119 231 1074 q 431 1189 354 1164 q 600 1215 507 1215 q 642 1213 621 1215 q 682 1207 662 1211 q 707 1222 687 1219 q 752 1223 726 1225 q 806 1212 778 1220 q 857 1194 834 1204 q 893 1171 880 1183 q 903 1145 906 1158 l 894 1116 m 570 972 q 461 944 509 968 q 378 881 414 920 q 318 792 342 842 q 283 686 294 741 q 272 572 271 630 q 287 458 273 513 q 326 355 300 404 q 390 271 351 307 l 608 971 q 589 972 598 972 q 570 972 579 972 m 616 195 q 704 221 664 199 q 775 277 744 243 q 827 356 806 311 q 862 450 849 400 q 878 553 875 500 q 876 657 882 606 q 854 758 869 709 q 812 846 838 806 l 616 195 m 590 1445 q 604 1450 594 1451 q 625 1443 614 1449 q 649 1428 637 1437 q 670 1409 661 1419 q 683 1390 679 1399 q 684 1376 687 1381 l 585 1245 q 566 1234 577 1235 q 542 1238 555 1233 q 517 1253 529 1243 q 496 1273 505 1262 q 483 1293 487 1283 q 484 1310 479 1303 l 590 1445 z "},"Õ":{"ha":1164,"x_min":51,"x_max":1116,"o":"m 606 -41 q 405 -8 494 -43 q 249 86 315 26 q 138 227 182 146 q 73 398 94 307 q 51 585 51 489 q 74 771 52 680 q 140 943 96 862 q 251 1084 184 1023 q 404 1180 317 1145 q 600 1215 491 1215 q 786 1179 703 1215 q 931 1084 869 1144 q 1034 944 993 1024 q 1096 773 1075 863 q 1116 588 1116 684 q 1096 403 1116 493 q 1034 232 1075 313 q 932 92 993 152 q 789 -5 871 31 q 606 -41 707 -41 m 570 972 q 439 931 495 967 q 346 840 383 895 q 290 715 309 785 q 273 574 272 646 q 293 434 273 503 q 353 313 313 366 q 451 227 392 259 q 589 193 510 194 q 692 215 646 193 q 773 275 739 237 q 832 365 808 313 q 868 473 856 416 q 880 590 880 530 q 868 707 880 650 q 831 813 856 764 q 770 900 807 863 q 683 956 732 936 q 570 972 633 975 m 448 1295 q 434 1286 444 1286 q 413 1290 425 1285 q 391 1302 402 1294 q 371 1321 379 1311 q 359 1343 362 1332 q 362 1366 356 1355 q 416 1434 389 1413 q 473 1457 444 1455 q 533 1448 503 1459 q 595 1418 564 1436 q 634 1401 619 1404 q 660 1402 649 1398 q 679 1418 671 1407 q 698 1444 687 1430 q 718 1459 706 1456 q 744 1461 730 1463 q 771 1452 758 1459 q 793 1437 784 1446 q 806 1416 802 1428 q 805 1394 810 1405 q 760 1328 787 1355 q 703 1290 734 1301 q 638 1283 672 1278 q 570 1310 604 1287 q 534 1333 551 1324 q 502 1343 517 1343 q 474 1333 488 1344 q 448 1295 460 1322 z "},"Œ":{"ha":1337,"x_min":64,"x_max":1293,"o":"m 796 701 l 1193 702 q 1219 684 1208 702 q 1237 639 1230 666 q 1244 581 1243 612 q 1239 523 1245 550 q 1218 478 1232 496 q 1180 461 1204 460 l 797 465 l 798 217 l 1240 217 q 1266 200 1255 217 q 1284 156 1278 182 q 1292 100 1291 130 q 1286 44 1293 70 q 1265 1 1280 18 q 1227 -16 1251 -16 q 1121 -15 1183 -15 q 991 -15 1059 -14 q 853 -16 923 -15 q 723 -17 783 -16 q 440 19 564 -19 q 233 135 317 56 q 106 334 149 213 q 66 619 64 454 q 113 864 68 755 q 245 1051 159 974 q 458 1170 332 1128 q 749 1212 585 1212 q 875 1212 810 1212 q 1003 1211 940 1211 q 1123 1211 1066 1211 q 1225 1212 1181 1211 q 1263 1195 1249 1212 q 1284 1151 1278 1177 q 1290 1094 1291 1125 q 1282 1037 1289 1063 q 1264 993 1276 1010 q 1238 975 1253 975 l 795 975 l 796 701 m 557 975 q 440 928 490 964 q 356 838 389 891 q 305 721 322 785 q 288 588 288 656 q 304 456 288 521 q 355 338 321 391 q 439 250 389 286 q 559 203 490 214 l 557 975 z "},"Ŕ":{"ha":943,"x_min":54,"x_max":897,"o":"m 167 1213 q 309 1222 232 1221 q 465 1215 387 1224 q 617 1182 543 1205 q 748 1117 690 1159 q 843 1013 806 1076 q 884 862 880 951 q 872 747 886 798 q 831 656 858 696 q 767 587 804 616 q 687 537 730 558 q 597 504 644 517 q 507 484 551 490 l 886 149 q 895 119 897 140 q 880 73 892 98 q 848 23 867 47 q 807 -19 829 -2 q 763 -40 785 -35 q 722 -28 741 -44 l 290 367 l 295 12 q 277 -14 295 -3 q 233 -32 260 -26 q 174 -40 205 -39 q 116 -34 143 -41 q 72 -14 90 -28 q 54 24 54 1 q 55 111 54 53 q 57 246 56 169 q 58 413 58 323 q 59 595 59 503 q 59 777 60 688 q 58 942 59 867 q 61 1038 57 991 q 77 1123 64 1085 q 111 1185 89 1160 q 167 1213 132 1209 m 299 704 q 332 701 311 702 q 381 701 354 700 q 440 705 409 701 q 502 716 471 709 q 560 736 532 724 q 608 766 587 748 q 639 809 628 784 q 647 867 650 834 q 627 925 644 900 q 582 967 609 949 q 519 994 554 984 q 446 1009 484 1004 q 369 1013 408 1014 q 296 1007 330 1012 l 299 704 m 479 1445 q 493 1450 484 1451 q 515 1443 503 1449 q 538 1428 526 1437 q 559 1409 550 1419 q 572 1390 568 1399 q 573 1376 576 1381 l 474 1245 q 455 1234 467 1235 q 431 1238 444 1233 q 406 1253 418 1243 q 385 1273 394 1262 q 373 1293 376 1283 q 374 1310 369 1303 l 479 1445 z "},"Ř":{"ha":943,"x_min":54,"x_max":897,"o":"m 167 1213 q 309 1222 232 1221 q 465 1215 387 1224 q 617 1182 543 1205 q 748 1117 690 1159 q 843 1013 806 1076 q 884 862 880 951 q 872 747 886 798 q 831 656 858 696 q 767 587 804 616 q 687 537 730 558 q 597 504 644 517 q 507 484 551 490 l 886 149 q 895 119 897 140 q 880 73 892 98 q 848 23 867 47 q 807 -19 829 -2 q 763 -40 785 -35 q 722 -28 741 -44 l 290 367 l 295 12 q 277 -14 295 -3 q 233 -32 260 -26 q 174 -40 205 -39 q 116 -34 143 -41 q 72 -14 90 -28 q 54 24 54 1 q 55 111 54 53 q 57 246 56 169 q 58 413 58 323 q 59 595 59 503 q 59 777 60 688 q 58 942 59 867 q 61 1038 57 991 q 77 1123 64 1085 q 111 1185 89 1160 q 167 1213 132 1209 m 299 704 q 332 701 311 702 q 381 701 354 700 q 440 705 409 701 q 502 716 471 709 q 560 736 532 724 q 608 766 587 748 q 639 809 628 784 q 647 867 650 834 q 627 925 644 900 q 582 967 609 949 q 519 994 554 984 q 446 1009 484 1004 q 369 1013 408 1014 q 296 1007 330 1012 l 299 704 m 473 1437 l 496 1483 q 509 1490 499 1489 q 533 1488 519 1491 q 560 1481 546 1486 q 586 1470 574 1476 q 603 1458 597 1464 q 607 1446 610 1451 l 538 1314 q 518 1303 535 1307 q 480 1300 500 1300 q 442 1303 460 1300 q 420 1312 425 1306 l 338 1442 q 347 1460 333 1450 q 381 1479 361 1471 q 420 1490 401 1487 q 445 1485 439 1493 l 473 1437 z "},"Ŗ":{"ha":943,"x_min":54,"x_max":897,"o":"m 167 1213 q 309 1222 232 1221 q 465 1215 387 1224 q 617 1182 543 1205 q 748 1117 690 1159 q 843 1013 806 1076 q 884 862 880 951 q 872 747 886 798 q 831 656 858 696 q 767 587 804 616 q 687 537 730 558 q 597 504 644 517 q 507 484 551 490 l 886 149 q 895 119 897 140 q 880 73 892 98 q 848 23 867 47 q 807 -19 829 -2 q 763 -40 785 -35 q 722 -28 741 -44 l 290 367 l 295 12 q 277 -14 295 -3 q 233 -32 260 -26 q 174 -40 205 -39 q 116 -34 143 -41 q 72 -14 90 -28 q 54 24 54 1 q 55 111 54 53 q 57 246 56 169 q 58 413 58 323 q 59 595 59 503 q 59 777 60 688 q 58 942 59 867 q 61 1038 57 991 q 77 1123 64 1085 q 111 1185 89 1160 q 167 1213 132 1209 m 299 704 q 332 701 311 702 q 381 701 354 700 q 440 705 409 701 q 502 716 471 709 q 560 736 532 724 q 608 766 587 748 q 639 809 628 784 q 647 867 650 834 q 627 925 644 900 q 582 967 609 949 q 519 994 554 984 q 446 1009 484 1004 q 369 1013 408 1014 q 296 1007 330 1012 l 299 704 m 420 -74 q 420 -55 416 -64 q 435 -39 425 -46 q 457 -28 444 -33 q 481 -23 469 -24 q 504 -24 494 -22 q 518 -35 513 -27 q 547 -137 549 -89 q 510 -238 544 -184 q 489 -256 502 -251 q 464 -261 477 -262 q 438 -256 450 -261 q 417 -242 425 -250 q 407 -224 409 -234 q 411 -203 404 -214 q 435 -155 430 -174 q 439 -121 441 -135 q 430 -96 437 -106 q 420 -74 424 -85 z "},"Ś":{"ha":810,"x_min":33,"x_max":776,"o":"m 764 290 q 739 151 764 210 q 670 52 713 92 q 570 -7 627 13 q 454 -26 514 -26 q 338 -10 397 -26 q 226 36 280 6 q 125 109 172 66 q 43 204 78 151 q 38 238 33 218 q 56 277 43 257 q 89 315 70 297 q 128 343 109 332 q 164 356 147 355 q 190 346 181 358 q 242 286 213 313 q 302 239 271 259 q 366 207 333 218 q 429 193 398 195 q 475 198 456 191 q 505 220 494 206 q 520 252 515 234 q 524 290 524 271 q 517 329 523 310 q 502 364 511 349 q 448 431 482 397 q 371 497 413 464 q 284 565 330 531 q 198 635 239 600 q 124 709 157 671 q 72 786 90 746 q 45 922 41 853 q 81 1050 48 991 q 142 1132 106 1098 q 221 1185 178 1165 q 311 1212 263 1205 q 407 1214 358 1219 q 503 1192 455 1209 q 593 1147 550 1175 q 636 1115 612 1135 q 686 1073 661 1095 q 732 1028 711 1050 q 764 989 753 1006 q 770 950 776 970 q 748 912 764 930 q 707 878 731 893 q 659 854 683 863 q 615 845 635 846 q 587 854 595 844 q 497 938 545 906 q 406 981 450 969 q 330 984 363 993 q 283 947 296 976 q 281 897 273 924 q 313 841 290 870 q 369 781 336 812 q 442 717 403 749 q 522 652 481 685 q 600 586 563 618 q 668 520 637 553 q 717 456 699 487 q 751 376 739 417 q 764 290 764 336 m 412 1445 q 426 1450 416 1451 q 448 1443 436 1449 q 471 1428 459 1437 q 492 1409 483 1419 q 505 1390 501 1399 q 506 1376 509 1381 l 407 1245 q 388 1234 399 1235 q 364 1238 377 1233 q 339 1253 351 1243 q 318 1273 327 1262 q 306 1293 309 1283 q 307 1310 302 1303 l 412 1445 z "},"Š":{"ha":810,"x_min":33,"x_max":776,"o":"m 764 290 q 739 151 764 210 q 670 52 713 92 q 570 -7 627 13 q 454 -26 514 -26 q 338 -10 397 -26 q 226 36 280 6 q 125 109 172 66 q 43 204 78 151 q 38 238 33 218 q 56 277 43 257 q 89 315 70 297 q 128 343 109 332 q 164 356 147 355 q 190 346 181 358 q 242 286 213 313 q 302 239 271 259 q 366 207 333 218 q 429 193 398 195 q 475 198 456 191 q 505 220 494 206 q 520 252 515 234 q 524 290 524 271 q 517 329 523 310 q 502 364 511 349 q 448 431 482 397 q 371 497 413 464 q 284 565 330 531 q 198 635 239 600 q 124 709 157 671 q 72 786 90 746 q 45 922 41 853 q 81 1050 48 991 q 142 1132 106 1098 q 221 1185 178 1165 q 311 1212 263 1205 q 407 1214 358 1219 q 503 1192 455 1209 q 593 1147 550 1175 q 636 1115 612 1135 q 686 1073 661 1095 q 732 1028 711 1050 q 764 989 753 1006 q 770 950 776 970 q 748 912 764 930 q 707 878 731 893 q 659 854 683 863 q 615 845 635 846 q 587 854 595 844 q 497 938 545 906 q 406 981 450 969 q 330 984 363 993 q 283 947 296 976 q 281 897 273 924 q 313 841 290 870 q 369 781 336 812 q 442 717 403 749 q 522 652 481 685 q 600 586 563 618 q 668 520 637 553 q 717 456 699 487 q 751 376 739 417 q 764 290 764 336 m 406 1437 l 430 1483 q 443 1490 433 1489 q 466 1488 453 1491 q 494 1481 479 1486 q 519 1470 508 1476 q 537 1458 530 1464 q 541 1446 543 1451 l 472 1314 q 451 1303 469 1307 q 414 1300 434 1300 q 376 1303 393 1300 q 354 1312 358 1306 l 271 1442 q 281 1460 267 1450 q 315 1479 295 1471 q 354 1490 335 1487 q 378 1485 373 1493 l 406 1437 z "},"Ş":{"ha":810,"x_min":33,"x_max":776,"o":"m 361 -267 q 339 -237 342 -255 q 342 -205 336 -220 q 360 -183 349 -191 q 381 -181 372 -175 q 414 -199 395 -191 q 454 -209 434 -207 q 490 -204 473 -211 q 515 -178 507 -198 q 510 -160 519 -168 q 484 -147 501 -153 q 444 -139 467 -142 q 396 -135 420 -136 q 386 -134 391 -135 q 377 -128 380 -132 q 371 -115 373 -123 q 370 -91 369 -106 l 372 -18 q 278 11 324 -9 q 189 59 231 31 q 109 124 146 87 q 43 204 71 161 q 38 238 33 218 q 56 277 43 257 q 89 315 70 297 q 128 343 109 332 q 164 356 147 355 q 190 346 181 358 q 242 286 213 313 q 302 239 271 259 q 366 207 333 218 q 429 193 398 195 q 475 198 456 191 q 505 220 494 206 q 520 252 515 234 q 524 290 524 271 q 517 329 523 310 q 502 364 511 349 q 448 431 482 397 q 371 497 413 464 q 284 565 330 531 q 198 635 239 600 q 124 709 157 671 q 72 786 90 746 q 45 922 41 853 q 81 1050 48 991 q 142 1132 106 1098 q 221 1185 178 1165 q 311 1212 263 1205 q 407 1214 358 1219 q 503 1192 455 1209 q 593 1147 550 1175 q 636 1115 612 1135 q 686 1073 661 1095 q 732 1028 711 1050 q 764 989 753 1006 q 770 950 776 970 q 748 912 764 930 q 707 878 731 893 q 659 854 683 863 q 615 845 635 846 q 587 854 595 844 q 497 938 545 906 q 406 981 450 969 q 330 984 363 993 q 283 947 296 976 q 281 897 273 924 q 313 841 290 870 q 369 781 336 812 q 442 717 403 749 q 522 652 481 685 q 600 586 563 618 q 668 520 637 553 q 717 456 699 487 q 751 376 739 417 q 764 290 764 336 q 740 154 764 212 q 674 57 715 96 q 579 -3 633 18 q 467 -26 526 -24 q 465 -38 466 -31 q 464 -51 464 -45 q 464 -63 463 -58 q 468 -73 465 -69 q 582 -106 541 -77 q 623 -183 623 -136 q 608 -230 622 -210 q 573 -263 595 -250 q 523 -284 551 -277 q 466 -293 495 -292 q 410 -288 437 -294 q 361 -269 382 -281 l 361 -267 l 361 -267 z "},"Ŝ":{"ha":810,"x_min":33,"x_max":776,"o":"m 764 290 q 739 151 764 210 q 670 52 713 92 q 570 -7 627 13 q 454 -26 514 -26 q 338 -10 397 -26 q 226 36 280 6 q 125 109 172 66 q 43 204 78 151 q 38 238 33 218 q 56 277 43 257 q 89 315 70 297 q 128 343 109 332 q 164 356 147 355 q 190 346 181 358 q 242 286 213 313 q 302 239 271 259 q 366 207 333 218 q 429 193 398 195 q 475 198 456 191 q 505 220 494 206 q 520 252 515 234 q 524 290 524 271 q 517 329 523 310 q 502 364 511 349 q 448 431 482 397 q 371 497 413 464 q 284 565 330 531 q 198 635 239 600 q 124 709 157 671 q 72 786 90 746 q 45 922 41 853 q 81 1050 48 991 q 142 1132 106 1098 q 221 1185 178 1165 q 311 1212 263 1205 q 407 1214 358 1219 q 503 1192 455 1209 q 593 1147 550 1175 q 636 1115 612 1135 q 686 1073 661 1095 q 732 1028 711 1050 q 764 989 753 1006 q 770 950 776 970 q 748 912 764 930 q 707 878 731 893 q 659 854 683 863 q 615 845 635 846 q 587 854 595 844 q 497 938 545 906 q 406 981 450 969 q 330 984 363 993 q 283 947 296 976 q 281 897 273 924 q 313 841 290 870 q 369 781 336 812 q 442 717 403 749 q 522 652 481 685 q 600 586 563 618 q 668 520 637 553 q 717 456 699 487 q 751 376 739 417 q 764 290 764 336 m 404 1325 l 378 1268 q 363 1260 374 1261 q 338 1262 353 1259 q 308 1271 323 1265 q 281 1284 293 1277 q 261 1299 269 1292 q 258 1314 254 1307 l 332 1476 q 355 1489 336 1485 q 395 1493 374 1493 q 436 1489 417 1493 q 460 1477 456 1485 l 550 1318 q 547 1303 553 1312 q 529 1288 541 1295 q 503 1273 517 1280 q 473 1262 488 1266 q 448 1259 459 1259 q 433 1267 437 1260 l 404 1325 z "},"Ș":{"ha":810,"x_min":33,"x_max":776,"o":"m 764 290 q 739 151 764 210 q 670 52 713 92 q 570 -7 627 13 q 454 -26 514 -26 q 338 -10 397 -26 q 226 36 280 6 q 125 109 172 66 q 43 204 78 151 q 38 238 33 218 q 56 277 43 257 q 89 315 70 297 q 128 343 109 332 q 164 356 147 355 q 190 346 181 358 q 242 286 213 313 q 302 239 271 259 q 366 207 333 218 q 429 193 398 195 q 475 198 456 191 q 505 220 494 206 q 520 252 515 234 q 524 290 524 271 q 517 329 523 310 q 502 364 511 349 q 448 431 482 397 q 371 497 413 464 q 284 565 330 531 q 198 635 239 600 q 124 709 157 671 q 72 786 90 746 q 45 922 41 853 q 81 1050 48 991 q 142 1132 106 1098 q 221 1185 178 1165 q 311 1212 263 1205 q 407 1214 358 1219 q 503 1192 455 1209 q 593 1147 550 1175 q 636 1115 612 1135 q 686 1073 661 1095 q 732 1028 711 1050 q 764 989 753 1006 q 770 950 776 970 q 748 912 764 930 q 707 878 731 893 q 659 854 683 863 q 615 845 635 846 q 587 854 595 844 q 497 938 545 906 q 406 981 450 969 q 330 984 363 993 q 283 947 296 976 q 281 897 273 924 q 313 841 290 870 q 369 781 336 812 q 442 717 403 749 q 522 652 481 685 q 600 586 563 618 q 668 520 637 553 q 717 456 699 487 q 751 376 739 417 q 764 290 764 336 m 397 -106 q 397 -88 393 -97 q 412 -72 402 -79 q 434 -61 421 -65 q 458 -55 446 -56 q 480 -57 471 -54 q 495 -67 490 -60 q 524 -169 526 -121 q 487 -271 521 -217 q 466 -289 479 -283 q 440 -294 454 -294 q 415 -288 427 -294 q 394 -275 402 -283 q 384 -256 386 -267 q 388 -236 381 -246 q 412 -187 407 -207 q 416 -153 418 -168 q 407 -128 414 -139 q 397 -106 401 -117 z "},"Ŧ":{"ha":783,"x_min":41,"x_max":751,"o":"m 272 854 l 272 960 l 83 962 q 61 979 71 962 q 47 1022 52 996 q 41 1078 42 1048 q 45 1133 41 1107 q 57 1176 49 1159 q 80 1193 66 1193 l 699 1195 q 724 1177 713 1195 q 742 1133 736 1160 q 750 1076 749 1107 q 744 1019 751 1046 q 724 976 738 993 q 686 958 709 958 l 507 959 l 507 855 l 565 856 q 586 846 576 856 q 601 823 595 837 q 607 792 606 808 q 603 761 608 775 q 586 738 597 747 q 554 728 574 728 l 508 728 l 511 24 q 494 -2 511 9 q 449 -20 476 -14 q 391 -27 422 -26 q 333 -22 359 -28 q 288 -1 306 -16 q 271 37 270 13 q 271 90 271 52 q 271 182 271 128 q 271 301 271 235 q 271 438 271 367 q 272 584 271 510 q 272 728 272 659 l 212 728 q 194 738 201 728 q 182 761 186 747 q 177 791 178 775 q 180 822 177 808 q 190 845 183 836 q 209 854 197 854 l 272 854 z "},"Ť":{"ha":783,"x_min":41,"x_max":751,"o":"m 699 1195 q 724 1177 713 1195 q 742 1133 736 1160 q 750 1076 749 1107 q 744 1019 751 1046 q 724 976 738 993 q 686 958 709 958 l 507 959 l 511 24 q 494 -2 511 9 q 449 -20 476 -14 q 391 -27 422 -26 q 333 -22 359 -28 q 288 -1 306 -16 q 271 37 270 13 q 271 90 271 52 q 271 179 271 127 q 271 297 271 232 q 272 432 271 361 q 272 576 272 503 q 272 718 272 649 q 272 849 272 787 q 272 960 272 911 l 83 962 q 61 979 71 962 q 47 1022 52 996 q 41 1078 42 1048 q 45 1133 41 1107 q 57 1176 49 1159 q 80 1193 66 1193 l 699 1195 m 393 1437 l 416 1483 q 429 1490 419 1489 q 453 1488 439 1491 q 480 1481 466 1486 q 506 1470 494 1476 q 523 1458 517 1464 q 527 1446 530 1451 l 458 1314 q 438 1303 455 1307 q 400 1300 420 1300 q 362 1303 380 1300 q 340 1312 345 1306 l 258 1442 q 267 1460 253 1450 q 301 1479 281 1471 q 340 1490 321 1487 q 365 1485 359 1493 l 393 1437 z "},"Ţ":{"ha":783,"x_min":41,"x_max":751,"o":"m 699 1195 q 724 1177 713 1195 q 742 1133 736 1160 q 750 1076 749 1107 q 744 1019 751 1046 q 724 976 738 993 q 686 958 709 958 l 507 959 l 511 24 q 494 -2 511 9 q 449 -20 476 -14 q 391 -27 422 -26 q 333 -22 359 -28 q 288 -1 306 -16 q 271 37 270 13 q 271 90 271 52 q 271 179 271 127 q 271 297 271 232 q 272 432 271 361 q 272 576 272 503 q 272 718 272 649 q 272 849 272 787 q 272 960 272 911 l 83 962 q 61 979 71 962 q 47 1022 52 996 q 41 1078 42 1048 q 45 1133 41 1107 q 57 1176 49 1159 q 80 1193 66 1193 l 699 1195 m 342 -117 q 343 -98 338 -107 q 357 -82 348 -89 q 379 -71 367 -75 q 404 -65 392 -66 q 426 -67 416 -64 q 441 -77 436 -70 q 469 -179 472 -132 q 433 -281 467 -227 q 412 -299 425 -294 q 386 -304 399 -304 q 360 -298 373 -304 q 340 -285 348 -293 q 329 -267 332 -277 q 334 -246 327 -256 q 358 -197 353 -217 q 361 -163 363 -178 q 353 -138 359 -149 q 342 -117 347 -127 z "},"Ú":{"ha":928,"x_min":47,"x_max":877,"o":"m 462 -14 q 334 5 391 -14 q 233 55 277 23 q 157 132 189 87 q 103 229 125 176 q 71 340 82 281 q 58 460 60 399 q 55 561 57 504 q 52 680 54 617 q 50 808 51 743 q 48 935 49 873 q 48 1048 47 996 q 50 1138 48 1101 q 68 1171 51 1158 q 111 1190 85 1183 q 165 1196 136 1196 q 219 1189 194 1196 q 259 1170 243 1182 q 275 1138 275 1157 q 272 1064 273 1107 q 271 972 271 1021 q 270 868 271 922 q 270 761 270 814 q 271 657 271 707 q 272 563 271 606 q 273 486 273 519 q 275 434 274 453 q 296 336 279 378 q 340 264 314 293 q 398 220 366 235 q 462 205 430 205 q 526 220 494 205 q 585 264 558 235 q 629 336 611 293 q 650 434 646 378 q 652 486 651 453 q 653 563 652 519 q 654 657 654 606 q 654 761 654 707 q 654 868 654 814 q 653 972 654 922 q 652 1064 653 1021 q 650 1138 651 1107 q 665 1170 649 1157 q 706 1189 681 1182 q 760 1196 730 1196 q 814 1190 789 1196 q 856 1171 839 1183 q 874 1138 873 1158 q 876 1048 876 1101 q 877 935 877 996 q 875 808 876 873 q 873 680 874 743 q 870 561 871 617 q 867 460 868 504 q 854 340 865 399 q 822 228 843 281 q 768 131 800 176 q 692 55 736 87 q 590 4 648 22 q 462 -14 533 -14 m 472 1445 q 486 1450 476 1451 q 507 1443 496 1449 q 531 1428 519 1437 q 552 1409 543 1419 q 565 1390 561 1399 q 566 1376 569 1381 l 467 1245 q 448 1234 459 1235 q 424 1238 437 1233 q 399 1253 411 1243 q 378 1273 387 1262 q 365 1293 369 1283 q 366 1310 361 1303 l 472 1445 z "},"Ŭ":{"ha":928,"x_min":47,"x_max":877,"o":"m 462 -14 q 334 5 391 -14 q 233 55 277 23 q 157 132 189 87 q 103 229 125 176 q 71 340 82 281 q 58 460 60 399 q 55 561 57 504 q 52 680 54 617 q 50 808 51 743 q 48 935 49 873 q 48 1048 47 996 q 50 1138 48 1101 q 68 1171 51 1158 q 111 1190 85 1183 q 165 1196 136 1196 q 219 1189 194 1196 q 259 1170 243 1182 q 275 1138 275 1157 q 272 1064 273 1107 q 271 972 271 1021 q 270 868 271 922 q 270 761 270 814 q 271 657 271 707 q 272 563 271 606 q 273 486 273 519 q 275 434 274 453 q 296 336 279 378 q 340 264 314 293 q 398 220 366 235 q 462 205 430 205 q 526 220 494 205 q 585 264 558 235 q 629 336 611 293 q 650 434 646 378 q 652 486 651 453 q 653 563 652 519 q 654 657 654 606 q 654 761 654 707 q 654 868 654 814 q 653 972 654 922 q 652 1064 653 1021 q 650 1138 651 1107 q 665 1170 649 1157 q 706 1189 681 1182 q 760 1196 730 1196 q 814 1190 789 1196 q 856 1171 839 1183 q 874 1138 873 1158 q 876 1048 876 1101 q 877 935 877 996 q 875 808 876 873 q 873 680 874 743 q 870 561 871 617 q 867 460 868 504 q 854 340 865 399 q 822 228 843 281 q 768 131 800 176 q 692 55 736 87 q 590 4 648 22 q 462 -14 533 -14 m 555 1414 q 582 1419 567 1421 q 610 1410 596 1417 q 634 1389 623 1402 q 649 1362 645 1377 q 650 1332 654 1348 q 630 1301 646 1316 q 584 1271 610 1284 q 526 1252 557 1259 q 463 1245 496 1246 q 400 1251 431 1245 q 341 1267 369 1256 q 294 1297 314 1279 q 275 1326 279 1310 q 274 1359 271 1343 q 287 1390 277 1376 q 308 1413 296 1404 q 334 1423 320 1422 q 359 1413 347 1423 q 422 1377 393 1383 q 477 1376 452 1371 q 523 1394 503 1382 q 555 1414 543 1407 z "},"Û":{"ha":928,"x_min":47,"x_max":877,"o":"m 462 -14 q 334 5 391 -14 q 233 55 277 23 q 157 132 189 87 q 103 229 125 176 q 71 340 82 281 q 58 460 60 399 q 55 561 57 504 q 52 680 54 617 q 50 808 51 743 q 48 935 49 873 q 48 1048 47 996 q 50 1138 48 1101 q 68 1171 51 1158 q 111 1190 85 1183 q 165 1196 136 1196 q 219 1189 194 1196 q 259 1170 243 1182 q 275 1138 275 1157 q 272 1064 273 1107 q 271 972 271 1021 q 270 868 271 922 q 270 761 270 814 q 271 657 271 707 q 272 563 271 606 q 273 486 273 519 q 275 434 274 453 q 296 336 279 378 q 340 264 314 293 q 398 220 366 235 q 462 205 430 205 q 526 220 494 205 q 585 264 558 235 q 629 336 611 293 q 650 434 646 378 q 652 486 651 453 q 653 563 652 519 q 654 657 654 606 q 654 761 654 707 q 654 868 654 814 q 653 972 654 922 q 652 1064 653 1021 q 650 1138 651 1107 q 665 1170 649 1157 q 706 1189 681 1182 q 760 1196 730 1196 q 814 1190 789 1196 q 856 1171 839 1183 q 874 1138 873 1158 q 876 1048 876 1101 q 877 935 877 996 q 875 808 876 873 q 873 680 874 743 q 870 561 871 617 q 867 460 868 504 q 854 340 865 399 q 822 228 843 281 q 768 131 800 176 q 692 55 736 87 q 590 4 648 22 q 462 -14 533 -14 m 463 1325 l 437 1268 q 423 1260 434 1261 q 398 1262 412 1259 q 368 1271 383 1265 q 340 1284 353 1277 q 321 1299 328 1292 q 317 1314 314 1307 l 391 1476 q 414 1489 395 1485 q 455 1493 433 1493 q 496 1489 477 1493 q 519 1477 515 1485 l 610 1318 q 607 1303 613 1312 q 589 1288 600 1295 q 562 1273 577 1280 q 533 1262 547 1266 q 508 1259 519 1259 q 493 1267 496 1260 l 463 1325 z "},"Ü":{"ha":928,"x_min":47,"x_max":877,"o":"m 462 -14 q 334 5 391 -14 q 233 55 277 23 q 157 132 189 87 q 103 229 125 176 q 71 340 82 281 q 58 460 60 399 q 55 561 57 504 q 52 680 54 617 q 50 808 51 743 q 48 935 49 873 q 48 1048 47 996 q 50 1138 48 1101 q 68 1171 51 1158 q 111 1190 85 1183 q 165 1196 136 1196 q 219 1189 194 1196 q 259 1170 243 1182 q 275 1138 275 1157 q 272 1064 273 1107 q 271 972 271 1021 q 270 868 271 922 q 270 761 270 814 q 271 657 271 707 q 272 563 271 606 q 273 486 273 519 q 275 434 274 453 q 296 336 279 378 q 340 264 314 293 q 398 220 366 235 q 462 205 430 205 q 526 220 494 205 q 585 264 558 235 q 629 336 611 293 q 650 434 646 378 q 652 486 651 453 q 653 563 652 519 q 654 657 654 606 q 654 761 654 707 q 654 868 654 814 q 653 972 654 922 q 652 1064 653 1021 q 650 1138 651 1107 q 665 1170 649 1157 q 706 1189 681 1182 q 760 1196 730 1196 q 814 1190 789 1196 q 856 1171 839 1183 q 874 1138 873 1158 q 876 1048 876 1101 q 877 935 877 996 q 875 808 876 873 q 873 680 874 743 q 870 561 871 617 q 867 460 868 504 q 854 340 865 399 q 822 228 843 281 q 768 131 800 176 q 692 55 736 87 q 590 4 648 22 q 462 -14 533 -14 m 369 1277 q 321 1288 340 1276 q 292 1318 302 1299 q 283 1357 283 1336 q 292 1397 283 1379 q 320 1429 301 1416 q 366 1441 338 1441 q 409 1429 391 1441 q 436 1399 427 1417 q 446 1360 446 1381 q 439 1321 447 1339 q 413 1290 431 1303 q 369 1277 396 1278 m 567 1274 q 519 1285 538 1273 q 490 1315 500 1297 q 480 1354 480 1333 q 489 1394 479 1376 q 516 1425 498 1413 q 563 1438 535 1438 q 606 1426 589 1438 q 633 1396 624 1414 q 644 1357 643 1378 q 636 1318 644 1336 q 611 1287 628 1299 q 567 1274 593 1274 z "},"Ù":{"ha":928,"x_min":47,"x_max":877,"o":"m 462 -14 q 334 5 391 -14 q 233 55 277 23 q 157 132 189 87 q 103 229 125 176 q 71 340 82 281 q 58 460 60 399 q 55 561 57 504 q 52 680 54 617 q 50 808 51 743 q 48 935 49 873 q 48 1048 47 996 q 50 1138 48 1101 q 68 1171 51 1158 q 111 1190 85 1183 q 165 1196 136 1196 q 219 1189 194 1196 q 259 1170 243 1182 q 275 1138 275 1157 q 272 1064 273 1107 q 271 972 271 1021 q 270 868 271 922 q 270 761 270 814 q 271 657 271 707 q 272 563 271 606 q 273 486 273 519 q 275 434 274 453 q 296 336 279 378 q 340 264 314 293 q 398 220 366 235 q 462 205 430 205 q 526 220 494 205 q 585 264 558 235 q 629 336 611 293 q 650 434 646 378 q 652 486 651 453 q 653 563 652 519 q 654 657 654 606 q 654 761 654 707 q 654 868 654 814 q 653 972 654 922 q 652 1064 653 1021 q 650 1138 651 1107 q 665 1170 649 1157 q 706 1189 681 1182 q 760 1196 730 1196 q 814 1190 789 1196 q 856 1171 839 1183 q 874 1138 873 1158 q 876 1048 876 1101 q 877 935 877 996 q 875 808 876 873 q 873 680 874 743 q 870 561 871 617 q 867 460 868 504 q 854 340 865 399 q 822 228 843 281 q 768 131 800 176 q 692 55 736 87 q 590 4 648 22 q 462 -14 533 -14 m 562 1303 q 563 1287 567 1297 q 551 1266 559 1277 q 530 1246 542 1256 q 505 1232 517 1237 q 480 1228 492 1227 q 462 1239 469 1229 l 363 1370 q 363 1384 359 1375 q 377 1403 368 1393 q 398 1422 386 1413 q 421 1437 410 1431 q 443 1444 433 1442 q 456 1439 452 1445 l 562 1303 z "},"Ű":{"ha":928,"x_min":47,"x_max":877,"o":"m 462 -14 q 334 5 391 -14 q 233 55 277 23 q 157 132 189 87 q 103 229 125 176 q 71 340 82 281 q 58 460 60 399 q 55 561 57 504 q 52 680 54 617 q 50 808 51 743 q 48 935 49 873 q 48 1048 47 996 q 50 1138 48 1101 q 68 1171 51 1158 q 111 1190 85 1183 q 165 1196 136 1196 q 219 1189 194 1196 q 259 1170 243 1182 q 275 1138 275 1157 q 272 1064 273 1107 q 271 972 271 1021 q 270 868 271 922 q 270 761 270 814 q 271 657 271 707 q 272 563 271 606 q 273 486 273 519 q 275 434 274 453 q 296 336 279 378 q 340 264 314 293 q 398 220 366 235 q 462 205 430 205 q 526 220 494 205 q 585 264 558 235 q 629 336 611 293 q 650 434 646 378 q 652 486 651 453 q 653 563 652 519 q 654 657 654 606 q 654 761 654 707 q 654 868 654 814 q 653 972 654 922 q 652 1064 653 1021 q 650 1138 651 1107 q 665 1170 649 1157 q 706 1189 681 1182 q 760 1196 730 1196 q 814 1190 789 1196 q 856 1171 839 1183 q 874 1138 873 1158 q 876 1048 876 1101 q 877 935 877 996 q 875 808 876 873 q 873 680 874 743 q 870 561 871 617 q 867 460 868 504 q 854 340 865 399 q 822 228 843 281 q 768 131 800 176 q 692 55 736 87 q 590 4 648 22 q 462 -14 533 -14 m 376 1436 q 390 1440 380 1442 q 412 1433 400 1439 q 435 1418 423 1428 q 456 1399 447 1409 q 469 1381 465 1390 q 470 1367 473 1372 l 371 1236 q 352 1224 363 1225 q 328 1229 341 1223 q 303 1243 315 1234 q 282 1263 291 1253 q 270 1284 273 1274 q 271 1300 266 1294 l 376 1436 m 567 1423 q 581 1428 571 1429 q 602 1420 591 1426 q 626 1406 614 1415 q 647 1387 637 1396 q 660 1368 656 1377 q 661 1354 664 1359 l 562 1223 q 543 1212 554 1213 q 519 1216 532 1211 q 494 1230 506 1221 q 473 1250 481 1240 q 460 1271 464 1261 q 461 1287 456 1281 l 567 1423 z "},"Ū":{"ha":928,"x_min":47,"x_max":877,"o":"m 462 -14 q 334 5 391 -14 q 233 55 277 23 q 157 132 189 87 q 103 229 125 176 q 71 340 82 281 q 58 460 60 399 q 55 561 57 504 q 52 680 54 617 q 50 808 51 743 q 48 935 49 873 q 48 1048 47 996 q 50 1138 48 1101 q 68 1171 51 1158 q 111 1190 85 1183 q 165 1196 136 1196 q 219 1189 194 1196 q 259 1170 243 1182 q 275 1138 275 1157 q 272 1064 273 1107 q 271 972 271 1021 q 270 868 271 922 q 270 761 270 814 q 271 657 271 707 q 272 563 271 606 q 273 486 273 519 q 275 434 274 453 q 296 336 279 378 q 340 264 314 293 q 398 220 366 235 q 462 205 430 205 q 526 220 494 205 q 585 264 558 235 q 629 336 611 293 q 650 434 646 378 q 652 486 651 453 q 653 563 652 519 q 654 657 654 606 q 654 761 654 707 q 654 868 654 814 q 653 972 654 922 q 652 1064 653 1021 q 650 1138 651 1107 q 665 1170 649 1157 q 706 1189 681 1182 q 760 1196 730 1196 q 814 1190 789 1196 q 856 1171 839 1183 q 874 1138 873 1158 q 876 1048 876 1101 q 877 935 877 996 q 875 808 876 873 q 873 680 874 743 q 870 561 871 617 q 867 460 868 504 q 854 340 865 399 q 822 228 843 281 q 768 131 800 176 q 692 55 736 87 q 590 4 648 22 q 462 -14 533 -14 m 631 1413 q 652 1403 642 1413 q 667 1379 661 1394 q 673 1349 672 1365 q 668 1318 673 1332 q 651 1294 663 1303 q 620 1285 640 1285 l 277 1285 q 259 1295 267 1285 q 248 1318 252 1304 q 243 1348 243 1332 q 246 1378 243 1364 q 256 1401 249 1392 q 275 1411 263 1411 l 631 1413 z "},"Ų":{"ha":928,"x_min":47,"x_max":877,"o":"m 462 -14 q 334 5 391 -14 q 233 55 277 23 q 157 132 189 87 q 103 229 125 176 q 71 340 82 281 q 58 460 60 399 q 55 561 57 504 q 52 680 54 617 q 50 808 51 743 q 48 935 49 873 q 48 1048 47 996 q 50 1138 48 1101 q 68 1171 51 1158 q 111 1190 85 1183 q 165 1196 136 1196 q 219 1189 194 1196 q 259 1170 243 1182 q 275 1138 275 1157 q 272 1064 273 1107 q 271 972 271 1021 q 270 868 271 922 q 270 761 270 814 q 271 657 271 707 q 272 563 271 606 q 273 486 273 519 q 275 434 274 453 q 296 336 279 378 q 340 264 314 293 q 398 220 366 235 q 462 205 430 205 q 526 220 494 205 q 585 264 558 235 q 629 336 611 293 q 650 434 646 378 q 652 486 651 453 q 653 563 652 519 q 654 657 654 606 q 654 761 654 707 q 654 868 654 814 q 653 972 654 922 q 652 1064 653 1021 q 650 1138 651 1107 q 665 1170 649 1157 q 706 1189 681 1182 q 760 1196 730 1196 q 814 1190 789 1196 q 856 1171 839 1183 q 874 1138 873 1158 q 876 1048 876 1101 q 877 935 877 996 q 875 808 876 873 q 873 680 874 743 q 870 561 871 617 q 867 460 868 504 q 852 330 865 394 q 814 211 839 267 q 751 109 789 155 q 660 34 713 64 q 649 -10 652 13 q 651 -54 646 -33 q 674 -89 656 -74 q 727 -109 692 -104 q 743 -122 737 -110 q 749 -150 748 -134 q 747 -185 750 -167 q 736 -220 744 -204 q 716 -244 728 -235 q 688 -251 705 -254 q 594 -218 631 -242 q 539 -162 557 -195 q 518 -90 520 -129 q 528 -9 516 -50 q 496 -13 513 -12 q 462 -14 479 -14 z "},"Ů":{"ha":928,"x_min":47,"x_max":877,"o":"m 462 -14 q 334 5 391 -14 q 233 55 277 23 q 157 132 189 87 q 103 229 125 176 q 71 340 82 281 q 58 460 60 399 q 55 561 57 504 q 52 680 54 617 q 50 808 51 743 q 48 935 49 873 q 48 1048 47 996 q 50 1138 48 1101 q 68 1171 51 1158 q 111 1190 85 1183 q 165 1196 136 1196 q 219 1189 194 1196 q 259 1170 243 1182 q 275 1138 275 1157 q 272 1064 273 1107 q 271 972 271 1021 q 270 868 271 922 q 270 761 270 814 q 271 657 271 707 q 272 563 271 606 q 273 486 273 519 q 275 434 274 453 q 296 336 279 378 q 340 264 314 293 q 398 220 366 235 q 462 205 430 205 q 526 220 494 205 q 585 264 558 235 q 629 336 611 293 q 650 434 646 378 q 652 486 651 453 q 653 563 652 519 q 654 657 654 606 q 654 761 654 707 q 654 868 654 814 q 653 972 654 922 q 652 1064 653 1021 q 650 1138 651 1107 q 665 1170 649 1157 q 706 1189 681 1182 q 760 1196 730 1196 q 814 1190 789 1196 q 856 1171 839 1183 q 874 1138 873 1158 q 876 1048 876 1101 q 877 935 877 996 q 875 808 876 873 q 873 680 874 743 q 870 561 871 617 q 867 460 868 504 q 854 340 865 399 q 822 228 843 281 q 768 131 800 176 q 692 55 736 87 q 590 4 648 22 q 462 -14 533 -14 m 471 1241 q 393 1258 424 1240 q 346 1305 362 1277 q 330 1368 330 1334 q 345 1431 330 1402 q 390 1480 359 1460 q 465 1499 420 1499 q 535 1481 507 1499 q 579 1434 564 1462 q 595 1372 594 1405 q 583 1311 596 1339 q 542 1262 570 1282 q 471 1241 514 1242 m 466 1344 q 488 1353 481 1344 q 495 1372 495 1362 q 487 1391 494 1382 q 464 1399 479 1399 q 440 1390 448 1399 q 433 1371 433 1381 q 441 1352 433 1360 q 466 1344 450 1343 z "},"Ũ":{"ha":928,"x_min":47,"x_max":877,"o":"m 462 -14 q 334 5 391 -14 q 233 55 277 23 q 157 132 189 87 q 103 229 125 176 q 71 340 82 281 q 58 460 60 399 q 55 561 57 504 q 52 680 54 617 q 50 808 51 743 q 48 935 49 873 q 48 1048 47 996 q 50 1138 48 1101 q 68 1171 51 1158 q 111 1190 85 1183 q 165 1196 136 1196 q 219 1189 194 1196 q 259 1170 243 1182 q 275 1138 275 1157 q 272 1064 273 1107 q 271 972 271 1021 q 270 868 271 922 q 270 761 270 814 q 271 657 271 707 q 272 563 271 606 q 273 486 273 519 q 275 434 274 453 q 296 336 279 378 q 340 264 314 293 q 398 220 366 235 q 462 205 430 205 q 526 220 494 205 q 585 264 558 235 q 629 336 611 293 q 650 434 646 378 q 652 486 651 453 q 653 563 652 519 q 654 657 654 606 q 654 761 654 707 q 654 868 654 814 q 653 972 654 922 q 652 1064 653 1021 q 650 1138 651 1107 q 665 1170 649 1157 q 706 1189 681 1182 q 760 1196 730 1196 q 814 1190 789 1196 q 856 1171 839 1183 q 874 1138 873 1158 q 876 1048 876 1101 q 877 935 877 996 q 875 808 876 873 q 873 680 874 743 q 870 561 871 617 q 867 460 868 504 q 854 340 865 399 q 822 228 843 281 q 768 131 800 176 q 692 55 736 87 q 590 4 648 22 q 462 -14 533 -14 m 330 1295 q 316 1286 326 1286 q 295 1290 307 1285 q 273 1302 284 1294 q 253 1321 261 1311 q 241 1343 244 1332 q 244 1366 238 1355 q 298 1434 271 1413 q 355 1457 326 1455 q 415 1448 385 1459 q 477 1418 446 1436 q 516 1401 501 1404 q 542 1402 531 1398 q 561 1418 553 1407 q 580 1444 569 1430 q 600 1459 588 1456 q 626 1461 612 1463 q 653 1452 640 1459 q 675 1437 666 1446 q 688 1416 684 1428 q 687 1394 692 1405 q 642 1328 669 1355 q 585 1290 616 1301 q 520 1283 554 1278 q 452 1310 486 1287 q 416 1333 433 1324 q 384 1343 399 1343 q 356 1333 370 1344 q 330 1295 342 1322 z "},"Ẃ":{"ha":1407,"x_min":37,"x_max":1370,"o":"m 1143 1193 q 1166 1214 1147 1206 q 1211 1223 1185 1221 q 1266 1220 1237 1224 q 1318 1204 1295 1215 q 1356 1177 1342 1194 q 1366 1138 1370 1160 q 1353 1075 1363 1122 q 1329 961 1343 1028 q 1296 810 1314 893 q 1258 638 1278 727 q 1219 459 1239 549 q 1181 289 1199 370 q 1148 140 1163 208 q 1122 29 1133 73 q 1098 3 1119 14 q 1046 -14 1076 -8 q 980 -19 1015 -19 q 914 -13 945 -19 q 860 5 883 -7 q 831 36 838 17 q 809 115 823 63 q 778 233 795 166 q 742 378 761 300 q 704 536 723 456 q 665 377 684 455 q 629 231 646 298 q 598 112 612 164 q 576 33 585 60 q 547 3 570 15 q 493 -16 524 -9 q 427 -22 462 -22 q 361 -16 392 -22 q 310 0 331 -11 q 285 26 288 11 q 259 137 275 70 q 226 286 244 205 q 188 457 208 367 q 149 635 168 547 q 111 807 130 724 q 78 958 93 890 q 54 1072 64 1025 q 41 1135 44 1119 q 51 1174 37 1158 q 89 1202 65 1191 q 141 1217 113 1213 q 196 1220 170 1221 q 241 1211 222 1219 q 264 1190 260 1204 l 440 399 l 596 1090 q 614 1108 598 1101 q 654 1119 631 1116 q 704 1122 677 1122 q 753 1118 730 1122 q 792 1107 777 1115 q 811 1090 808 1100 l 967 401 l 1143 1193 m 711 1445 q 725 1450 715 1451 q 746 1443 734 1449 q 769 1428 758 1437 q 790 1409 781 1419 q 804 1390 800 1399 q 804 1376 808 1381 l 705 1245 q 687 1234 698 1235 q 663 1238 675 1233 q 637 1253 650 1243 q 616 1273 625 1262 q 604 1293 608 1283 q 605 1310 600 1303 l 711 1445 z "},"Ŵ":{"ha":1407,"x_min":37,"x_max":1370,"o":"m 1143 1193 q 1166 1214 1147 1206 q 1211 1223 1185 1221 q 1266 1220 1237 1224 q 1318 1204 1295 1215 q 1356 1177 1342 1194 q 1366 1138 1370 1160 q 1353 1075 1363 1122 q 1329 961 1343 1028 q 1296 810 1314 893 q 1258 638 1278 727 q 1219 459 1239 549 q 1181 289 1199 370 q 1148 140 1163 208 q 1122 29 1133 73 q 1098 3 1119 14 q 1046 -14 1076 -8 q 980 -19 1015 -19 q 914 -13 945 -19 q 860 5 883 -7 q 831 36 838 17 q 809 115 823 63 q 778 233 795 166 q 742 378 761 300 q 704 536 723 456 q 665 377 684 455 q 629 231 646 298 q 598 112 612 164 q 576 33 585 60 q 547 3 570 15 q 493 -16 524 -9 q 427 -22 462 -22 q 361 -16 392 -22 q 310 0 331 -11 q 285 26 288 11 q 259 137 275 70 q 226 286 244 205 q 188 457 208 367 q 149 635 168 547 q 111 807 130 724 q 78 958 93 890 q 54 1072 64 1025 q 41 1135 44 1119 q 51 1174 37 1158 q 89 1202 65 1191 q 141 1217 113 1213 q 196 1220 170 1221 q 241 1211 222 1219 q 264 1190 260 1204 l 440 399 l 596 1090 q 614 1108 598 1101 q 654 1119 631 1116 q 704 1122 677 1122 q 753 1118 730 1122 q 792 1107 777 1115 q 811 1090 808 1100 l 967 401 l 1143 1193 m 702 1325 l 676 1268 q 662 1260 673 1261 q 636 1262 651 1259 q 607 1271 622 1265 q 579 1284 591 1277 q 560 1299 567 1292 q 556 1314 553 1307 l 630 1476 q 653 1489 634 1485 q 694 1493 672 1493 q 735 1489 715 1493 q 758 1477 754 1485 l 848 1318 q 845 1303 852 1312 q 827 1288 839 1295 q 801 1273 816 1280 q 772 1262 786 1266 q 746 1259 758 1259 q 732 1267 735 1260 l 702 1325 z "},"Ẅ":{"ha":1407,"x_min":37,"x_max":1370,"o":"m 1143 1193 q 1166 1214 1147 1206 q 1211 1223 1185 1221 q 1266 1220 1237 1224 q 1318 1204 1295 1215 q 1356 1177 1342 1194 q 1366 1138 1370 1160 q 1353 1075 1363 1122 q 1329 961 1343 1028 q 1296 810 1314 893 q 1258 638 1278 727 q 1219 459 1239 549 q 1181 289 1199 370 q 1148 140 1163 208 q 1122 29 1133 73 q 1098 3 1119 14 q 1046 -14 1076 -8 q 980 -19 1015 -19 q 914 -13 945 -19 q 860 5 883 -7 q 831 36 838 17 q 809 115 823 63 q 778 233 795 166 q 742 378 761 300 q 704 536 723 456 q 665 377 684 455 q 629 231 646 298 q 598 112 612 164 q 576 33 585 60 q 547 3 570 15 q 493 -16 524 -9 q 427 -22 462 -22 q 361 -16 392 -22 q 310 0 331 -11 q 285 26 288 11 q 259 137 275 70 q 226 286 244 205 q 188 457 208 367 q 149 635 168 547 q 111 807 130 724 q 78 958 93 890 q 54 1072 64 1025 q 41 1135 44 1119 q 51 1174 37 1158 q 89 1202 65 1191 q 141 1217 113 1213 q 196 1220 170 1221 q 241 1211 222 1219 q 264 1190 260 1204 l 440 399 l 596 1090 q 614 1108 598 1101 q 654 1119 631 1116 q 704 1122 677 1122 q 753 1118 730 1122 q 792 1107 777 1115 q 811 1090 808 1100 l 967 401 l 1143 1193 m 608 1277 q 560 1288 579 1276 q 531 1318 541 1299 q 522 1357 522 1336 q 531 1397 522 1379 q 558 1429 540 1416 q 605 1441 577 1441 q 648 1429 630 1441 q 675 1399 665 1417 q 685 1360 684 1381 q 677 1321 686 1339 q 652 1290 669 1303 q 608 1277 635 1278 m 806 1274 q 758 1285 777 1273 q 729 1315 739 1297 q 719 1354 719 1333 q 727 1394 718 1376 q 755 1425 736 1413 q 802 1438 774 1438 q 845 1426 827 1438 q 872 1396 863 1414 q 882 1357 882 1378 q 875 1318 883 1336 q 849 1287 867 1299 q 806 1274 832 1274 z "},"Ẁ":{"ha":1407,"x_min":37,"x_max":1370,"o":"m 1143 1193 q 1166 1214 1147 1206 q 1211 1223 1185 1221 q 1266 1220 1237 1224 q 1318 1204 1295 1215 q 1356 1177 1342 1194 q 1366 1138 1370 1160 q 1353 1075 1363 1122 q 1329 961 1343 1028 q 1296 810 1314 893 q 1258 638 1278 727 q 1219 459 1239 549 q 1181 289 1199 370 q 1148 140 1163 208 q 1122 29 1133 73 q 1098 3 1119 14 q 1046 -14 1076 -8 q 980 -19 1015 -19 q 914 -13 945 -19 q 860 5 883 -7 q 831 36 838 17 q 809 115 823 63 q 778 233 795 166 q 742 378 761 300 q 704 536 723 456 q 665 377 684 455 q 629 231 646 298 q 598 112 612 164 q 576 33 585 60 q 547 3 570 15 q 493 -16 524 -9 q 427 -22 462 -22 q 361 -16 392 -22 q 310 0 331 -11 q 285 26 288 11 q 259 137 275 70 q 226 286 244 205 q 188 457 208 367 q 149 635 168 547 q 111 807 130 724 q 78 958 93 890 q 54 1072 64 1025 q 41 1135 44 1119 q 51 1174 37 1158 q 89 1202 65 1191 q 141 1217 113 1213 q 196 1220 170 1221 q 241 1211 222 1219 q 264 1190 260 1204 l 440 399 l 596 1090 q 614 1108 598 1101 q 654 1119 631 1116 q 704 1122 677 1122 q 753 1118 730 1122 q 792 1107 777 1115 q 811 1090 808 1100 l 967 401 l 1143 1193 m 801 1303 q 802 1287 806 1297 q 789 1266 798 1277 q 768 1246 781 1256 q 743 1232 756 1237 q 719 1228 730 1227 q 701 1239 707 1229 l 602 1370 q 602 1384 597 1375 q 615 1403 606 1393 q 636 1422 625 1413 q 660 1437 648 1431 q 681 1444 671 1442 q 695 1439 691 1445 l 801 1303 z "},"Ý":{"ha":979,"x_min":39,"x_max":944,"o":"m 490 781 l 732 1187 q 758 1200 739 1199 q 803 1195 778 1201 q 854 1177 828 1189 q 902 1152 881 1166 q 933 1124 922 1138 q 938 1098 944 1109 l 612 510 l 614 8 q 596 -18 614 -6 q 551 -36 578 -29 q 493 -43 524 -42 q 435 -38 462 -44 q 390 -17 408 -31 q 373 21 372 -3 l 380 512 l 44 1102 q 44 1121 39 1110 q 61 1142 50 1131 q 91 1162 73 1152 q 127 1181 108 1173 q 166 1195 146 1190 q 203 1203 186 1201 q 232 1202 220 1205 q 250 1191 245 1200 l 490 781 m 497 1445 q 511 1450 501 1451 q 532 1443 521 1449 q 556 1428 544 1437 q 577 1409 568 1419 q 590 1390 586 1399 q 591 1376 594 1381 l 492 1245 q 473 1234 484 1235 q 449 1238 462 1233 q 424 1253 436 1243 q 403 1273 412 1262 q 390 1293 394 1283 q 391 1310 387 1303 l 497 1445 z "}}}
